<mxfile host="app.diagrams.net" agent="Mozilla/5.0 (Windows NT 10.0; Win64; x64) AppleWebKit/537.36 (KHTML, like Gecko) Chrome/133.0.0.0 Safari/537.36" version="26.0.11">
  <diagram name="AWS Service Architecture" id="0">
    <mxGraphModel dx="4717" dy="3788" grid="1" gridSize="10" guides="1" tooltips="1" connect="1" arrows="1" fold="1" page="1" pageScale="1" pageWidth="827" pageHeight="1169" math="0" shadow="0">
      <root>
        <mxCell id="0" />
        <mxCell id="1" parent="0" />
        <mxCell id="jIJigr8dvK6AfDzSio0A-138" value="" style="group" vertex="1" connectable="0" parent="1">
          <mxGeometry x="-720" y="-1990" width="2260" height="1380" as="geometry" />
        </mxCell>
        <mxCell id="sndy7mt2s_JfuWecsUhK-98" value="" style="group" parent="jIJigr8dvK6AfDzSio0A-138" vertex="1" connectable="0">
          <mxGeometry x="868" y="121" width="880" height="1130" as="geometry" />
        </mxCell>
        <mxCell id="sndy7mt2s_JfuWecsUhK-17" value="" style="rounded=0;whiteSpace=wrap;html=1;fillColor=none;" parent="sndy7mt2s_JfuWecsUhK-98" vertex="1">
          <mxGeometry y="610" width="720" height="520" as="geometry" />
        </mxCell>
        <mxCell id="jIJigr8dvK6AfDzSio0A-15" value="EC2 instance contents" style="points=[[0,0],[0.25,0],[0.5,0],[0.75,0],[1,0],[1,0.25],[1,0.5],[1,0.75],[1,1],[0.75,1],[0.5,1],[0.25,1],[0,1],[0,0.75],[0,0.5],[0,0.25]];outlineConnect=0;gradientColor=none;html=1;whiteSpace=wrap;fontSize=12;fontStyle=0;container=1;pointerEvents=0;collapsible=0;recursiveResize=0;shape=mxgraph.aws4.group;grIcon=mxgraph.aws4.group_ec2_instance_contents;strokeColor=#D86613;fillColor=none;verticalAlign=top;align=left;spacingLeft=30;fontColor=#D86613;dashed=0;" vertex="1" parent="sndy7mt2s_JfuWecsUhK-98">
          <mxGeometry y="10" width="720" height="520" as="geometry" />
        </mxCell>
        <mxCell id="XDWtXi9IIhZVzAvtdl1A-27" value="Amazon RDS" style="sketch=0;outlineConnect=0;fontColor=#232F3E;gradientColor=none;strokeColor=#ffffff;fillColor=#232F3E;dashed=0;verticalLabelPosition=middle;verticalAlign=bottom;align=center;html=1;whiteSpace=wrap;fontSize=10;fontStyle=1;spacing=3;shape=mxgraph.aws4.productIcon;prIcon=mxgraph.aws4.rds;" parent="sndy7mt2s_JfuWecsUhK-98" vertex="1">
          <mxGeometry x="798" y="209" width="80" height="100" as="geometry" />
        </mxCell>
        <mxCell id="XDWtXi9IIhZVzAvtdl1A-29" value="Amazon ElastiCache for Redis" style="sketch=0;outlineConnect=0;fontColor=#232F3E;gradientColor=none;strokeColor=#ffffff;fillColor=#232F3E;dashed=0;verticalLabelPosition=middle;verticalAlign=bottom;align=center;html=1;whiteSpace=wrap;fontSize=10;fontStyle=1;spacing=3;shape=mxgraph.aws4.productIcon;prIcon=mxgraph.aws4.elasticache_for_redis;" parent="sndy7mt2s_JfuWecsUhK-98" vertex="1">
          <mxGeometry x="800" y="530" width="80" height="120" as="geometry" />
        </mxCell>
        <mxCell id="XDWtXi9IIhZVzAvtdl1A-36" value="Amazon S3" style="sketch=0;outlineConnect=0;fontColor=#232F3E;gradientColor=none;strokeColor=#ffffff;fillColor=#232F3E;dashed=0;verticalLabelPosition=middle;verticalAlign=bottom;align=center;html=1;whiteSpace=wrap;fontSize=10;fontStyle=1;spacing=3;shape=mxgraph.aws4.productIcon;prIcon=mxgraph.aws4.s3;" parent="sndy7mt2s_JfuWecsUhK-98" vertex="1">
          <mxGeometry x="798.24" y="50" width="80" height="100" as="geometry" />
        </mxCell>
        <mxCell id="sndy7mt2s_JfuWecsUhK-29" value="" style="endArrow=classic;startArrow=classic;html=1;rounded=0;exitX=1.004;exitY=0.328;exitDx=0;exitDy=0;exitPerimeter=0;" parent="sndy7mt2s_JfuWecsUhK-98" edge="1">
          <mxGeometry width="50" height="50" relative="1" as="geometry">
            <mxPoint x="720.0000000000002" y="90.37" as="sourcePoint" />
            <mxPoint x="798.24" y="89.99944519621101" as="targetPoint" />
          </mxGeometry>
        </mxCell>
        <mxCell id="sndy7mt2s_JfuWecsUhK-30" value="" style="endArrow=classic;startArrow=classic;html=1;rounded=0;exitX=1.004;exitY=0.328;exitDx=0;exitDy=0;exitPerimeter=0;" parent="sndy7mt2s_JfuWecsUhK-98" edge="1">
          <mxGeometry width="50" height="50" relative="1" as="geometry">
            <mxPoint x="720" y="250" as="sourcePoint" />
            <mxPoint x="798" y="249" as="targetPoint" />
          </mxGeometry>
        </mxCell>
        <mxCell id="sndy7mt2s_JfuWecsUhK-33" value="" style="endArrow=classic;startArrow=classic;html=1;rounded=0;entryX=1;entryY=0.25;entryDx=0;entryDy=0;" parent="sndy7mt2s_JfuWecsUhK-98" source="XDWtXi9IIhZVzAvtdl1A-29" target="sndy7mt2s_JfuWecsUhK-17" edge="1">
          <mxGeometry width="50" height="50" relative="1" as="geometry">
            <mxPoint x="510" y="540" as="sourcePoint" />
            <mxPoint x="510" y="620" as="targetPoint" />
          </mxGeometry>
        </mxCell>
        <mxCell id="sndy7mt2s_JfuWecsUhK-34" value="" style="endArrow=classic;startArrow=classic;html=1;rounded=0;exitX=0.997;exitY=0.85;exitDx=0;exitDy=0;exitPerimeter=0;" parent="sndy7mt2s_JfuWecsUhK-98" target="XDWtXi9IIhZVzAvtdl1A-29" edge="1">
          <mxGeometry width="50" height="50" relative="1" as="geometry">
            <mxPoint x="717.8400000000001" y="452.0000000000002" as="sourcePoint" />
            <mxPoint x="730" y="750" as="targetPoint" />
          </mxGeometry>
        </mxCell>
        <mxCell id="sndy7mt2s_JfuWecsUhK-35" value="AWS Lambda" style="sketch=0;outlineConnect=0;fontColor=#232F3E;gradientColor=none;strokeColor=#ffffff;fillColor=#232F3E;dashed=0;verticalLabelPosition=middle;verticalAlign=bottom;align=center;html=1;whiteSpace=wrap;fontSize=10;fontStyle=1;spacing=3;shape=mxgraph.aws4.productIcon;prIcon=mxgraph.aws4.lambda;" parent="sndy7mt2s_JfuWecsUhK-98" vertex="1">
          <mxGeometry x="800" y="963.8" width="80" height="100" as="geometry" />
        </mxCell>
        <mxCell id="sndy7mt2s_JfuWecsUhK-36" value="" style="endArrow=classic;startArrow=classic;html=1;rounded=0;entryX=0.996;entryY=0.458;entryDx=0;entryDy=0;entryPerimeter=0;" parent="sndy7mt2s_JfuWecsUhK-98" edge="1">
          <mxGeometry width="50" height="50" relative="1" as="geometry">
            <mxPoint x="800" y="1001.8" as="sourcePoint" />
            <mxPoint x="717.1199999999999" y="1001.9599999999998" as="targetPoint" />
          </mxGeometry>
        </mxCell>
        <mxCell id="sndy7mt2s_JfuWecsUhK-16" value="" style="endArrow=classic;startArrow=classic;html=1;rounded=0;entryX=0;entryY=0.5;entryDx=0;entryDy=0;exitX=0.75;exitY=0;exitDx=0;exitDy=0;" parent="sndy7mt2s_JfuWecsUhK-98" target="sndy7mt2s_JfuWecsUhK-20" edge="1">
          <mxGeometry width="50" height="50" relative="1" as="geometry">
            <mxPoint x="437.8499999999999" y="730" as="sourcePoint" />
            <mxPoint x="550.5" y="779.5" as="targetPoint" />
          </mxGeometry>
        </mxCell>
        <mxCell id="sndy7mt2s_JfuWecsUhK-18" value="" style="group" parent="sndy7mt2s_JfuWecsUhK-98" vertex="1" connectable="0">
          <mxGeometry x="470" y="650" width="60" height="50.5" as="geometry" />
        </mxCell>
        <mxCell id="sndy7mt2s_JfuWecsUhK-19" value="" style="image;sketch=0;aspect=fixed;html=1;points=[];align=center;fontSize=12;image=img/lib/mscae/Docker.svg;" parent="sndy7mt2s_JfuWecsUhK-18" vertex="1">
          <mxGeometry x="9" width="37.2" height="30.5" as="geometry" />
        </mxCell>
        <mxCell id="sndy7mt2s_JfuWecsUhK-20" value="compose" style="text;html=1;align=center;verticalAlign=middle;whiteSpace=wrap;rounded=0;" parent="sndy7mt2s_JfuWecsUhK-18" vertex="1">
          <mxGeometry y="20.5" width="60" height="30" as="geometry" />
        </mxCell>
        <mxCell id="sndy7mt2s_JfuWecsUhK-21" value="" style="endArrow=classic;startArrow=classic;html=1;rounded=0;entryX=0.25;entryY=0;entryDx=0;entryDy=0;exitX=1;exitY=0.5;exitDx=0;exitDy=0;" parent="sndy7mt2s_JfuWecsUhK-98" source="sndy7mt2s_JfuWecsUhK-20" edge="1">
          <mxGeometry width="50" height="50" relative="1" as="geometry">
            <mxPoint x="400" y="760" as="sourcePoint" />
            <mxPoint x="559.7499999999995" y="730" as="targetPoint" />
          </mxGeometry>
        </mxCell>
        <mxCell id="sndy7mt2s_JfuWecsUhK-22" value="&lt;div&gt;&lt;br&gt;&lt;/div&gt;&lt;div&gt;socket-Server&lt;/div&gt;" style="text;html=1;align=center;verticalAlign=middle;whiteSpace=wrap;rounded=0;" parent="sndy7mt2s_JfuWecsUhK-98" vertex="1">
          <mxGeometry y="580" width="80" height="30" as="geometry" />
        </mxCell>
        <mxCell id="sndy7mt2s_JfuWecsUhK-23" value="" style="image;sketch=0;aspect=fixed;html=1;points=[];align=center;fontSize=12;image=img/lib/mscae/Docker.svg;" parent="sndy7mt2s_JfuWecsUhK-98" vertex="1">
          <mxGeometry x="420.5" y="931" width="40" height="32.8" as="geometry" />
        </mxCell>
        <mxCell id="sndy7mt2s_JfuWecsUhK-24" value="" style="whiteSpace=wrap;html=1;aspect=fixed;fillColor=none;" parent="sndy7mt2s_JfuWecsUhK-98" vertex="1">
          <mxGeometry x="420.5" y="931" width="159" height="159" as="geometry" />
        </mxCell>
        <mxCell id="sndy7mt2s_JfuWecsUhK-25" value="" style="shape=image;verticalLabelPosition=bottom;labelBackgroundColor=default;verticalAlign=top;aspect=fixed;imageAspect=0;image=data:image/webp,UklGRnI+AABXRUJQVlA4TGU+AAAvpgFkECrN8v+rtiQ3/WZ+in4FzfwMdyqqkFKVde/Za619cK+1zzn3JnRJUSGNcuZRDzXyywiq7tnr7LXP2tf8F+TkmsQws8XMDJWCNAnLcc3OwTWKudq8TGkumdlpZmbICG0zXlOamZmZQWi2l5ihzKmhmZkrVK2QKmIb0szMOGLGNDOVGNPMx9iR5mMSM24zMzMzs51mElabmUnMrGMuM9OMocNDZbeZ7SOWmX3NTGWmGpmZ4TSIRuY0M2SbSQy1zRliprGZSczQcQ19zIwzFEujcohKzCyVxczSMYulNKXZtyRJliRJtqWvU5URFqbCRKwW6ZMxl5hbvtYH1Ff09/SnDy5Jkh1JkhSH6a/Fu4OhU3dG+FO199zDTdWeexTYzYW5+Ax59KaA7f95NXs7HXU62eYUljnlmm3btlFrSzPyzMy5vdm27dqx/vh9JwBumf9v8ZP0+qpGza3UimAqhakspjM5U51N0UNWXa6wrLpA0QOmc47E8c4xnZyvQ6wzD2XZLDvWQu0D6FifFGatpmgozxQxLLM1zhTB/f7msaTS3t/L4/g+bUqax+K85jEzPxMtmej7CvXRnp4CpsHWoMsaVVjNN4rymuzxFNH4euFVCj4vb7ozzYm0FOct6PaUUo7z/m4716TT6nekJTm28T+27ebrcsfbmJJIky5YQNGfm/8Nho8zng8WM4siLc9UkTY67ONYvceqBDIV0bh3TFLPt42ff1WiOC/vRFqmI6Zf+TbWOk6RKJIrpqazo+U+Lf1+WDBdWOxEWq7jw9+kP7PH5/Iai2SLaR4lj/gyqsytqLC7J2jZ7u4EpmptLgsfNmDFJ4oWxiyQLtuCh0RVRPH3X9D9V27vVkxXz9DyXWwB032ZLT/fVfw96TR5Zey5cC3jPT0RJT9u26+van6LjmbndXvRAinr7+7k5sndG1k3OX81YX1Ss/ji2F6ElvOenkBRdbabmb/K7bLq9hyMJU13d5I0urFJP/XZbPWsx0lqWe+38XTmsoOfGvt5zSy0+FreV2M4fjv6UPRP27Vucsz8nLeQxOmelsy6j8X+yda+DMm0zPczVbHcN5R9E0W/tdwXNEnNK37J0isZkkqepkqQ+qHZ/ojM75UoKqvLXkTjpOKa8r4olzzFtFj+qMJZjg1+iM2uz3D1JC39kU1Wpnc38EEWGWJbksgH2BqzcIj/uS80aig6kfaBMUXtmdjB91AyON+SaV/Y3SKYeuN37HgBU239/qCf6X/2aIvPsdGDcb0I7RPnWdG3l+BrKMd8ZnUUnOAXIlsT9uS5jnWj+JjxsytRlXC+2jcWOyFv1VrX097HsJZPHk8VNPgHvbFeJEWPU18L07dk+13RQu/PRPvIvIa8xWN3BvmVIJdcmqfEw35Cz6PRD/OUlk8xnsFi+P8l2l+OWONDG11T3p/QU+s/oPaZRQss3ZXbaehLcgvKDLfW/YaezvTT7fr/m5wfodWxvCa0/7SVKDfp4kOKhC5TvdqHRlZc7kNo9YAp0o9oqghmnvIdxWcYMzQV+ZKI4W7rQyZ+g6rXP0T7E6ZJihICf0FPLbLxZOxPdMzwlM0R4C8s84utkfarRSfkyDzsS8dPFKzVu9/vW6K8FjJ11keMu95VKZn7+LR/7XbCi8jsY45/sNB2inmxj4l6PGWWDv8QfqHQzczGPx+f9rOzctGY1dPbL1jk0aIlibwgjmfNmlVwQuzJddF0T0+wyI+pr9D1B4VrM6PU7+6eSAtfr0eUrDwwiiMtKooyI28DVdkMlVNU6r1MFT5PSxH/JBIrKtSyXLzBH7Dm8YKFRcLF3S3Ze0+NZpPZlYpMdurrnfnTftpP274NV/Xg3IZytmnD8GcLE8NC6Rlf134/LPxAbvZZNqovdIIWvT+vJSzebzyDBZ4ebJKm7jOMRULpsT1Jpm5u17rJy992rZ/lLPLcuL5wLXyPJ7Jw1Og12eD1oxYYTCUOixXb1NS5yh+rrQuqNxZubC9odtfW4P1jfsKQVe11ofQSilKLvydd9lpW9XBMJ6lFj3uYQmadalUAyDc3/VaxdL4mKFore/bnMdPWk7YG4cb2BEr+zf1KPaiErW8SixVT1VZk6koeVV8KnUiLXmhB3ppieltQEaBbz6WYK5aebuFHcmfnuWDPtejRVKpSyNqVoDIGlro5pieIFR19JruDzLUOPxJuKq1G85zzoFIWdhkwq3qqUDpm8XeZY3jnY9GiRxElPxjrF7SKAbnW0oIFkVCRpQTWaLu8dayFylRdXbiY1mO5n2kIlXO5/U2Zoeh5QulZVlyX/TO1pS1nHaRYFAn31ez4SlBBgMUO73MtoepMYawOCSStcEqL6va8hbTo0d1aFSrpoIUvjvHEI5H0b2KqMxcvkDRG3ba1pC5cnVHroLIWrjI7p3lC6Z5ORMnPq0pZ5vOYaZGtj0+L/ggYztn4+qBVmCCL1lI0PUuo/rxzio23ydjAB8prQose2Up8MVBps+u7IsPRBU8iEkmP6QUU54/ZaShhKdPdMrtmCTeuL7gNCysOsG7WDDXMEioqtjALXfhs0pVaC5Oqx92duBa9P28NFk5ZQeUNNrCxKBZJP4K8NUBbrtLFLH8LTRacIFp0DZQ8MmF9UisQ4PdSt+qfL0koPbYX3IYJTLZkjdrflC0U/bW16PNsqowqc6jIdp9eFHNioYZ7PPn5aKFk0TyXMMWti1bPt4AmN210TfnKtCKL7zGEC6VnUVW87a9Sl6rrYVbKSWvRx/QF1PxS+FFaUKGLa6q860go3d0ibXVgI+tnOZnK5Lmk25JFos36PnaPZUGlAut48U2JNczUiHnJXKK27fqqxqisJVrwaB6jYpZb/8+Aij1geXyKhdKxheIkippbx/uSadHXoro9iz2hgtt9mlI00C+UtmucKj9poj+GZl7XxqJFeQtn1d2JlWwj6ybH9P6CRUZCDVNVbfzHVJElVl3u8SS06GtRXZfJMRMq+rJrsGidMVkozUyCxlckafy89Kke0aLHLBZT8+BAZQPKnF+w+rcqVMxQT/Y+beSImmG2JoUbZupv8T/uKlDhjfVBY+hCtye8JJGiQoug1UcpyoydaTSqRa8zJHlnUPGT92VkoZ+TRdL9VE0zc7UMWTiVKSScttSnhZWvmTu5Lk9NThVJF3uCjbNTX++q8kNRIEOTdeGY+pe8n0YggR1r0ql6tj9CRb+BRmfkxyJ/5TXSoscvMZAByD3DkanaGSLpGUzX0ms6yY4dbbTRRCxaP4u6yOz6IIUd60ax9GmKZLFIUXcnyaKIjt9/QZebDS3ze7FFatHzFJkldwdyANn1XZFZOZNE0v35eCyHA+TGbh07xrpo18D091VBFnNjLxpN9IukL9hCqeO+3lVl5lQsVXAmWvC42OIVqCCQxgFaP2SIECrq7olTanfH+qTKS9Ouzndb4mHRxnrBVYxeC1segLnpUNQSi6SXUNRGL5nLi3l2K6pquz2RFnwG0z35ky4gkzbHGoalQumiE13AhLVQZSWg6kxPT0wL/pJ6OuEXL7fAkIqWVX2MhIqO8fPLSreea5FDU0Ub0xM+b+6UFcglOTLZZCSSLlhgpb5LylKvUtjvu6MFj20stvShOZIB1PPgaQmlqcYpuUNOnhLFU7FoF2zVP1NfUxdks3hPFVsnryWUpqhnQxm5ea/fKlD96vFpwR8BUxMfOZAOSDHtqe5ZS6gfQtF5GXntjJJGgkW7QfGH4pp0kM9BerTExhM9TogFqlu6o8j/sOVjO9ek2zgn1oL3Uz1wJSCjrb9qo7L45T+CSJBo6qZoDif5YM2lb0ALHjGN8vjRHCmBVprLgqr7BWcZU7zJ29qvsGxfML4vODYB5zEtY6jAvp6m0lG87ypMl2vhLLI1y2YJktq8URrNsNAuqw5h+JGt39g49au6fx/Z+DYjj1o+bQekwz557k+LFkWseXRAVgCaZ7HcNxg/bb2P89MEPJspAcjmuK+n6v+PRNNMF91p6Aun6vEP0aKvRd39mn1h+TttKNkXixZb+H1x/QUd+sIvl2pCi25pIn+fNtAXbuMACw/Eos2zyVtvtS+sYy3Ux11okVrwWazutu+nEfSFU2sroyZj0S7brvYW102+L+ydUJQxpifSgr/8c/r90BdeqPcUndxhwfp7enKYtSLoCyvsMrjUnp5IC/4ZLjd1vatCH/gUVp/otiTDgi3J18M5joCgL8x+PyxosnOWFnzzdvTs6UMf+HLf/8+w9ZUxPQkt+DyK6p859IWze7M+yWHB4kNizZBWX9hns3FksYW04JunqqLwWtWhL5wdO/9mLXjMsMiKTzT7wiYyMi0WrZ+qvzcKfeHvrYBlWvA603x7vBL6wv+djSq16DHDH86iT4yiY0zjokUUTRwg9IWPaWq/67po3Z7AWiGtPjEbPfwNWvA6060PCPrCL4aS/f2ijfcFl9GxbpQ+sZO1Na4F/03M+oFfpQ594VaOZRQPxoJFSzIoMOgLS613pqWTf6QWfGxPoCh2q9AXbh9tZ5gTC5Z3wiOzeXoGfWGFV6kznHYmWvDJFAdP+FqYIPZbXfb5omlzWGQ57exqo21tkW6L2p6bp9eyz2BVGuax+TnXBVuLqa6nBEJnW2bM9GfUbabzik7uuL74PV6ityPdYzxF47yE7NS6wcoy9vPQsNCn7WMaBJ/MVMTZiJQ76ZJPnbLIsq8xxktasIioHkn4tvYLUHVgo2vKVxZWu1loKBYsZpj/5AJxXvmP/f/jfUmKLTKKtJS/pO5ObuY55kNlZWRQTy9CCz6P4dLCLisQtfh70rdioZKxXtJJdS3rO0XRS7J2pcpS/MdN3o5OjuuFRJvM9Odl12CJQh/NpuidrfkPONLSXmhBt+eQdbSwWVlu7jcYdh08phcS7TPQ6MmAINm+3A6saGGxlvdoXC9g+l5hlQJUWJY8Nb4XKdrG+gKGowbFyFHr/v8TGtYSvxrT7ZnP8oBKmyfXb6xfQLh3GAhBHwVaeHi6lvnoEVjRtZUqDm13Zah3fcEOhaH3Hc9giZBv2lBcUXAiLfXzqK7Ind0KKu6yz9Ck5OftE+waqP7G5qUvQOFA6zB7ehJa6mOGMIrOF9eUrzyQ83mw4JQOizWDqpbX3nTfVxrnhUVyN4OaRcyXDlRg+7pMKf6zebHqf9qq9rov3cOV6elhLfUFJ1AstjwOBZUI3nLeEsVC6Zefq2OWfT5YbkuthUmtH0u03Oc1Ovzi78mGijxmp+EhzRLrEdi6/7Dd9roLLUzLfUyRjEZLoELnyR3M4hQsEEpPpnHYqi6jqqAueQwjK0421getUo3aULZUkq3JSKhHUMBjedLOXdnajWpcy33EkDB7nzZQsfNHCxme7BdK93iCpRKL91Rx1a1gGskei1+1KlfH+qRS69lZR0Lpnl7i/E53VzE0EEkepabOHSq4fT+NfngsVrcFFGcXWdguypnuFIkkb+p3DSoZvCKmCLF03iItvMZF+26ZMi31MUVj2E0HKvr4+b0SizojsWKbLNvQPdT8/FvlbjUbbQ8qG1C1iiFSLG1rZKEL7jmoWOp6POEVsD83HajwA9TKmiVWRNFAYXcDt2zX/9/kKO6VuqiHKcnpbYOVDlh3tzzmiqU1q6Ldwv5116dqWOpePkNfM2+HBlT8Oew4/DOIVWd6/Lhd8sqZGpW5uNspzJmrg8oHdDS7mOrKt0Ao/cEY9dUlhbNbSd3YXrCP+L3UQQInvufJYq3P0L/sPFe5o7ubtcwVW2DrwVcYyABkr83MrguLPZFQeomtvzVckb3KzFKjEjeZmgmXD1I4WDjHzrguVEwVj5K7XdGiuE/eZuStrmzTpykHQK+uZjc/ThZKr8bQ/7/GDWChXmmLplrq+cbXL2ggixZeY+OpqUJFtiJZ8nTghsOkGsnaLIbb0/twBWlsWVVcT09SKL2Epeoyn7uDG/I4hGlM0obfBMW3WvIA9NQiGvXMEkqfCZ3nreW+wXBBfsvvZCQtpqqt+ExjkMiBnc5rPBKqv8gczG67uSC3vylTPB5JWUQVsuqLAzIB9r7m0Kh5qlB6fC/IkTH7WT74Oz9JyvT3ob++qoFUBlZ9wsaSulDDBUuUr7xdkMtzAVWElBUsyJPrm3IBxfuuwpJFkVB6nqVzln0Gq3wd6y/oVFW9JAmL3uSE9c4E2aRHa6nGIqG0XROU59rBsgHrsWGsF0iY/gIgnWdDVYoWO7Zw948t361hVuYS6XoEVpS0R/IB2Z/d7tOIpWM6db58YEULGZbUJSuykTA36QISupF1o1hWeCyWpmrU+pBJ+aZQj6sXLFnzqBl2D2QEMvcwPsm6WNpG0eWDzD2NqfoxphOkan1bc14ASOkg8zhUaIFYEa0E+UmX8jWp5fEe14okap6dvJL6emfKCdDrq5qlyoqeIJSOKMoe9Q1G2WDgdd/OteSpxxOobsx97rNAVq3jNQVPIhKqTpWAmlvLBy0r12Jad82IJKneYxHMOjthfVKlZdz1VGU6+TMIpaeyqDjb1C4ftLJUkK1bryGSo7F9ATXzrSMTkFer8u62RvMtECo6Mpu86AJo2Y8XqCOIZSguMiWU4/CAxKx3AdcglO72BKoqqDJ3AWzX+qTYvUwZvv105knQmJ5AqawUoQsyS3e52rp5iVDRO2Lorhugme1D8bIfRs+ZsJbsTH0G1mhLIDXG+gWNkrf6I5H0aTHU/FzdADCQS+pZ8TJmfY+2GkvNaszMLa7JBrmlb5ph49J5Qum7Qz2e7ZIrAFqZz3/UYGNnFt2nqjMutCCO43ocx3E99tLheuQBU6ketvcRAJLbZOZpisSxUI/ARmPWyNslAEHqa2Fuxfoo2+/FxlG0+sl0/iOjWLRDO7RDj4whDkMllvpDzTyvtKqfFI8xSrxP/ZFw67M4eaHsQOpaVCn6+/iE0hfMosTlNpTdAgDBwp82msleNXU9VVeweE+VVb0z2++KW/2xVrSRoSqKiLpg8Q+iqUUgvx/5jPuFqv9pK168XetnOfd494S1UHfrA+U1Ekzb6vEcCWpRlfSQhNI9nWCh3x+n8gH8ip3bvFDRqWRfmyXI8L+iaKIulO7pJGlqUyABcAw9Tl5dpFlUX+9YnxQpGqTWs0isR0BR1XnLwJOi6E/RE4lkkd25/U0Z5Nj+vIxo1CmWnv5bZGC9HBnZ0wsJNLYX5MndIMv01JFYrOgHJe/LSAI6/v6kUn3ljomz/ts6O2naiq1qmIWE0rFFxkjAqG8oW/rFmQgTFT2B3gpsShOwk0HdniCWZprH7pd15Uu/yoDiP7OEOQKqcgvvqzrI8/ZR/XY3xNIUp1Y+pufaWhqJUmdKZnHOCyQK0rtcz3pYqDpV3EyOZZWu4/ek02Rod0+kRZ1MyditgExv/BmsT7Z5oXRsxX8mfL0zK1xmducrr4sya8eph0cgVTD2XHMYHpgqVH0fKDpc2cj8q9I3eVla1Au2dWhqLUyQ6+1aNwp96mSPRUYi6VlP+PAr2p3tdmJa1HlM9bDaDWQ7zWFhReXXINRwvuZRdKyS3fMrj0Sp91gyOxnasRamdDWZPtRNCWOR9IznUniVZeWa+bXqWtTJ969AWYJ8fxxWp21eqKjbKWXocuViOMS2cC1qXGCKnsSAhAE9tZ7h8aki6bGeYKHy3OyzKlVu7EXRcF2YI7hS5ksHZPyr5vTnOBJJ93Ri51b8/Rf0yjTuWlRZ/StvIS1qzLSAUscCKYN05W2hgalCdVtAyZ7iczhVJobuMo1FwgxTVLAqyPmAXT2kCo9E0hecw7c+dSWyx77/q1+LWqeYT32uAlm3c8ykUU+/UI+A4b7rbVaesZ+HhmVmXrEWdphaf4tr0qUNbH39rwml5+VQ7Db0oVhxtuufnxQrulbQ2LAwEY0EVrQQ5H1VhhrqQtVtS3quzUrzV/O6v18L20/V6wlroUoc5KwVTJFC6Rk0+XZihSkSun/lTLS4TPPyTRuQ+RVZ6/fVCKWZkuU/TrvKYvz1QWPk7TG98EicMV5Ax7daUge0h+tei9VP46TKYh0tLFhTsRY2tvVQ4VUGIPfBfejuBKE009KDrCTv2FLl3Z1IizvGE6wc+y9R8qBHmdt6lFkg1PBDaFYQZoZ3W4QWdwnFpbk/Ug9kv2k/OjBZKE2xlMUbKgdlzrcVX4sbXfD3+pPSB8V7Gj+3qULFlCoLKsWo9QPDQk2RQJu/2dQfUxfkv5k9tT7fSUYi1anmW2h7pbA9nn01LW78f35K4AOAzEuf1hmbF0n3P+7i70mvDDnty9B0XaDNWzqJ+dIBP9i8j1QJpopUt/W/LNpVEZ6+ZRbYGmlxZ7Fq9NEGvgA6r69qlpnw+ETSMxjOy3weGpXgHTItqgt0wZZ6PZrJBp+YR/Mo6p0hUnRkrLpcAeg5FjE8uESLO2NzT6TpF4rrL+i2flK08EggvRpVbclJF89b+u3QeJlra3GjgiZo/GQO+MbHylDbPJH0JBol/VGvo+SRbk9uLNAjYLoj7TYX/GPTqi/mLb5tgUhxt1NCc1wt/mPKe1vhlFWObOj2RFrc+nc72ZaPgPttUTX9Ium42zllNU80vcy4pwrTL7pbhBY4fv7Zpjb4SqY3U8SNRdJx0clh1YWmhzHnthnDAkUWkj3QwF8Y6xc0GhdFQum6TYks9eXfedYxM8wZ1iJR1DATfGZ37cY0PxJK632iajCHLpmntD66F23D+q5IqcMXHmmRmcbp5FbwmwGt3sWCaV3Aks1R6uV9/MvrbGiswZoLYKwP2lc98uUXVimc0bXtlvNr+3+nlurT9NmfGval83F2i//ZfdUj73U71kNx299LPfczDa1ql6WKC1ishY6ZlTXFd8CYpB5DnEi0KCpQ2FhPIdMciioZ/mDhGKoeM3yUmgdzZLCNYhmOWf7fsZppVFUwVeWcqfK/NKYnb2xP3ufq7uQx1UxV5dvlTs2aL0NRwlNd4b9Do9fMLPySPZ7ihxSJdSuLzPngQ68kFk3rqD58JMUWXnRib2Csl/gX93hKv8QKF5z4kfCsL9+20JHwv5qCRXQ7sS/Ra7eFrT4cabHnMY9PG1+/oPmRzqurUdwSC7f8qHQtZlSiFr2et6aLPO3Bl1qtjQUKPEEql+0XsM3QKf5k/OxKH3yev/hNRWeLfa454E+Dv5rXnNhXjO0LaHTSWB80nwLZfldkzZixvcBPrMasutwuK/Ct1PKwqY6p/qE+len9Z+FfVmTNkHG9kH+4Bov63XNkAj42e582Ni7v7gS/0M+w2Gbu6lifFD8TWOOLBUtW9wmbp830wnupg69N738ysPCv1fzBLKo5drQx8DdwGRc+1Q9EBSdJ0dcJ650JPnfmrhRa4AeWWGrSOvtC8L2s6XPl/fL3kvKa+Ptz/M/A5TKMR9IXU3P0sYIP3vIW6rIX2ZjMoceX6IeA6jCqCeljqj9zT2PwxcU12TTuiiRP0xwnB/0R5PRmppDcRZTsmwk+edQCg5l5U6UuZtYK8M2PsUCJI4lbi6Lf2fVd0T/tEaujuz1B3urvxx57gY++XoaHYmkb6wU0erYNfSj6qSn7OO5cIGtLbD1yveCrc2/7LFvVzpC0I7DRpcKrFPxVcU156nFg9UjKLpjhkkI3M/DZT+qbTJaxuq1ltjrQ8luQbe7OY2EsYZ8hr76O+oYy+O6zsdSnC5avWbYayo+WN/0XMGs1U6P90rXEohKM9UEDH96iOv4BR5K1FlVd1MMDfLn1aN6d6Zer6Nm9/on+bMBGD6giIqmKKWoqtMzAp9NL5hbuiGUqpgrZ6syAXwN6dGafIonSl1w40ALfvpUPLlFRxJJLA/8GJy9ReQ1PeAr4+Ck3yzSSpr3O+fQFX0+fY/5UWeo/g9RamP5uylOdKkk/JE+3A59vfZQtw9JhKer2BIo/f1O/ZzyDRdXjGTIU9XgReXe/wO/Bi2doaJYETWZkWuF9VQffP+UrzYikp7/HU1QggwL/B+duqW/je4Hs1K/h75wd9AE2WeyQrxvOIZKaqeN8gYWzk9GMZl8ADOY83Qud6fM21i8wpifMmjVv81I6eVvPF7Cx8OBsLosA+gYHMs8wzqO1tnrOrB/M7KOq/3vaOJXhNAllKN2mvtjRScqcf/gB9BU2Jx5+bn8zpDNmf5BnXWTqvgQZ3ZibzpQB6FsMArhl/r9lS83++dB+JeJdp/FjaI768Uct94zaUM68vWls449FM7UWpjuu8zRf1fKNH4vmLrjEeH7BMp5Fc+nPNw2/05U/z0DBzSTMQGEhgv8TmInBywQIECrRx3KU9pzAXwYsMEABhu9R1lPobtau6NrdIGG7h2Heh0cgH8NfKEh2I4ap//qr7fjyMShA8BeeONjx9yfVBYbND4FHuPxtlAWozCcyBc96uOtqpny65s2LpF0zbK/NItkAn7EIN6atECtJCzTEVaPt3VE+kjXI/bDhM/ojTBA4TsAHHCTfJgO+J7Yzo1l0hSJDZ5K4ZtDe36bbZBAPyWBrcd3ky7PUqxSMRhSGzSgQpe1EyiCTBpmyEybESNCPg7TkvRoJk7iHBwryMDGIQ1nKIHZ7t5N0HIUcDFsNELzU+q1C+dZDQViaLkoaxG7v9tNJO3A3pu3409ntFX4fODFFJo6UzdywQjIleaIXS1nydCJ5OvlmUmfgRE6jsi4hTq3o7B4ZYSqRPQgKkwaWOQNP2nEspVgOIvjXGK4Sxyg2Yfg/NvoNKEyejp+BKTEkOUi04bTnP8rZNl1PVSN8YgSNKOB8q4wDf107g0NuKlG/hjjm3q1Q2zsCO1Ao3JnX9bpQIEPBGBbFOH1JOTqb2qeOAwkhEIEQYggqVCaBMCRQ2GnsNz9BEmBnyj5IIGkSoJYfrktCEaa9X/rtTaNseK/+LzdJB6WUCl2pes/Y4bN3tZmWCYXLDNFhtuNmO8INWD5pB9KOTDvPAFHb0L9RdJKYuy8+7CUN3GwgUgIuYX51/qM1SxLJcVxcEiT1tTAxiE02Jl/Mo50/f351PmkgU8pQUZK4m4eTUVmdDFCJE9J1wxW8NJLgGrTYIxekE6zHoB1B/NLC5RMCkpBE4RgSYfyy/RtFJP8SSKgSGxgOdu3VXwi04W7SOTXVO4GQpGMYxo9msstk3HcVBOLSDqQEbGAaDz3YWp7Oa3dAYPiuf4TeSQNShjQB7iwsLTHwRXLALFG19/lY8ozGJSGK6y/oxkGiaUjnV3tPnSCJKMYfmFtaZ+CARF0Kkqr3EEEZCr8V12QLgdI2IMjBEKneTQgIijHtFjckIzCQhaWoBgr6l9mPAAHOBgUtoSq1hhKSBDg8UB5krEzRpaEIKusGRvi68PqtQjlG7W/KSGYnO9BHKNVsh7eMNlYHpTxdAst3olqq2YB9RxvuAhTXpBviFZFYteTs6SQWb46llFHrBwYKUpIEqUpGgMAg938LkAg3vgFVcpIAHPRg6c9pNKGLJhpSdFClL0ZBd+d9D3Qfou3CgFClZxyAYF7i/UeLspg/oIVgdsoOSsjFJuwjXb3Lscys3pkO7COUnjkbIPk124d2KYS4iIVofknVNhokG3990Fz3TVGQ+K6qpbdJyUVgXSnnQ4LJRmnqjiCYWXgvdbc1jTw2IThdK02l7AgRcR1rofJBWfcT+K/hQK1MQDu6W6Dr8CD3pTpoEDCVGCxvlqGJB9tSdEwJarkjDIOLvyed34R1o5Iy+nY5+GtmQ2Q+mF/Cdv3zk4KCn8l2VC092Q6o6E4/3clt+H1VN0SiWWJVp9bZwCiidrCEX5CxkxiCw/COoCBt9B+h664g4bqFhOMN5TBtBwSqk77Z8kHDhBRBhk5U2oEI0YxogS67OX8vVBxyQwcq5wY4OBCUofPqaiSsNQkQJWWAAZu6Dqz4FV6/VcCyA7eDg49gnSeQxq7B3jr7sMFF+5N30CaSa7oeaLqrsw9tdJhApGy+o+wZgGyZXfsng96Wev1W4clmHMiJCk2DuE3p3Q3cFHSJrSYxPKScNhAcR2I1n0+bdiDlfG4ybBzNGuSu0SyWCPAdUXfA4NJ2rRulDIY8+aeVsEk6wmn75nAbzcJOdeAfwWnu7JAsL+9gb7hYjovhtoMFWMgMcSNw1Tb7k44h459ru+o41QDcaCCBQ2/ZPsxuJM0AR6qWouM4TEIbhi5KDLYlif60HSlnOBAg1h18LoKHmpskmhI8AlxlDFxQIHBkuQFOezKN3zL3aoSJESXuwSVAXiJNj5/ZTjrD5eUd6i1RLEflsDMsr7uq88+HNmrEESltV523sZjE8+bVm3GGC4H1KTo4U7XHiRNJ5F/u+q5Bs241if7VFQccCDGPne5Rc5OwZXNuInN3flvOcPByb/ghEZYkSIEIhDRdclT8zAZZDtR1GQdsu+6mzNubxsGYhqRd5YFsE0bui3ojHz+avNKUAzio2s483uNzSZfr1jS9d3XFcQSF0wSsd5FK2hEJuzbnTTirEwnGlMhZBhiDxK2bXanSFO+7CpbxSUPcrnLBYryEiUaYtAEPFe4MBhln54qutM1p+sDKiuckFDQa8+biJpUkEAoGOnfzE4mEL/jtI4FIKJWiC40ZsytMdj0UsUz4Gwuq5QIEjpsJXoOHCi/huMavXckFB5q0j9wFxTXjAAw//R5XqQYOBw3f/DwoSaxBITcUK00HTNz91BXlbL7Q4c6vlm9r77uKEZamHcBFqTPa78sv26ZJONlQXEcIHNs0uEs1EBjotPl5D4L56yqxQwSGtulaVCvJh0Ai8RdXeZcGxLaChGMNPuokMJFL5vdKZdo0ApxQcQ3DG9wht6kRFPbupdck5RYE/tUEUw0Mj1WQ5dYPjC9kCqzqjhahncdDQYOPOiMEsovrrlKWrrYNKPgXKq7hEIb56GcaguvU0DdM7EeAt2ztPVUe5L9SzmuTZpdxesNZiGiVUypGbkP5NT65qktgijHtAg4FDT7qElCY8aDK0FlswsFkQ3ENh55b8n4aNQVQK5OwFd33QE8hxDks+TVnSQNQSOCwCweNOGjiT0ALAvyDc6QwRF2b/pVi6bc3DWwk/OL5roEpieFZDPkjfMI7YqSlJv5oeryCLttmEo6OKL4ZOmCYZ9zDGLiXR801YdMFe0i6P1qjtIaVleOGmZAQIi6xww2zWpJps7ijcOZfJeHJFDFQcxQa4fcK8U9JI+6jL6i6B1Z6YT84RQcuqnYH39j+cUJiq0kMDim+s1Hi52GAIGpuEjYufd8DvQNlvZk0sNDZbARzlp5df6AZcG8GCw3Xq6s4Q4HE/Oh2FSHbhzYq4oiQtatuAmN90BKsx80Ed4iLqqXoOIJf94/Lu0nS+1ZXfDdY9S2AMGrundycV9xNNOgYUo6TBhA4faABlLdzw92Eg+/PiUIA4UFsJTAPtBKNOGJI21V3wUJEO0oSnCEuqrYznzj1R+hyuLEkvXd1xXcVQmTOawqkUg5kJlo7ffPzhtTXOzORFpmxE8pxmLTDp33qUGbjGSwjfJJ1QOikgYLe3fW+szsUYkjaVbfBHiVoR3/wEBcV7gwKU07T0R/6DSsrruEqJsww7eYBiKQOEIc9xLuvJ3Tu7mcS4w1nQygYNYNFzXJBYoavGfbMdxIiIMPiquedwsH8jXbVffB7DNZjJMFL0oGLCpME/jW36qAzj00p+kCKjhTXcAOTyDyEAMRSl4ZB/1l6wFKvVd0IX2UcpHIcrovLj8cMZZ9CwuhJTtQQAmXkf3Yljyus3yogmZBsiBdURYCv3ZV2kiR4SQK4qBADwiCyRq+FXRI6WJdMH70Liu9sQuSibmYBiKYaKBw4B/GMjEUmFIXOGq/mh4IL8d78cdg75KSBAIdMbG962pSDMaWElFAVA04rEZ655gYXpU4Cgdxl1werBIN1LQmna4pvmgEo8ZucMGmCeKqBg75/K9qDwsH3IeUcQzIRRHasG8UNLZJ48xOdqNkYZgx62UJkS/joVRfygpUS086joaDBR53Equ+4l00jyFF8w8WY+N+478ZN8AI1goPufyuYYVuRoWPKeYhB91L7JwNwpWH3w8HAiJMUAX+6S/p72Nf+AB+9KhB0rElHg4toKGzwUWdkhJmHvgIHisOpkE84dN3L3E8jKL9L1Mr3Crv6C7X026FBYFONQwMPDgfuGPi0n9xJaNIRDsNX9KytGLZ4ImRVoWAKop1/Ww0+4R3BYeovBdjI+lmuM9iEw4mG4jv03IxnGINnqEdLiOZ9EQkFp5IEoZw3EK2+yGSDS7vAOgPwGw5U2gHIqPyrXnXn39NHny8YTEnMehaH/CQBXFRoQiIRJB82GMGmY1ys+GYYgGCe8UxjEKIxm4+amyIa/qQ4jxWHQ4rjUCctENzaMkD+J3cSmoSMnMeR8mXPDrjtshCHaxSxj3pBlWs72QAXQcea9ETWUz94iIuqPU6USPwfGPavrPhm3QAnfuwyCNHA4TgO634AH/VlL3BzwpDgqUmQHA7u0x6zawB1XWaEaJW1HRZ6wOUnknqO7k72bOC08AiwuCHCZlAZc6XtKtc2lsJ9RyVyEezgxB88xEXVMBSTQHyAiu8GhMjp9M28Kcb5YliDB8tJoijnAD7h3DvZ6ZufIP8IhVPKeWhK4T0C93ashYonDmJaLoEFDom9GMukLrqdk6MgssBxuqPUOG37HPc9qDUeTLvKtU0OwUycwLZcXCI3wUKD9djlDXFRYaj4rkKIrASwaIIgKFF/7xMftE3CsrW5KLXyvUoMfMX4kJhAHCx3wETUHrkIFqI+zIxZZzvEO+bs7t44GUzNOvtpOR3dzXobfwxNcN1TX8NsiNtVru35uHFp1Pp/Bi4y3AWnZcBjRz3EhXO4AQZZo1ktAxAFJxpeQnAd2KhOE8BH7dLNdg59RDDDZYjGCZ0tJonu6wBXNwPH4Dhw3nTdzPeUbIjbVa7tJ4/h5ZmARZbL4Gsn0k6QkDfimg3OOfEOiwDEIR9hAkFC2mLQMMJHXRoG/WgePu4bxLBgl5TjMMMATL+w0F1iu2S57x8YxmnxpCFZUOXafqs4vD4T3Ae/xwhO45DfcEnaAST4eeEBCAXBNt/dBsnWBh/VwEH/o3KdAY4gwK85m4RhKflss0AutmstVGyLNw3p/CrXBeiAIPC28QwWiAAd651pzHoOhYKGK9Y89a5rMW2CYNBEbdZYtiUJ4KMa+3qWLiOz6+O00qQdKccmhBSBjPBkSy6O+VtuqsrXLAGVOBKhqa+FCWLASghc3FLDBSk6XPcuN0E4aB4ngS0pAvioxd+QzN3XXQSce3M1Z4swyH2s4JEd60bxiJm39hdX+bYPNiHCpoEoMOVZoVDYKFc4hMPC9ZrgAdAk7Ta/YRIftTKBrf/WTcvsmINA9crK8cibS4Kdgxw2fMb3CO/Vdfl40z8x7RCadsi9aHgokfVA4tC5lxVxV1fHZsMtkaYXuOiVvKfnWuXbPlhkhE0DcWAKmnaeDAUj5QkP7nau1wRPgGBbWO0wrM7agY+aS8KmfXGP8dcHLUELSdlx5Xz6RZD1eyVwvIOIFkhgtBH0WA4+c+NTN/4ZnuEZWm6CDEPsYotNjACHTHj30sHCts+TS8/Gd9rzmQLz4OoOuuc019jUfD5tVJJEhB4FiARTzgsH/M9TjloNwcyuPk2b4BEQIMIew4pFfNTcZKK+y9XfNRjOI7AjaYCz80VgirQtbTo6KwPcPawsHWvUVjh0cY3IFGN90HrZG7OBFji1zg5EXimuv6C75peu/1zbVa7tt5qghUwDsaBjTfoRENi7Ab/GYhRGb938XgncXg4IkhmOZqJ0ER81N0Vv6Nxvfi7ZGwwfZh2EcowJMAnMgPELwelZoESymS6thcr9IR4K8O6u0NuLqTrNnQ3ehWvuPILR59aucm3Px8GNGwXRYKGZdVkqLDbtwKv2thJBWOp6qoKXQNCZ7kTopYv4qLlJojkxd1937DICv1Z31jDCaZTYAI7x4O67CpWIIYZfJnoAvbqaUcaYhqRd5domJwCFV3YMxIMJa6Fi8CXNQLzCJF3yh8BbYJAEDqa9Is0APupfEdjxKVxB5q7/6uY6C3cBEXccofQFjyxUQu6CSbcD8U5hDdMQt6tc2wv22ngGC7zAAMFmYjrkpRpJozORttRjIHg4JL02RQAfdRdQ0JeY1dsNE43Nk4trjtRiNKx5kk4ughBICXlcOHjTEs9Yg/Wekoa4XeXaruLE1b0BLzBY75oJ3qUp/nfBTAx2ZnXyGAj2aRNJAviokQfXOQ8fF0Dxvhvj4M9sZypl4CQR5qDzV1dDsHVEDBzine02INzCNYiUzK9ybaMSEXFzJngBCkJxKAxVORsItFyLx0BA7m6DYdsIH9U4+p/lAkjY9pFQ0HC2GBNtqZvzSkv45nFhDSFWMkDs2Qg3BxVxV1rl20aHJCpD/ix4AQlCUShWZcYQGaDptnkMBOm7Wa+xEh81QoZdn8IFn/FDru5MZd0QCl90/L1QS9o0BpNChCeM3eaCaDt0MJuq8m2jgjDk/RsFD5izCAViVfZ3/ksy4UyPgSDdZn21K/FRKTrCg/bkPHzKB4Z9BRqOLHbWIJJryFUlmbv54XBUiNkk8WymaEUWNm6L3VSVb9soCCzDp4EHpNbCRDAEBaKwfOrSSFj1ED0GAizmorD+4PiolUnY/G/L10KJREIQoSOVdQNjkEJ/dbVSzgqFXSMCNDDkk0PnpmBnh8qY5zqfT/sffaKlXqUAHvDwELhzLg3lxhRBYlh2XzwGgtGE/UNdm4+aaxINT6JsYJzhgqb1NZyFaTrRtbmjVQLgIO2lCrABgY83BLF+6frPdUGVaxuXJEqELvUqBfCAmQjeNkN+Q7kzbSfNRNEL8BgIEhmOhCjPOYCPmpsk6p89JNMcyxTcqTOqOVKT8KD2MEpJtXnhQFRz3YhpjBtgflOk7Qfz/FELldGPul3l2saHCBfB08ADCqsUDHjrq40ot2btJDEKkx+09RgIcLqTSZTmHMBHzf0PXdO8XgCCvPLAL0WwkYPKMBCZdn5hCR3rk4LBo5/oug1+9g2ASKY8m9tQnv5g2lWu7QVY3Eh9LUzwgB36h5c3olwbnhwOi8n9sPEY6Fg3Cn5WJ2KUr81HpRzo8vf6BlV5wDQ2YwAcGilipPN6My8BNkOCN6uE7koaYMKxBGtQUyQkhFhGYBj8NdpVru32XTSewQIPGDj9ZII7orjWalxUmDbI/5maMdtjYPBPYqJ6TT7qAFE4/iXKNWqBYYA/HFTaAVi8nfD3J7UEGM2iSxKh4dWEbloF0T6dAghUxSWOxCgWnHaVa9s8AXdxJniBAYMvr6G4Nk7UgJKVuKjw0xF6VVfuMzwGBrtY7QjRMMJH1VS54N+gUMJBESjr3HAvBTY07tUTyddveZXZXNce4jFCEtMJ1y1Noao7saDKtV01jBt7A17wXjDkNxTXmkkHI/0+3qs/Bj2TuCh1ACSsPwSPgSApbTFsHeHD0dmKBMY0OIQoqCwJBlNfT9XRH2Fi3piP9rrjfDg+78S+rzGGMc+j5mzRhzSewQKxOLffKiruzAQvQEHoDYaKaxgag1c7PJCkBb7RIT7qnRtBI+pm5jEQ7BMh2pMQxAD0E4Zo2sRxOVMIkC+nJAAYXDiH5wAKor+scjxCwmlC2w4e1D6DRHhvGnjBe3kHiu9xKRS+2xuAVmceizEYXomPeqkoaBjNaukxEJA+bK5hRIytWR80TFxKGYhDiIa9V+yA8/fFYfeWnU1Cwc9pHtT+xoYInwYesPCNoIEo5BOGxvDjTACAVlfuSzAYWYmPWhfBmqXzNtNjIHhdCDZPEgJeGBaVaQZwwCG2Py540p3THuQcpHI8gkIeGmwF72l/4/2fBh5QWKWwiygU1hTXMDTC9zNhBYtryht5LEZgOE0HPsok0DEts+9zPAaCLrodlnUHJ0SAwc40Q1xzpBooGMf7Pqd8ibt5mOm9I87uAgL5U7ynfQY4CD8K8ICHh+Gta24ormHNCN7MhF5bDxWDvqvho9J0koTFnffDxmMg6AwcCKjKOUAEWPrt0DBkUtYBzpQJSbTXtxPLtdw3GEYQbjlI5bjx6A24Fjyn/VYT8t408IBl12AZw1uE4I0oro0tz7gBKLFlnMdiM+xcxEdl7CQxChPS1mMgwOlOJ51zgAhghovNxFjSAGcjKJwiH7G0XCRvDiliaMRZiIKijjXpntN+8u9uGnjAaaHETTOdt1hxbaQY8LBT11MVSi6uKf9Qk0TrBnzCMzeJgofoMdCxbpTE0JnYyxaJUGSykXwxyZk6XxRk0F9/VCvPK0rYInJupHIcqkRiKXhN+wsYwY3U18IED5izGTPBHVFcG2kGoM3nxjM0wWHLzGOxabQu4qLCjEGisKRrw8pjYBA/3QnTK2cLAMYdnijoPF9nhICk5BPiSHnItFlp+oQJwZkyQMEOeU27bRpXZ4IXnP7ljSiujaGfah5ogeOWES42RfsiLio8lpPeXY+BwUSaI5G1aQIEWEjETQJlNUfq/eGwNHs9zMpyZ49aOR85aPCYNj6EhLz+TcELukDwV2soro0tG9Ni6DM0gWNrtwjsPjguSiUJEhvV5tXNPQYGsdvcTYy4DxL8aEFA1SRnCkMZDprQ8DY+fWey2MM7Ifeh8AceiJTzGg5/75HHtL/DC/qM4AX7iiG/prjWCB0OeOnPQwO4TnyoJuhbk486gCeHrs3MYyB4AUh0NNzXxPAYpvEaztQ7v8ET5f5fMCAUxzQDEnksBG9ZgA4QgSHZPhTBC97LDYaKa6iu8akD59ZDRWA4RQAf9cm/0kfxGAj2G8uOEdeB8QzW/fpXHFw+hIbZN+AtZgmoIAwRfqPgAdu1Pin7+g4U31ChxIeZwL11eGsN8VHvHAV1o99XS4+BYJ+waB9xHSD7agQ5NbHCNJ0kXb2bntJGJYFA5DTwgIlP+5pDPmGIaJ9mQhlbh4fSRg+dj1oXgyqUY6bHQPACMGia5LqWAXPWFSvLBj+w8+pq4CXtf4SKyKMALyDBnnfVUFzD0Ei8nwllbT1UDIbW5KOOGoffc/ubssdAEGFR9xbdBon85IgSE6FItUyG5H8FXrLg2g0ZfhTgBSlCFwXlcxXXWgOFr7cPytx6qN8n6wA+NRIK8Y4TXgPBn/zYi9wWGERUTSTqBgb4vPTbmwZ4SBuVgEToUYAnoOFRAoUhl8ZiNBG3RSh76/BM2bGIi1qbgPRT8BoI7uZJL3IZPG4c9gjUSBt8ZKwMPKQ9/93dKHjChLUwUdq7jB0pno1nePvwe6mDC1s4WJKUbRtwWQnTmpF3d8+BQePAhRAVi7hsQILoG+AGhNi1pjirYNqnhwbe0f4Cr8Z4BgtEQraJEgrvv1X/Z7N5NIaM4OVmwJUtnPuSpNG2iEeDwOnf5z0wiNOdiFH9/nisgoPwjvVJ5feOTVHUEKVGCBx33R2U4e05Q/JKmdpHgu3X9wbcjGS2o+QJQGL4D/X20BDM+bIcGotx4mW2D21waesAn9baPIxA2MW6g88t/7KOcNiIroeZm6Bj3SiJNMcXcugcmE9AaWcCfmDs7jcSCrL2qe8y8J9JoNQZCc8U102+N2RbicthDm18ArBxY0NwtZGW5Ch9OiBQbm5Y9Xa3/hmHmpkANIjbDLi2dYAE9Bwch5+FaLv4GNPia6GDtB1QWLxHroJgNGGPQeuIo9oI3uvuctwAIj5MEqNBQmnC9dRAGUZ9g4HTihc4sc8TyPQVzd52d+dT7eCoXT39bwruTgzunIGTzBmAwK/P3ttG100epyWt7Sg8rvuBX6s6uHjiARI4mKKDoyEUduFpXnwM+nocTjRKC2s/b9BdELwAEnaOOFlswEE09GmWAXC60ztoCLH2fR21YQhlvEQDXn6RDpKnAyZ60fWwh97f7O4k28FJGx0iw3bfeAYLXL6XuCCdWGcH1BYxsTfAadfPKHQQhhe1w+DqViJvSwkYWcnJdCNRNPqECZ/1DmGotAaCE5ObLoPg/h7ZiIOsG2D45aFBORd+2x8gQgND6SfrWDdKOcDcuxWC4nZp9OyA2x5uQx+KJQCyn0JSPL+09lvY/2ng9n3HsLVd2pPHBee/Qonb8rHaffqh0sIQDT/NBJe3HisCY0OlHVft/Q7wgQRtzWE1SglHuoLEheD64AWskXJAWMqaCI7geSwPygKkD5ubWVOA832Q+wdlNf76BY2wXky1k2YDSpifbgcse29zs5StW7sSCopSDSgp2QDcwBHtwVKvUgD3ExBApKRdyvxLMtred15/VCtlEImbX6JRSqP2xWaC61sksfSpDoUlhGkHYFBm2s2BcwuBSBwQa4a9jAyh8BfaMAQBA5Nuh2XN4pFewowDMORc00Iob3C/Mwy85rrjwgGGaOcHywMPyqC9e/Kp06GXtnU2wHLIFKsnQsl40x8Vo5nToYQXiYXIAFGbBAG3Zv2ChkGwKbF721s72wFYViQabs1SYKsEvhsa6u3g3hwaJM4EAVuH97EbjV5qWTZAoO8HDfKCzSJwB4O+DB1WmT199vSsG9jugCEfDV+jn2nYFAGC22bALyQhYe4we/rs2bNXuRpCNCWmHdojKPe1oKDY9gmz3b6KEdQxf9LZyLr9V+7RX6GLjKfJE+NvaJ3UCWjf23V+FZYElvkErp0Dpbf2AhvtuW6QORukz4B11lnnba3zq7AcwLudmAZCGmuwDso8IbCfHdZ5W+uss846H+/JY5GLp3u1oPQrToQvru8YZs+ePXv62s/JDHuN4YX1QMjW7qLgAwnRc5o+e/bs6Tk3GMKJQkxbsxD4bxazBqEglICsJ7eJi0WwBYclZviWBHvWA0GbY98ODZw4kaan47B2sxd7sZvAMPvoD7JjTTqUPSCMgLT8drEuJ7D5QshwVVA2uFFCX0/Kj1hWn8Oh4MYIlo2m/GQEp5e5V6OJ4HRh17x5ISKGiHIkW5Bs/pgfE8tmLOuI/JpIWzoFBL1RLPdlOpKIrH0KH/Njfkwimwjxk9BvJ9L0WuD0Rl8bIT5gWHOxF3uxm8WgGsP3iY2APQJBm5m3QwNvXk7CX/WLvdiL3QSGea8iDSwmQjlbo77BOCu8V9ckqyexeZiM+R92vYUgbnFN+jb7k84yA5ckT0/i8DiBJOF5VjfasT4p4MJW5r4bn4DB6nkCrn7Nt20OuHCicU8VnNUJD5afcme4DLm5bzgFOLaOoovVzuDpeW9O4ARec3KGyxZbIOzCr3Y3d+TenMAJGITnHm8WOE4czWQn5u58CSdwAphtXiLNcftaIO4end/ln8AJnACG877oZgMo98DAwEAAYg8sH9w64PYA3NmxbpSJE9ZCbQ0A58GBFQShB1awCXwHBwYGBgZB6ObA8gO4pZ0HAA==;" parent="sndy7mt2s_JfuWecsUhK-98" vertex="1">
          <mxGeometry x="463.09" y="975.5" width="73.83" height="70" as="geometry" />
        </mxCell>
        <mxCell id="sndy7mt2s_JfuWecsUhK-26" value="" style="endArrow=classic;startArrow=classic;html=1;rounded=0;exitX=0.75;exitY=0;exitDx=0;exitDy=0;" parent="sndy7mt2s_JfuWecsUhK-98" source="sndy7mt2s_JfuWecsUhK-24" edge="1">
          <mxGeometry width="50" height="50" relative="1" as="geometry">
            <mxPoint x="580" y="900" as="sourcePoint" />
            <mxPoint x="600" y="890" as="targetPoint" />
          </mxGeometry>
        </mxCell>
        <mxCell id="sndy7mt2s_JfuWecsUhK-27" value="" style="endArrow=classic;startArrow=classic;html=1;rounded=0;exitX=0.25;exitY=0;exitDx=0;exitDy=0;" parent="sndy7mt2s_JfuWecsUhK-98" source="sndy7mt2s_JfuWecsUhK-24" edge="1">
          <mxGeometry width="50" height="50" relative="1" as="geometry">
            <mxPoint x="580" y="990" as="sourcePoint" />
            <mxPoint x="400" y="890" as="targetPoint" />
          </mxGeometry>
        </mxCell>
        <mxCell id="sndy7mt2s_JfuWecsUhK-28" value="load Balancing" style="text;html=1;align=center;verticalAlign=middle;whiteSpace=wrap;rounded=0;" parent="sndy7mt2s_JfuWecsUhK-98" vertex="1">
          <mxGeometry x="448.8" y="1051" width="102.4" height="30" as="geometry" />
        </mxCell>
        <mxCell id="XDWtXi9IIhZVzAvtdl1A-41" value="" style="endArrow=classic;startArrow=classic;html=1;rounded=0;entryX=0;entryY=0.5;entryDx=0;entryDy=0;exitX=0.75;exitY=0;exitDx=0;exitDy=0;" parent="sndy7mt2s_JfuWecsUhK-98" target="XDWtXi9IIhZVzAvtdl1A-46" edge="1">
          <mxGeometry width="50" height="50" relative="1" as="geometry">
            <mxPoint x="437.8499999999999" y="129.99999999999977" as="sourcePoint" />
            <mxPoint x="550.5" y="179.5" as="targetPoint" />
          </mxGeometry>
        </mxCell>
        <mxCell id="XDWtXi9IIhZVzAvtdl1A-54" value="" style="group" parent="sndy7mt2s_JfuWecsUhK-98" vertex="1" connectable="0">
          <mxGeometry x="470" y="50" width="60" height="50.5" as="geometry" />
        </mxCell>
        <mxCell id="XDWtXi9IIhZVzAvtdl1A-37" value="" style="image;sketch=0;aspect=fixed;html=1;points=[];align=center;fontSize=12;image=img/lib/mscae/Docker.svg;" parent="XDWtXi9IIhZVzAvtdl1A-54" vertex="1">
          <mxGeometry x="9" width="37.2" height="30.5" as="geometry" />
        </mxCell>
        <mxCell id="XDWtXi9IIhZVzAvtdl1A-46" value="compose" style="text;html=1;align=center;verticalAlign=middle;whiteSpace=wrap;rounded=0;" parent="XDWtXi9IIhZVzAvtdl1A-54" vertex="1">
          <mxGeometry y="20.5" width="60" height="30" as="geometry" />
        </mxCell>
        <mxCell id="XDWtXi9IIhZVzAvtdl1A-56" value="" style="endArrow=classic;startArrow=classic;html=1;rounded=0;entryX=0.25;entryY=0;entryDx=0;entryDy=0;exitX=1;exitY=0.5;exitDx=0;exitDy=0;" parent="sndy7mt2s_JfuWecsUhK-98" source="XDWtXi9IIhZVzAvtdl1A-46" edge="1">
          <mxGeometry width="50" height="50" relative="1" as="geometry">
            <mxPoint x="400" y="160" as="sourcePoint" />
            <mxPoint x="559.75" y="130" as="targetPoint" />
          </mxGeometry>
        </mxCell>
        <mxCell id="XDWtXi9IIhZVzAvtdl1A-63" value="" style="image;sketch=0;aspect=fixed;html=1;points=[];align=center;fontSize=12;image=img/lib/mscae/Docker.svg;" parent="sndy7mt2s_JfuWecsUhK-98" vertex="1">
          <mxGeometry x="420.5" y="331" width="40" height="32.8" as="geometry" />
        </mxCell>
        <mxCell id="XDWtXi9IIhZVzAvtdl1A-64" value="" style="whiteSpace=wrap;html=1;aspect=fixed;fillColor=none;" parent="sndy7mt2s_JfuWecsUhK-98" vertex="1">
          <mxGeometry x="420.5" y="331" width="159" height="159" as="geometry" />
        </mxCell>
        <mxCell id="sndy7mt2s_JfuWecsUhK-1" value="" style="shape=image;verticalLabelPosition=bottom;labelBackgroundColor=default;verticalAlign=top;aspect=fixed;imageAspect=0;image=data:image/webp,UklGRnI+AABXRUJQVlA4TGU+AAAvpgFkECrN8v+rtiQ3/WZ+in4FzfwMdyqqkFKVde/Za619cK+1zzn3JnRJUSGNcuZRDzXyywiq7tnr7LXP2tf8F+TkmsQws8XMDJWCNAnLcc3OwTWKudq8TGkumdlpZmbICG0zXlOamZmZQWi2l5ihzKmhmZkrVK2QKmIb0szMOGLGNDOVGNPMx9iR5mMSM24zMzMzs51mElabmUnMrGMuM9OMocNDZbeZ7SOWmX3NTGWmGpmZ4TSIRuY0M2SbSQy1zRliprGZSczQcQ19zIwzFEujcohKzCyVxczSMYulNKXZtyRJliRJtqWvU5URFqbCRKwW6ZMxl5hbvtYH1Ff09/SnDy5Jkh1JkhSH6a/Fu4OhU3dG+FO199zDTdWeexTYzYW5+Ax59KaA7f95NXs7HXU62eYUljnlmm3btlFrSzPyzMy5vdm27dqx/vh9JwBumf9v8ZP0+qpGza3UimAqhakspjM5U51N0UNWXa6wrLpA0QOmc47E8c4xnZyvQ6wzD2XZLDvWQu0D6FifFGatpmgozxQxLLM1zhTB/f7msaTS3t/L4/g+bUqax+K85jEzPxMtmej7CvXRnp4CpsHWoMsaVVjNN4rymuzxFNH4euFVCj4vb7ozzYm0FOct6PaUUo7z/m4716TT6nekJTm28T+27ebrcsfbmJJIky5YQNGfm/8Nho8zng8WM4siLc9UkTY67ONYvceqBDIV0bh3TFLPt42ff1WiOC/vRFqmI6Zf+TbWOk6RKJIrpqazo+U+Lf1+WDBdWOxEWq7jw9+kP7PH5/Iai2SLaR4lj/gyqsytqLC7J2jZ7u4EpmptLgsfNmDFJ4oWxiyQLtuCh0RVRPH3X9D9V27vVkxXz9DyXWwB032ZLT/fVfw96TR5Zey5cC3jPT0RJT9u26+van6LjmbndXvRAinr7+7k5sndG1k3OX81YX1Ss/ji2F6ElvOenkBRdbabmb/K7bLq9hyMJU13d5I0urFJP/XZbPWsx0lqWe+38XTmsoOfGvt5zSy0+FreV2M4fjv6UPRP27Vucsz8nLeQxOmelsy6j8X+yda+DMm0zPczVbHcN5R9E0W/tdwXNEnNK37J0isZkkqepkqQ+qHZ/ojM75UoKqvLXkTjpOKa8r4olzzFtFj+qMJZjg1+iM2uz3D1JC39kU1Wpnc38EEWGWJbksgH2BqzcIj/uS80aig6kfaBMUXtmdjB91AyON+SaV/Y3SKYeuN37HgBU239/qCf6X/2aIvPsdGDcb0I7RPnWdG3l+BrKMd8ZnUUnOAXIlsT9uS5jnWj+JjxsytRlXC+2jcWOyFv1VrX097HsJZPHk8VNPgHvbFeJEWPU18L07dk+13RQu/PRPvIvIa8xWN3BvmVIJdcmqfEw35Cz6PRD/OUlk8xnsFi+P8l2l+OWONDG11T3p/QU+s/oPaZRQss3ZXbaehLcgvKDLfW/YaezvTT7fr/m5wfodWxvCa0/7SVKDfp4kOKhC5TvdqHRlZc7kNo9YAp0o9oqghmnvIdxWcYMzQV+ZKI4W7rQyZ+g6rXP0T7E6ZJihICf0FPLbLxZOxPdMzwlM0R4C8s84utkfarRSfkyDzsS8dPFKzVu9/vW6K8FjJ11keMu95VKZn7+LR/7XbCi8jsY45/sNB2inmxj4l6PGWWDv8QfqHQzczGPx+f9rOzctGY1dPbL1jk0aIlibwgjmfNmlVwQuzJddF0T0+wyI+pr9D1B4VrM6PU7+6eSAtfr0eUrDwwiiMtKooyI28DVdkMlVNU6r1MFT5PSxH/JBIrKtSyXLzBH7Dm8YKFRcLF3S3Ze0+NZpPZlYpMdurrnfnTftpP274NV/Xg3IZytmnD8GcLE8NC6Rlf134/LPxAbvZZNqovdIIWvT+vJSzebzyDBZ4ebJKm7jOMRULpsT1Jpm5u17rJy992rZ/lLPLcuL5wLXyPJ7Jw1Og12eD1oxYYTCUOixXb1NS5yh+rrQuqNxZubC9odtfW4P1jfsKQVe11ofQSilKLvydd9lpW9XBMJ6lFj3uYQmadalUAyDc3/VaxdL4mKFore/bnMdPWk7YG4cb2BEr+zf1KPaiErW8SixVT1VZk6koeVV8KnUiLXmhB3ppieltQEaBbz6WYK5aebuFHcmfnuWDPtejRVKpSyNqVoDIGlro5pieIFR19JruDzLUOPxJuKq1G85zzoFIWdhkwq3qqUDpm8XeZY3jnY9GiRxElPxjrF7SKAbnW0oIFkVCRpQTWaLu8dayFylRdXbiY1mO5n2kIlXO5/U2Zoeh5QulZVlyX/TO1pS1nHaRYFAn31ez4SlBBgMUO73MtoepMYawOCSStcEqL6va8hbTo0d1aFSrpoIUvjvHEI5H0b2KqMxcvkDRG3ba1pC5cnVHroLIWrjI7p3lC6Z5ORMnPq0pZ5vOYaZGtj0+L/ggYztn4+qBVmCCL1lI0PUuo/rxzio23ydjAB8prQose2Up8MVBps+u7IsPRBU8iEkmP6QUU54/ZaShhKdPdMrtmCTeuL7gNCysOsG7WDDXMEioqtjALXfhs0pVaC5Oqx92duBa9P28NFk5ZQeUNNrCxKBZJP4K8NUBbrtLFLH8LTRacIFp0DZQ8MmF9UisQ4PdSt+qfL0koPbYX3IYJTLZkjdrflC0U/bW16PNsqowqc6jIdp9eFHNioYZ7PPn5aKFk0TyXMMWti1bPt4AmN210TfnKtCKL7zGEC6VnUVW87a9Sl6rrYVbKSWvRx/QF1PxS+FFaUKGLa6q860go3d0ibXVgI+tnOZnK5Lmk25JFos36PnaPZUGlAut48U2JNczUiHnJXKK27fqqxqisJVrwaB6jYpZb/8+Aij1geXyKhdKxheIkippbx/uSadHXoro9iz2hgtt9mlI00C+UtmucKj9poj+GZl7XxqJFeQtn1d2JlWwj6ybH9P6CRUZCDVNVbfzHVJElVl3u8SS06GtRXZfJMRMq+rJrsGidMVkozUyCxlckafy89Kke0aLHLBZT8+BAZQPKnF+w+rcqVMxQT/Y+beSImmG2JoUbZupv8T/uKlDhjfVBY+hCtye8JJGiQoug1UcpyoydaTSqRa8zJHlnUPGT92VkoZ+TRdL9VE0zc7UMWTiVKSScttSnhZWvmTu5Lk9NThVJF3uCjbNTX++q8kNRIEOTdeGY+pe8n0YggR1r0ql6tj9CRb+BRmfkxyJ/5TXSoscvMZAByD3DkanaGSLpGUzX0ms6yY4dbbTRRCxaP4u6yOz6IIUd60ax9GmKZLFIUXcnyaKIjt9/QZebDS3ze7FFatHzFJkldwdyANn1XZFZOZNE0v35eCyHA+TGbh07xrpo18D091VBFnNjLxpN9IukL9hCqeO+3lVl5lQsVXAmWvC42OIVqCCQxgFaP2SIECrq7olTanfH+qTKS9Ouzndb4mHRxnrBVYxeC1segLnpUNQSi6SXUNRGL5nLi3l2K6pquz2RFnwG0z35ky4gkzbHGoalQumiE13AhLVQZSWg6kxPT0wL/pJ6OuEXL7fAkIqWVX2MhIqO8fPLSreea5FDU0Ub0xM+b+6UFcglOTLZZCSSLlhgpb5LylKvUtjvu6MFj20stvShOZIB1PPgaQmlqcYpuUNOnhLFU7FoF2zVP1NfUxdks3hPFVsnryWUpqhnQxm5ea/fKlD96vFpwR8BUxMfOZAOSDHtqe5ZS6gfQtF5GXntjJJGgkW7QfGH4pp0kM9BerTExhM9TogFqlu6o8j/sOVjO9ek2zgn1oL3Uz1wJSCjrb9qo7L45T+CSJBo6qZoDif5YM2lb0ALHjGN8vjRHCmBVprLgqr7BWcZU7zJ29qvsGxfML4vODYB5zEtY6jAvp6m0lG87ypMl2vhLLI1y2YJktq8URrNsNAuqw5h+JGt39g49au6fx/Z+DYjj1o+bQekwz557k+LFkWseXRAVgCaZ7HcNxg/bb2P89MEPJspAcjmuK+n6v+PRNNMF91p6Aun6vEP0aKvRd39mn1h+TttKNkXixZb+H1x/QUd+sIvl2pCi25pIn+fNtAXbuMACw/Eos2zyVtvtS+sYy3Ux11okVrwWazutu+nEfSFU2sroyZj0S7brvYW102+L+ydUJQxpifSgr/8c/r90BdeqPcUndxhwfp7enKYtSLoCyvsMrjUnp5IC/4ZLjd1vatCH/gUVp/otiTDgi3J18M5joCgL8x+PyxosnOWFnzzdvTs6UMf+HLf/8+w9ZUxPQkt+DyK6p859IWze7M+yWHB4kNizZBWX9hns3FksYW04JunqqLwWtWhL5wdO/9mLXjMsMiKTzT7wiYyMi0WrZ+qvzcKfeHvrYBlWvA603x7vBL6wv+djSq16DHDH86iT4yiY0zjokUUTRwg9IWPaWq/67po3Z7AWiGtPjEbPfwNWvA6060PCPrCL4aS/f2ijfcFl9GxbpQ+sZO1Na4F/03M+oFfpQ594VaOZRQPxoJFSzIoMOgLS613pqWTf6QWfGxPoCh2q9AXbh9tZ5gTC5Z3wiOzeXoGfWGFV6kznHYmWvDJFAdP+FqYIPZbXfb5omlzWGQ57exqo21tkW6L2p6bp9eyz2BVGuax+TnXBVuLqa6nBEJnW2bM9GfUbabzik7uuL74PV6ityPdYzxF47yE7NS6wcoy9vPQsNCn7WMaBJ/MVMTZiJQ76ZJPnbLIsq8xxktasIioHkn4tvYLUHVgo2vKVxZWu1loKBYsZpj/5AJxXvmP/f/jfUmKLTKKtJS/pO5ObuY55kNlZWRQTy9CCz6P4dLCLisQtfh70rdioZKxXtJJdS3rO0XRS7J2pcpS/MdN3o5OjuuFRJvM9Odl12CJQh/NpuidrfkPONLSXmhBt+eQdbSwWVlu7jcYdh08phcS7TPQ6MmAINm+3A6saGGxlvdoXC9g+l5hlQJUWJY8Nb4XKdrG+gKGowbFyFHr/v8TGtYSvxrT7ZnP8oBKmyfXb6xfQLh3GAhBHwVaeHi6lvnoEVjRtZUqDm13Zah3fcEOhaH3Hc9giZBv2lBcUXAiLfXzqK7Ind0KKu6yz9Ck5OftE+waqP7G5qUvQOFA6zB7ehJa6mOGMIrOF9eUrzyQ83mw4JQOizWDqpbX3nTfVxrnhUVyN4OaRcyXDlRg+7pMKf6zebHqf9qq9rov3cOV6elhLfUFJ1AstjwOBZUI3nLeEsVC6Zefq2OWfT5YbkuthUmtH0u03Oc1Ovzi78mGijxmp+EhzRLrEdi6/7Dd9roLLUzLfUyRjEZLoELnyR3M4hQsEEpPpnHYqi6jqqAueQwjK0421getUo3aULZUkq3JSKhHUMBjedLOXdnajWpcy33EkDB7nzZQsfNHCxme7BdK93iCpRKL91Rx1a1gGskei1+1KlfH+qRS69lZR0Lpnl7i/E53VzE0EEkepabOHSq4fT+NfngsVrcFFGcXWdguypnuFIkkb+p3DSoZvCKmCLF03iItvMZF+26ZMi31MUVj2E0HKvr4+b0SizojsWKbLNvQPdT8/FvlbjUbbQ8qG1C1iiFSLG1rZKEL7jmoWOp6POEVsD83HajwA9TKmiVWRNFAYXcDt2zX/9/kKO6VuqiHKcnpbYOVDlh3tzzmiqU1q6Ldwv5116dqWOpePkNfM2+HBlT8Oew4/DOIVWd6/Lhd8sqZGpW5uNspzJmrg8oHdDS7mOrKt0Ao/cEY9dUlhbNbSd3YXrCP+L3UQQInvufJYq3P0L/sPFe5o7ubtcwVW2DrwVcYyABkr83MrguLPZFQeomtvzVckb3KzFKjEjeZmgmXD1I4WDjHzrguVEwVj5K7XdGiuE/eZuStrmzTpykHQK+uZjc/ThZKr8bQ/7/GDWChXmmLplrq+cbXL2ggixZeY+OpqUJFtiJZ8nTghsOkGsnaLIbb0/twBWlsWVVcT09SKL2Epeoyn7uDG/I4hGlM0obfBMW3WvIA9NQiGvXMEkqfCZ3nreW+wXBBfsvvZCQtpqqt+ExjkMiBnc5rPBKqv8gczG67uSC3vylTPB5JWUQVsuqLAzIB9r7m0Kh5qlB6fC/IkTH7WT74Oz9JyvT3ob++qoFUBlZ9wsaSulDDBUuUr7xdkMtzAVWElBUsyJPrm3IBxfuuwpJFkVB6nqVzln0Gq3wd6y/oVFW9JAmL3uSE9c4E2aRHa6nGIqG0XROU59rBsgHrsWGsF0iY/gIgnWdDVYoWO7Zw948t361hVuYS6XoEVpS0R/IB2Z/d7tOIpWM6db58YEULGZbUJSuykTA36QISupF1o1hWeCyWpmrU+pBJ+aZQj6sXLFnzqBl2D2QEMvcwPsm6WNpG0eWDzD2NqfoxphOkan1bc14ASOkg8zhUaIFYEa0E+UmX8jWp5fEe14okap6dvJL6emfKCdDrq5qlyoqeIJSOKMoe9Q1G2WDgdd/OteSpxxOobsx97rNAVq3jNQVPIhKqTpWAmlvLBy0r12Jad82IJKneYxHMOjthfVKlZdz1VGU6+TMIpaeyqDjb1C4ftLJUkK1bryGSo7F9ATXzrSMTkFer8u62RvMtECo6Mpu86AJo2Y8XqCOIZSguMiWU4/CAxKx3AdcglO72BKoqqDJ3AWzX+qTYvUwZvv105knQmJ5AqawUoQsyS3e52rp5iVDRO2Lorhugme1D8bIfRs+ZsJbsTH0G1mhLIDXG+gWNkrf6I5H0aTHU/FzdADCQS+pZ8TJmfY+2GkvNaszMLa7JBrmlb5ph49J5Qum7Qz2e7ZIrAFqZz3/UYGNnFt2nqjMutCCO43ocx3E99tLheuQBU6ketvcRAJLbZOZpisSxUI/ARmPWyNslAEHqa2Fuxfoo2+/FxlG0+sl0/iOjWLRDO7RDj4whDkMllvpDzTyvtKqfFI8xSrxP/ZFw67M4eaHsQOpaVCn6+/iE0hfMosTlNpTdAgDBwp82msleNXU9VVeweE+VVb0z2++KW/2xVrSRoSqKiLpg8Q+iqUUgvx/5jPuFqv9pK168XetnOfd494S1UHfrA+U1Ekzb6vEcCWpRlfSQhNI9nWCh3x+n8gH8ip3bvFDRqWRfmyXI8L+iaKIulO7pJGlqUyABcAw9Tl5dpFlUX+9YnxQpGqTWs0isR0BR1XnLwJOi6E/RE4lkkd25/U0Z5Nj+vIxo1CmWnv5bZGC9HBnZ0wsJNLYX5MndIMv01JFYrOgHJe/LSAI6/v6kUn3ljomz/ts6O2naiq1qmIWE0rFFxkjAqG8oW/rFmQgTFT2B3gpsShOwk0HdniCWZprH7pd15Uu/yoDiP7OEOQKqcgvvqzrI8/ZR/XY3xNIUp1Y+pufaWhqJUmdKZnHOCyQK0rtcz3pYqDpV3EyOZZWu4/ek02Rod0+kRZ1MyditgExv/BmsT7Z5oXRsxX8mfL0zK1xmducrr4sya8eph0cgVTD2XHMYHpgqVH0fKDpc2cj8q9I3eVla1Au2dWhqLUyQ6+1aNwp96mSPRUYi6VlP+PAr2p3tdmJa1HlM9bDaDWQ7zWFhReXXINRwvuZRdKyS3fMrj0Sp91gyOxnasRamdDWZPtRNCWOR9IznUniVZeWa+bXqWtTJ969AWYJ8fxxWp21eqKjbKWXocuViOMS2cC1qXGCKnsSAhAE9tZ7h8aki6bGeYKHy3OyzKlVu7EXRcF2YI7hS5ksHZPyr5vTnOBJJ93Ri51b8/Rf0yjTuWlRZ/StvIS1qzLSAUscCKYN05W2hgalCdVtAyZ7iczhVJobuMo1FwgxTVLAqyPmAXT2kCo9E0hecw7c+dSWyx77/q1+LWqeYT32uAlm3c8ykUU+/UI+A4b7rbVaesZ+HhmVmXrEWdphaf4tr0qUNbH39rwml5+VQ7Db0oVhxtuufnxQrulbQ2LAwEY0EVrQQ5H1VhhrqQtVtS3quzUrzV/O6v18L20/V6wlroUoc5KwVTJFC6Rk0+XZihSkSun/lTLS4TPPyTRuQ+RVZ6/fVCKWZkuU/TrvKYvz1QWPk7TG98EicMV5Ax7daUge0h+tei9VP46TKYh0tLFhTsRY2tvVQ4VUGIPfBfejuBKE009KDrCTv2FLl3Z1IizvGE6wc+y9R8qBHmdt6lFkg1PBDaFYQZoZ3W4QWdwnFpbk/Ug9kv2k/OjBZKE2xlMUbKgdlzrcVX4sbXfD3+pPSB8V7Gj+3qULFlCoLKsWo9QPDQk2RQJu/2dQfUxfkv5k9tT7fSUYi1anmW2h7pbA9nn01LW78f35K4AOAzEuf1hmbF0n3P+7i70mvDDnty9B0XaDNWzqJ+dIBP9i8j1QJpopUt/W/LNpVEZ6+ZRbYGmlxZ7Fq9NEGvgA6r69qlpnw+ETSMxjOy3weGpXgHTItqgt0wZZ6PZrJBp+YR/Mo6p0hUnRkrLpcAeg5FjE8uESLO2NzT6TpF4rrL+i2flK08EggvRpVbclJF89b+u3QeJlra3GjgiZo/GQO+MbHylDbPJH0JBol/VGvo+SRbk9uLNAjYLoj7TYX/GPTqi/mLb5tgUhxt1NCc1wt/mPKe1vhlFWObOj2RFrc+nc72ZaPgPttUTX9Ium42zllNU80vcy4pwrTL7pbhBY4fv7Zpjb4SqY3U8SNRdJx0clh1YWmhzHnthnDAkUWkj3QwF8Y6xc0GhdFQum6TYks9eXfedYxM8wZ1iJR1DATfGZ37cY0PxJK632iajCHLpmntD66F23D+q5IqcMXHmmRmcbp5FbwmwGt3sWCaV3Aks1R6uV9/MvrbGiswZoLYKwP2lc98uUXVimc0bXtlvNr+3+nlurT9NmfGval83F2i//ZfdUj73U71kNx299LPfczDa1ql6WKC1ishY6ZlTXFd8CYpB5DnEi0KCpQ2FhPIdMciioZ/mDhGKoeM3yUmgdzZLCNYhmOWf7fsZppVFUwVeWcqfK/NKYnb2xP3ufq7uQx1UxV5dvlTs2aL0NRwlNd4b9Do9fMLPySPZ7ihxSJdSuLzPngQ68kFk3rqD58JMUWXnRib2Csl/gX93hKv8QKF5z4kfCsL9+20JHwv5qCRXQ7sS/Ra7eFrT4cabHnMY9PG1+/oPmRzqurUdwSC7f8qHQtZlSiFr2et6aLPO3Bl1qtjQUKPEEql+0XsM3QKf5k/OxKH3yev/hNRWeLfa454E+Dv5rXnNhXjO0LaHTSWB80nwLZfldkzZixvcBPrMasutwuK/Ct1PKwqY6p/qE+len9Z+FfVmTNkHG9kH+4Bov63XNkAj42e582Ni7v7gS/0M+w2Gbu6lifFD8TWOOLBUtW9wmbp830wnupg69N738ysPCv1fzBLKo5drQx8DdwGRc+1Q9EBSdJ0dcJ650JPnfmrhRa4AeWWGrSOvtC8L2s6XPl/fL3kvKa+Ptz/M/A5TKMR9IXU3P0sYIP3vIW6rIX2ZjMoceX6IeA6jCqCeljqj9zT2PwxcU12TTuiiRP0xwnB/0R5PRmppDcRZTsmwk+edQCg5l5U6UuZtYK8M2PsUCJI4lbi6Lf2fVd0T/tEaujuz1B3urvxx57gY++XoaHYmkb6wU0erYNfSj6qSn7OO5cIGtLbD1yveCrc2/7LFvVzpC0I7DRpcKrFPxVcU156nFg9UjKLpjhkkI3M/DZT+qbTJaxuq1ltjrQ8luQbe7OY2EsYZ8hr76O+oYy+O6zsdSnC5avWbYayo+WN/0XMGs1U6P90rXEohKM9UEDH96iOv4BR5K1FlVd1MMDfLn1aN6d6Zer6Nm9/on+bMBGD6giIqmKKWoqtMzAp9NL5hbuiGUqpgrZ6syAXwN6dGafIonSl1w40ALfvpUPLlFRxJJLA/8GJy9ReQ1PeAr4+Ck3yzSSpr3O+fQFX0+fY/5UWeo/g9RamP5uylOdKkk/JE+3A59vfZQtw9JhKer2BIo/f1O/ZzyDRdXjGTIU9XgReXe/wO/Bi2doaJYETWZkWuF9VQffP+UrzYikp7/HU1QggwL/B+duqW/je4Hs1K/h75wd9AE2WeyQrxvOIZKaqeN8gYWzk9GMZl8ADOY83Qud6fM21i8wpifMmjVv81I6eVvPF7Cx8OBsLosA+gYHMs8wzqO1tnrOrB/M7KOq/3vaOJXhNAllKN2mvtjRScqcf/gB9BU2Jx5+bn8zpDNmf5BnXWTqvgQZ3ZibzpQB6FsMArhl/r9lS83++dB+JeJdp/FjaI768Uct94zaUM68vWls449FM7UWpjuu8zRf1fKNH4vmLrjEeH7BMp5Fc+nPNw2/05U/z0DBzSTMQGEhgv8TmInBywQIECrRx3KU9pzAXwYsMEABhu9R1lPobtau6NrdIGG7h2Heh0cgH8NfKEh2I4ap//qr7fjyMShA8BeeONjx9yfVBYbND4FHuPxtlAWozCcyBc96uOtqpny65s2LpF0zbK/NItkAn7EIN6atECtJCzTEVaPt3VE+kjXI/bDhM/ojTBA4TsAHHCTfJgO+J7Yzo1l0hSJDZ5K4ZtDe36bbZBAPyWBrcd3ky7PUqxSMRhSGzSgQpe1EyiCTBpmyEybESNCPg7TkvRoJk7iHBwryMDGIQ1nKIHZ7t5N0HIUcDFsNELzU+q1C+dZDQViaLkoaxG7v9tNJO3A3pu3409ntFX4fODFFJo6UzdywQjIleaIXS1nydCJ5OvlmUmfgRE6jsi4hTq3o7B4ZYSqRPQgKkwaWOQNP2nEspVgOIvjXGK4Sxyg2Yfg/NvoNKEyejp+BKTEkOUi04bTnP8rZNl1PVSN8YgSNKOB8q4wDf107g0NuKlG/hjjm3q1Q2zsCO1Ao3JnX9bpQIEPBGBbFOH1JOTqb2qeOAwkhEIEQYggqVCaBMCRQ2GnsNz9BEmBnyj5IIGkSoJYfrktCEaa9X/rtTaNseK/+LzdJB6WUCl2pes/Y4bN3tZmWCYXLDNFhtuNmO8INWD5pB9KOTDvPAFHb0L9RdJKYuy8+7CUN3GwgUgIuYX51/qM1SxLJcVxcEiT1tTAxiE02Jl/Mo50/f351PmkgU8pQUZK4m4eTUVmdDFCJE9J1wxW8NJLgGrTYIxekE6zHoB1B/NLC5RMCkpBE4RgSYfyy/RtFJP8SSKgSGxgOdu3VXwi04W7SOTXVO4GQpGMYxo9msstk3HcVBOLSDqQEbGAaDz3YWp7Oa3dAYPiuf4TeSQNShjQB7iwsLTHwRXLALFG19/lY8ozGJSGK6y/oxkGiaUjnV3tPnSCJKMYfmFtaZ+CARF0Kkqr3EEEZCr8V12QLgdI2IMjBEKneTQgIijHtFjckIzCQhaWoBgr6l9mPAAHOBgUtoSq1hhKSBDg8UB5krEzRpaEIKusGRvi68PqtQjlG7W/KSGYnO9BHKNVsh7eMNlYHpTxdAst3olqq2YB9RxvuAhTXpBviFZFYteTs6SQWb46llFHrBwYKUpIEqUpGgMAg938LkAg3vgFVcpIAHPRg6c9pNKGLJhpSdFClL0ZBd+d9D3Qfou3CgFClZxyAYF7i/UeLspg/oIVgdsoOSsjFJuwjXb3Lscys3pkO7COUnjkbIPk124d2KYS4iIVofknVNhokG3990Fz3TVGQ+K6qpbdJyUVgXSnnQ4LJRmnqjiCYWXgvdbc1jTw2IThdK02l7AgRcR1rofJBWfcT+K/hQK1MQDu6W6Dr8CD3pTpoEDCVGCxvlqGJB9tSdEwJarkjDIOLvyed34R1o5Iy+nY5+GtmQ2Q+mF/Cdv3zk4KCn8l2VC092Q6o6E4/3clt+H1VN0SiWWJVp9bZwCiidrCEX5CxkxiCw/COoCBt9B+h664g4bqFhOMN5TBtBwSqk77Z8kHDhBRBhk5U2oEI0YxogS67OX8vVBxyQwcq5wY4OBCUofPqaiSsNQkQJWWAAZu6Dqz4FV6/VcCyA7eDg49gnSeQxq7B3jr7sMFF+5N30CaSa7oeaLqrsw9tdJhApGy+o+wZgGyZXfsng96Wev1W4clmHMiJCk2DuE3p3Q3cFHSJrSYxPKScNhAcR2I1n0+bdiDlfG4ybBzNGuSu0SyWCPAdUXfA4NJ2rRulDIY8+aeVsEk6wmn75nAbzcJOdeAfwWnu7JAsL+9gb7hYjovhtoMFWMgMcSNw1Tb7k44h459ru+o41QDcaCCBQ2/ZPsxuJM0AR6qWouM4TEIbhi5KDLYlif60HSlnOBAg1h18LoKHmpskmhI8AlxlDFxQIHBkuQFOezKN3zL3aoSJESXuwSVAXiJNj5/ZTjrD5eUd6i1RLEflsDMsr7uq88+HNmrEESltV523sZjE8+bVm3GGC4H1KTo4U7XHiRNJ5F/u+q5Bs241if7VFQccCDGPne5Rc5OwZXNuInN3flvOcPByb/ghEZYkSIEIhDRdclT8zAZZDtR1GQdsu+6mzNubxsGYhqRd5YFsE0bui3ojHz+avNKUAzio2s483uNzSZfr1jS9d3XFcQSF0wSsd5FK2hEJuzbnTTirEwnGlMhZBhiDxK2bXanSFO+7CpbxSUPcrnLBYryEiUaYtAEPFe4MBhln54qutM1p+sDKiuckFDQa8+biJpUkEAoGOnfzE4mEL/jtI4FIKJWiC40ZsytMdj0UsUz4Gwuq5QIEjpsJXoOHCi/huMavXckFB5q0j9wFxTXjAAw//R5XqQYOBw3f/DwoSaxBITcUK00HTNz91BXlbL7Q4c6vlm9r77uKEZamHcBFqTPa78sv26ZJONlQXEcIHNs0uEs1EBjotPl5D4L56yqxQwSGtulaVCvJh0Ai8RdXeZcGxLaChGMNPuokMJFL5vdKZdo0ApxQcQ3DG9wht6kRFPbupdck5RYE/tUEUw0Mj1WQ5dYPjC9kCqzqjhahncdDQYOPOiMEsovrrlKWrrYNKPgXKq7hEIb56GcaguvU0DdM7EeAt2ztPVUe5L9SzmuTZpdxesNZiGiVUypGbkP5NT65qktgijHtAg4FDT7qElCY8aDK0FlswsFkQ3ENh55b8n4aNQVQK5OwFd33QE8hxDks+TVnSQNQSOCwCweNOGjiT0ALAvyDc6QwRF2b/pVi6bc3DWwk/OL5roEpieFZDPkjfMI7YqSlJv5oeryCLttmEo6OKL4ZOmCYZ9zDGLiXR801YdMFe0i6P1qjtIaVleOGmZAQIi6xww2zWpJps7ijcOZfJeHJFDFQcxQa4fcK8U9JI+6jL6i6B1Z6YT84RQcuqnYH39j+cUJiq0kMDim+s1Hi52GAIGpuEjYufd8DvQNlvZk0sNDZbARzlp5df6AZcG8GCw3Xq6s4Q4HE/Oh2FSHbhzYq4oiQtatuAmN90BKsx80Ed4iLqqXoOIJf94/Lu0nS+1ZXfDdY9S2AMGrundycV9xNNOgYUo6TBhA4faABlLdzw92Eg+/PiUIA4UFsJTAPtBKNOGJI21V3wUJEO0oSnCEuqrYznzj1R+hyuLEkvXd1xXcVQmTOawqkUg5kJlo7ffPzhtTXOzORFpmxE8pxmLTDp33qUGbjGSwjfJJ1QOikgYLe3fW+szsUYkjaVbfBHiVoR3/wEBcV7gwKU07T0R/6DSsrruEqJsww7eYBiKQOEIc9xLuvJ3Tu7mcS4w1nQygYNYNFzXJBYoavGfbMdxIiIMPiquedwsH8jXbVffB7DNZjJMFL0oGLCpME/jW36qAzj00p+kCKjhTXcAOTyDyEAMRSl4ZB/1l6wFKvVd0IX2UcpHIcrovLj8cMZZ9CwuhJTtQQAmXkf3Yljyus3yogmZBsiBdURYCv3ZV2kiR4SQK4qBADwiCyRq+FXRI6WJdMH70Liu9sQuSibmYBiKYaKBw4B/GMjEUmFIXOGq/mh4IL8d78cdg75KSBAIdMbG962pSDMaWElFAVA04rEZ655gYXpU4Cgdxl1werBIN1LQmna4pvmgEo8ZucMGmCeKqBg75/K9qDwsH3IeUcQzIRRHasG8UNLZJ48xOdqNkYZgx62UJkS/joVRfygpUS086joaDBR53Equ+4l00jyFF8w8WY+N+478ZN8AI1goPufyuYYVuRoWPKeYhB91L7JwNwpWH3w8HAiJMUAX+6S/p72Nf+AB+9KhB0rElHg4toKGzwUWdkhJmHvgIHisOpkE84dN3L3E8jKL9L1Mr3Crv6C7X026FBYFONQwMPDgfuGPi0n9xJaNIRDsNX9KytGLZ4ImRVoWAKop1/Ww0+4R3BYeovBdjI+lmuM9iEw4mG4jv03IxnGINnqEdLiOZ9EQkFp5IEoZw3EK2+yGSDS7vAOgPwGw5U2gHIqPyrXnXn39NHny8YTEnMehaH/CQBXFRoQiIRJB82GMGmY1ys+GYYgGCe8UxjEKIxm4+amyIa/qQ4jxWHQ4rjUCctENzaMkD+J3cSmoSMnMeR8mXPDrjtshCHaxSxj3pBlWs72QAXQcea9ETWUz94iIuqPU6USPwfGPavrPhm3QAnfuwyCNHA4TgO634AH/VlL3BzwpDgqUmQHA7u0x6zawB1XWaEaJW1HRZ6wOUnknqO7k72bOC08AiwuCHCZlAZc6XtKtc2lsJ9RyVyEezgxB88xEXVMBSTQHyAiu8GhMjp9M28Kcb5YliDB8tJoijnAD7h3DvZ6ZufIP8IhVPKeWhK4T0C93ashYonDmJaLoEFDom9GMukLrqdk6MgssBxuqPUOG37HPc9qDUeTLvKtU0OwUycwLZcXCI3wUKD9djlDXFRYaj4rkKIrASwaIIgKFF/7xMftE3CsrW5KLXyvUoMfMX4kJhAHCx3wETUHrkIFqI+zIxZZzvEO+bs7t44GUzNOvtpOR3dzXobfwxNcN1TX8NsiNtVru35uHFp1Pp/Bi4y3AWnZcBjRz3EhXO4AQZZo1ktAxAFJxpeQnAd2KhOE8BH7dLNdg59RDDDZYjGCZ0tJonu6wBXNwPH4Dhw3nTdzPeUbIjbVa7tJ4/h5ZmARZbL4Gsn0k6QkDfimg3OOfEOiwDEIR9hAkFC2mLQMMJHXRoG/WgePu4bxLBgl5TjMMMATL+w0F1iu2S57x8YxmnxpCFZUOXafqs4vD4T3Ae/xwhO45DfcEnaAST4eeEBCAXBNt/dBsnWBh/VwEH/o3KdAY4gwK85m4RhKflss0AutmstVGyLNw3p/CrXBeiAIPC28QwWiAAd651pzHoOhYKGK9Y89a5rMW2CYNBEbdZYtiUJ4KMa+3qWLiOz6+O00qQdKccmhBSBjPBkSy6O+VtuqsrXLAGVOBKhqa+FCWLASghc3FLDBSk6XPcuN0E4aB4ngS0pAvioxd+QzN3XXQSce3M1Z4swyH2s4JEd60bxiJm39hdX+bYPNiHCpoEoMOVZoVDYKFc4hMPC9ZrgAdAk7Ta/YRIftTKBrf/WTcvsmINA9crK8cibS4Kdgxw2fMb3CO/Vdfl40z8x7RCadsi9aHgokfVA4tC5lxVxV1fHZsMtkaYXuOiVvKfnWuXbPlhkhE0DcWAKmnaeDAUj5QkP7nau1wRPgGBbWO0wrM7agY+aS8KmfXGP8dcHLUELSdlx5Xz6RZD1eyVwvIOIFkhgtBH0WA4+c+NTN/4ZnuEZWm6CDEPsYotNjACHTHj30sHCts+TS8/Gd9rzmQLz4OoOuuc019jUfD5tVJJEhB4FiARTzgsH/M9TjloNwcyuPk2b4BEQIMIew4pFfNTcZKK+y9XfNRjOI7AjaYCz80VgirQtbTo6KwPcPawsHWvUVjh0cY3IFGN90HrZG7OBFji1zg5EXimuv6C75peu/1zbVa7tt5qghUwDsaBjTfoRENi7Ab/GYhRGb938XgncXg4IkhmOZqJ0ER81N0Vv6Nxvfi7ZGwwfZh2EcowJMAnMgPELwelZoESymS6thcr9IR4K8O6u0NuLqTrNnQ3ehWvuPILR59aucm3Px8GNGwXRYKGZdVkqLDbtwKv2thJBWOp6qoKXQNCZ7kTopYv4qLlJojkxd1937DICv1Z31jDCaZTYAI7x4O67CpWIIYZfJnoAvbqaUcaYhqRd5domJwCFV3YMxIMJa6Fi8CXNQLzCJF3yh8BbYJAEDqa9Is0APupfEdjxKVxB5q7/6uY6C3cBEXccofQFjyxUQu6CSbcD8U5hDdMQt6tc2wv22ngGC7zAAMFmYjrkpRpJozORttRjIHg4JL02RQAfdRdQ0JeY1dsNE43Nk4trjtRiNKx5kk4ughBICXlcOHjTEs9Yg/Wekoa4XeXaruLE1b0BLzBY75oJ3qUp/nfBTAx2ZnXyGAj2aRNJAviokQfXOQ8fF0Dxvhvj4M9sZypl4CQR5qDzV1dDsHVEDBzine02INzCNYiUzK9ybaMSEXFzJngBCkJxKAxVORsItFyLx0BA7m6DYdsIH9U4+p/lAkjY9pFQ0HC2GBNtqZvzSkv45nFhDSFWMkDs2Qg3BxVxV1rl20aHJCpD/ix4AQlCUShWZcYQGaDptnkMBOm7Wa+xEh81QoZdn8IFn/FDru5MZd0QCl90/L1QS9o0BpNChCeM3eaCaDt0MJuq8m2jgjDk/RsFD5izCAViVfZ3/ksy4UyPgSDdZn21K/FRKTrCg/bkPHzKB4Z9BRqOLHbWIJJryFUlmbv54XBUiNkk8WymaEUWNm6L3VSVb9soCCzDp4EHpNbCRDAEBaKwfOrSSFj1ED0GAizmorD+4PiolUnY/G/L10KJREIQoSOVdQNjkEJ/dbVSzgqFXSMCNDDkk0PnpmBnh8qY5zqfT/sffaKlXqUAHvDwELhzLg3lxhRBYlh2XzwGgtGE/UNdm4+aaxINT6JsYJzhgqb1NZyFaTrRtbmjVQLgIO2lCrABgY83BLF+6frPdUGVaxuXJEqELvUqBfCAmQjeNkN+Q7kzbSfNRNEL8BgIEhmOhCjPOYCPmpsk6p89JNMcyxTcqTOqOVKT8KD2MEpJtXnhQFRz3YhpjBtgflOk7Qfz/FELldGPul3l2saHCBfB08ADCqsUDHjrq40ot2btJDEKkx+09RgIcLqTSZTmHMBHzf0PXdO8XgCCvPLAL0WwkYPKMBCZdn5hCR3rk4LBo5/oug1+9g2ASKY8m9tQnv5g2lWu7QVY3Eh9LUzwgB36h5c3olwbnhwOi8n9sPEY6Fg3Cn5WJ2KUr81HpRzo8vf6BlV5wDQ2YwAcGilipPN6My8BNkOCN6uE7koaYMKxBGtQUyQkhFhGYBj8NdpVru32XTSewQIPGDj9ZII7orjWalxUmDbI/5maMdtjYPBPYqJ6TT7qAFE4/iXKNWqBYYA/HFTaAVi8nfD3J7UEGM2iSxKh4dWEbloF0T6dAghUxSWOxCgWnHaVa9s8AXdxJniBAYMvr6G4Nk7UgJKVuKjw0xF6VVfuMzwGBrtY7QjRMMJH1VS54N+gUMJBESjr3HAvBTY07tUTyddveZXZXNce4jFCEtMJ1y1Noao7saDKtV01jBt7A17wXjDkNxTXmkkHI/0+3qs/Bj2TuCh1ACSsPwSPgSApbTFsHeHD0dmKBMY0OIQoqCwJBlNfT9XRH2Fi3piP9rrjfDg+78S+rzGGMc+j5mzRhzSewQKxOLffKiruzAQvQEHoDYaKaxgag1c7PJCkBb7RIT7qnRtBI+pm5jEQ7BMh2pMQxAD0E4Zo2sRxOVMIkC+nJAAYXDiH5wAKor+scjxCwmlC2w4e1D6DRHhvGnjBe3kHiu9xKRS+2xuAVmceizEYXomPeqkoaBjNaukxEJA+bK5hRIytWR80TFxKGYhDiIa9V+yA8/fFYfeWnU1Cwc9pHtT+xoYInwYesPCNoIEo5BOGxvDjTACAVlfuSzAYWYmPWhfBmqXzNtNjIHhdCDZPEgJeGBaVaQZwwCG2Py540p3THuQcpHI8gkIeGmwF72l/4/2fBh5QWKWwiygU1hTXMDTC9zNhBYtryht5LEZgOE0HPsok0DEts+9zPAaCLrodlnUHJ0SAwc40Q1xzpBooGMf7Pqd8ibt5mOm9I87uAgL5U7ynfQY4CD8K8ICHh+Gta24ormHNCN7MhF5bDxWDvqvho9J0koTFnffDxmMg6AwcCKjKOUAEWPrt0DBkUtYBzpQJSbTXtxPLtdw3GEYQbjlI5bjx6A24Fjyn/VYT8t408IBl12AZw1uE4I0oro0tz7gBKLFlnMdiM+xcxEdl7CQxChPS1mMgwOlOJ51zgAhghovNxFjSAGcjKJwiH7G0XCRvDiliaMRZiIKijjXpntN+8u9uGnjAaaHETTOdt1hxbaQY8LBT11MVSi6uKf9Qk0TrBnzCMzeJgofoMdCxbpTE0JnYyxaJUGSykXwxyZk6XxRk0F9/VCvPK0rYInJupHIcqkRiKXhN+wsYwY3U18IED5izGTPBHVFcG2kGoM3nxjM0wWHLzGOxabQu4qLCjEGisKRrw8pjYBA/3QnTK2cLAMYdnijoPF9nhICk5BPiSHnItFlp+oQJwZkyQMEOeU27bRpXZ4IXnP7ljSiujaGfah5ogeOWES42RfsiLio8lpPeXY+BwUSaI5G1aQIEWEjETQJlNUfq/eGwNHs9zMpyZ49aOR85aPCYNj6EhLz+TcELukDwV2soro0tG9Ni6DM0gWNrtwjsPjguSiUJEhvV5tXNPQYGsdvcTYy4DxL8aEFA1SRnCkMZDprQ8DY+fWey2MM7Ifeh8AceiJTzGg5/75HHtL/DC/qM4AX7iiG/prjWCB0OeOnPQwO4TnyoJuhbk486gCeHrs3MYyB4AUh0NNzXxPAYpvEaztQ7v8ET5f5fMCAUxzQDEnksBG9ZgA4QgSHZPhTBC97LDYaKa6iu8akD59ZDRWA4RQAf9cm/0kfxGAj2G8uOEdeB8QzW/fpXHFw+hIbZN+AtZgmoIAwRfqPgAdu1Pin7+g4U31ChxIeZwL11eGsN8VHvHAV1o99XS4+BYJ+waB9xHSD7agQ5NbHCNJ0kXb2bntJGJYFA5DTwgIlP+5pDPmGIaJ9mQhlbh4fSRg+dj1oXgyqUY6bHQPACMGia5LqWAXPWFSvLBj+w8+pq4CXtf4SKyKMALyDBnnfVUFzD0Ei8nwllbT1UDIbW5KOOGoffc/ubssdAEGFR9xbdBon85IgSE6FItUyG5H8FXrLg2g0ZfhTgBSlCFwXlcxXXWgOFr7cPytx6qN8n6wA+NRIK8Y4TXgPBn/zYi9wWGERUTSTqBgb4vPTbmwZ4SBuVgEToUYAnoOFRAoUhl8ZiNBG3RSh76/BM2bGIi1qbgPRT8BoI7uZJL3IZPG4c9gjUSBt8ZKwMPKQ9/93dKHjChLUwUdq7jB0pno1nePvwe6mDC1s4WJKUbRtwWQnTmpF3d8+BQePAhRAVi7hsQILoG+AGhNi1pjirYNqnhwbe0f4Cr8Z4BgtEQraJEgrvv1X/Z7N5NIaM4OVmwJUtnPuSpNG2iEeDwOnf5z0wiNOdiFH9/nisgoPwjvVJ5feOTVHUEKVGCBx33R2U4e05Q/JKmdpHgu3X9wbcjGS2o+QJQGL4D/X20BDM+bIcGotx4mW2D21waesAn9baPIxA2MW6g88t/7KOcNiIroeZm6Bj3SiJNMcXcugcmE9AaWcCfmDs7jcSCrL2qe8y8J9JoNQZCc8U102+N2RbicthDm18ArBxY0NwtZGW5Ch9OiBQbm5Y9Xa3/hmHmpkANIjbDLi2dYAE9Bwch5+FaLv4GNPia6GDtB1QWLxHroJgNGGPQeuIo9oI3uvuctwAIj5MEqNBQmnC9dRAGUZ9g4HTihc4sc8TyPQVzd52d+dT7eCoXT39bwruTgzunIGTzBmAwK/P3ttG100epyWt7Sg8rvuBX6s6uHjiARI4mKKDoyEUduFpXnwM+nocTjRKC2s/b9BdELwAEnaOOFlswEE09GmWAXC60ztoCLH2fR21YQhlvEQDXn6RDpKnAyZ60fWwh97f7O4k28FJGx0iw3bfeAYLXL6XuCCdWGcH1BYxsTfAadfPKHQQhhe1w+DqViJvSwkYWcnJdCNRNPqECZ/1DmGotAaCE5ObLoPg/h7ZiIOsG2D45aFBORd+2x8gQgND6SfrWDdKOcDcuxWC4nZp9OyA2x5uQx+KJQCyn0JSPL+09lvY/2ng9n3HsLVd2pPHBee/Qonb8rHaffqh0sIQDT/NBJe3HisCY0OlHVft/Q7wgQRtzWE1SglHuoLEheD64AWskXJAWMqaCI7geSwPygKkD5ubWVOA832Q+wdlNf76BY2wXky1k2YDSpifbgcse29zs5StW7sSCopSDSgp2QDcwBHtwVKvUgD3ExBApKRdyvxLMtred15/VCtlEImbX6JRSqP2xWaC61sksfSpDoUlhGkHYFBm2s2BcwuBSBwQa4a9jAyh8BfaMAQBA5Nuh2XN4pFewowDMORc00Iob3C/Mwy85rrjwgGGaOcHywMPyqC9e/Kp06GXtnU2wHLIFKsnQsl40x8Vo5nToYQXiYXIAFGbBAG3Zv2ChkGwKbF721s72wFYViQabs1SYKsEvhsa6u3g3hwaJM4EAVuH97EbjV5qWTZAoO8HDfKCzSJwB4O+DB1WmT199vSsG9jugCEfDV+jn2nYFAGC22bALyQhYe4we/rs2bNXuRpCNCWmHdojKPe1oKDY9gmz3b6KEdQxf9LZyLr9V+7RX6GLjKfJE+NvaJ3UCWjf23V+FZYElvkErp0Dpbf2AhvtuW6QORukz4B11lnnba3zq7AcwLudmAZCGmuwDso8IbCfHdZ5W+uss846H+/JY5GLp3u1oPQrToQvru8YZs+ePXv62s/JDHuN4YX1QMjW7qLgAwnRc5o+e/bs6Tk3GMKJQkxbsxD4bxazBqEglICsJ7eJi0WwBYclZviWBHvWA0GbY98ODZw4kaan47B2sxd7sZvAMPvoD7JjTTqUPSCMgLT8drEuJ7D5QshwVVA2uFFCX0/Kj1hWn8Oh4MYIlo2m/GQEp5e5V6OJ4HRh17x5ISKGiHIkW5Bs/pgfE8tmLOuI/JpIWzoFBL1RLPdlOpKIrH0KH/Njfkwimwjxk9BvJ9L0WuD0Rl8bIT5gWHOxF3uxm8WgGsP3iY2APQJBm5m3QwNvXk7CX/WLvdiL3QSGea8iDSwmQjlbo77BOCu8V9ckqyexeZiM+R92vYUgbnFN+jb7k84yA5ckT0/i8DiBJOF5VjfasT4p4MJW5r4bn4DB6nkCrn7Nt20OuHCicU8VnNUJD5afcme4DLm5bzgFOLaOoovVzuDpeW9O4ARec3KGyxZbIOzCr3Y3d+TenMAJGITnHm8WOE4czWQn5u58CSdwAphtXiLNcftaIO4end/ln8AJnACG877oZgMo98DAwEAAYg8sH9w64PYA3NmxbpSJE9ZCbQ0A58GBFQShB1awCXwHBwYGBgZB6ObA8gO4pZ0HAA==;" parent="sndy7mt2s_JfuWecsUhK-98" vertex="1">
          <mxGeometry x="463.09" y="375.5" width="73.83" height="70" as="geometry" />
        </mxCell>
        <mxCell id="sndy7mt2s_JfuWecsUhK-3" value="" style="endArrow=classic;startArrow=classic;html=1;rounded=0;exitX=0.75;exitY=0;exitDx=0;exitDy=0;" parent="sndy7mt2s_JfuWecsUhK-98" source="XDWtXi9IIhZVzAvtdl1A-64" edge="1">
          <mxGeometry width="50" height="50" relative="1" as="geometry">
            <mxPoint x="580" y="300" as="sourcePoint" />
            <mxPoint x="600" y="290" as="targetPoint" />
          </mxGeometry>
        </mxCell>
        <mxCell id="sndy7mt2s_JfuWecsUhK-5" value="" style="endArrow=classic;startArrow=classic;html=1;rounded=0;exitX=0.25;exitY=0;exitDx=0;exitDy=0;" parent="sndy7mt2s_JfuWecsUhK-98" source="XDWtXi9IIhZVzAvtdl1A-64" edge="1">
          <mxGeometry width="50" height="50" relative="1" as="geometry">
            <mxPoint x="580" y="390" as="sourcePoint" />
            <mxPoint x="400" y="290" as="targetPoint" />
          </mxGeometry>
        </mxCell>
        <mxCell id="sndy7mt2s_JfuWecsUhK-6" value="load Balancing" style="text;html=1;align=center;verticalAlign=middle;whiteSpace=wrap;rounded=0;" parent="sndy7mt2s_JfuWecsUhK-98" vertex="1">
          <mxGeometry x="448.8" y="451" width="102.4" height="30" as="geometry" />
        </mxCell>
        <mxCell id="sndy7mt2s_JfuWecsUhK-72" value="" style="group" parent="sndy7mt2s_JfuWecsUhK-98" vertex="1" connectable="0">
          <mxGeometry x="41" y="790" width="159" height="159" as="geometry" />
        </mxCell>
        <mxCell id="sndy7mt2s_JfuWecsUhK-65" value="" style="group" parent="sndy7mt2s_JfuWecsUhK-72" vertex="1" connectable="0">
          <mxGeometry x="43" y="39" width="79.68000000000006" height="110" as="geometry" />
        </mxCell>
        <mxCell id="sndy7mt2s_JfuWecsUhK-66" value="" style="shape=image;verticalLabelPosition=bottom;labelBackgroundColor=default;verticalAlign=top;aspect=fixed;imageAspect=0;image=https://velog.velcdn.com/images/idonymyeon/post/54c5e1b7-98dd-4dbd-a095-2cc3169e27f6/image.png;clipPath=inset(7.66% 0.67% 0% 57.33%);" parent="sndy7mt2s_JfuWecsUhK-65" vertex="1">
          <mxGeometry width="79.68" height="80" as="geometry" />
        </mxCell>
        <mxCell id="sndy7mt2s_JfuWecsUhK-67" value="Promtail" style="text;html=1;align=center;verticalAlign=middle;whiteSpace=wrap;rounded=0;" parent="sndy7mt2s_JfuWecsUhK-65" vertex="1">
          <mxGeometry y="80" width="79.68" height="30" as="geometry" />
        </mxCell>
        <mxCell id="sndy7mt2s_JfuWecsUhK-68" value="" style="image;sketch=0;aspect=fixed;html=1;points=[];align=center;fontSize=12;image=img/lib/mscae/Docker.svg;" parent="sndy7mt2s_JfuWecsUhK-72" vertex="1">
          <mxGeometry width="40" height="32.8" as="geometry" />
        </mxCell>
        <mxCell id="sndy7mt2s_JfuWecsUhK-69" value="" style="whiteSpace=wrap;html=1;aspect=fixed;fillColor=none;" parent="sndy7mt2s_JfuWecsUhK-72" vertex="1">
          <mxGeometry width="159" height="159" as="geometry" />
        </mxCell>
        <mxCell id="sndy7mt2s_JfuWecsUhK-73" value="" style="group" parent="sndy7mt2s_JfuWecsUhK-98" vertex="1" connectable="0">
          <mxGeometry x="41" y="190.5" width="159" height="159" as="geometry" />
        </mxCell>
        <mxCell id="sndy7mt2s_JfuWecsUhK-74" value="" style="group" parent="sndy7mt2s_JfuWecsUhK-73" vertex="1" connectable="0">
          <mxGeometry x="43" y="39" width="79.68000000000006" height="110" as="geometry" />
        </mxCell>
        <mxCell id="sndy7mt2s_JfuWecsUhK-75" value="" style="shape=image;verticalLabelPosition=bottom;labelBackgroundColor=default;verticalAlign=top;aspect=fixed;imageAspect=0;image=https://velog.velcdn.com/images/idonymyeon/post/54c5e1b7-98dd-4dbd-a095-2cc3169e27f6/image.png;clipPath=inset(7.66% 0.67% 0% 57.33%);" parent="sndy7mt2s_JfuWecsUhK-74" vertex="1">
          <mxGeometry width="79.68" height="80" as="geometry" />
        </mxCell>
        <mxCell id="sndy7mt2s_JfuWecsUhK-76" value="Promtail" style="text;html=1;align=center;verticalAlign=middle;whiteSpace=wrap;rounded=0;" parent="sndy7mt2s_JfuWecsUhK-74" vertex="1">
          <mxGeometry y="80" width="79.68" height="30" as="geometry" />
        </mxCell>
        <mxCell id="sndy7mt2s_JfuWecsUhK-77" value="" style="image;sketch=0;aspect=fixed;html=1;points=[];align=center;fontSize=12;image=img/lib/mscae/Docker.svg;" parent="sndy7mt2s_JfuWecsUhK-73" vertex="1">
          <mxGeometry width="40" height="32.8" as="geometry" />
        </mxCell>
        <mxCell id="sndy7mt2s_JfuWecsUhK-78" value="" style="whiteSpace=wrap;html=1;aspect=fixed;fillColor=none;" parent="sndy7mt2s_JfuWecsUhK-73" vertex="1">
          <mxGeometry width="159" height="159" as="geometry" />
        </mxCell>
        <mxCell id="jIJigr8dvK6AfDzSio0A-96" value="EC2 instance contents" style="points=[[0,0],[0.25,0],[0.5,0],[0.75,0],[1,0],[1,0.25],[1,0.5],[1,0.75],[1,1],[0.75,1],[0.5,1],[0.25,1],[0,1],[0,0.75],[0,0.5],[0,0.25]];outlineConnect=0;gradientColor=none;html=1;whiteSpace=wrap;fontSize=12;fontStyle=0;container=1;pointerEvents=0;collapsible=0;recursiveResize=0;shape=mxgraph.aws4.group;grIcon=mxgraph.aws4.group_ec2_instance_contents;strokeColor=#D86613;fillColor=none;verticalAlign=top;align=left;spacingLeft=30;fontColor=#D86613;dashed=0;" vertex="1" parent="sndy7mt2s_JfuWecsUhK-98">
          <mxGeometry y="610" width="720" height="520" as="geometry" />
        </mxCell>
        <mxCell id="jIJigr8dvK6AfDzSio0A-115" value="" style="group" vertex="1" connectable="0" parent="sndy7mt2s_JfuWecsUhK-98">
          <mxGeometry x="317.6" y="130" width="159" height="159" as="geometry" />
        </mxCell>
        <mxCell id="jIJigr8dvK6AfDzSio0A-116" value="" style="whiteSpace=wrap;html=1;aspect=fixed;fillColor=none;" vertex="1" parent="jIJigr8dvK6AfDzSio0A-115">
          <mxGeometry width="159" height="159" as="geometry" />
        </mxCell>
        <mxCell id="jIJigr8dvK6AfDzSio0A-117" value="" style="image;sketch=0;aspect=fixed;html=1;points=[];align=center;fontSize=12;image=img/lib/mscae/Docker.svg;" vertex="1" parent="jIJigr8dvK6AfDzSio0A-115">
          <mxGeometry width="40" height="32.8" as="geometry" />
        </mxCell>
        <mxCell id="jIJigr8dvK6AfDzSio0A-118" value="" style="whiteSpace=wrap;html=1;aspect=fixed;fillColor=none;" vertex="1" parent="jIJigr8dvK6AfDzSio0A-115">
          <mxGeometry x="39.5" y="39.5" width="80" height="80" as="geometry" />
        </mxCell>
        <mxCell id="jIJigr8dvK6AfDzSio0A-119" value="" style="shape=image;verticalLabelPosition=bottom;labelBackgroundColor=default;verticalAlign=top;aspect=fixed;imageAspect=0;image=https://ih1.redbubble.net/image.4053536903.3862/st,small,507x507-pad,600x600,f8f8f8.u1.jpg;" vertex="1" parent="jIJigr8dvK6AfDzSio0A-115">
          <mxGeometry x="39.5" y="39.5" width="79" height="79" as="geometry" />
        </mxCell>
        <mxCell id="jIJigr8dvK6AfDzSio0A-114" value="" style="group" vertex="1" connectable="0" parent="sndy7mt2s_JfuWecsUhK-98">
          <mxGeometry x="519" y="130" width="159" height="159" as="geometry" />
        </mxCell>
        <mxCell id="jIJigr8dvK6AfDzSio0A-108" value="" style="whiteSpace=wrap;html=1;aspect=fixed;fillColor=none;" vertex="1" parent="jIJigr8dvK6AfDzSio0A-114">
          <mxGeometry width="159" height="159" as="geometry" />
        </mxCell>
        <mxCell id="jIJigr8dvK6AfDzSio0A-109" value="" style="image;sketch=0;aspect=fixed;html=1;points=[];align=center;fontSize=12;image=img/lib/mscae/Docker.svg;" vertex="1" parent="jIJigr8dvK6AfDzSio0A-114">
          <mxGeometry width="40" height="32.8" as="geometry" />
        </mxCell>
        <mxCell id="jIJigr8dvK6AfDzSio0A-111" value="" style="whiteSpace=wrap;html=1;aspect=fixed;fillColor=none;" vertex="1" parent="jIJigr8dvK6AfDzSio0A-114">
          <mxGeometry x="39.5" y="39.5" width="80" height="80" as="geometry" />
        </mxCell>
        <mxCell id="jIJigr8dvK6AfDzSio0A-113" value="" style="shape=image;verticalLabelPosition=bottom;labelBackgroundColor=default;verticalAlign=top;aspect=fixed;imageAspect=0;image=https://ih1.redbubble.net/image.4053536903.3862/st,small,507x507-pad,600x600,f8f8f8.u1.jpg;" vertex="1" parent="jIJigr8dvK6AfDzSio0A-114">
          <mxGeometry x="39.5" y="39.5" width="79" height="79" as="geometry" />
        </mxCell>
        <mxCell id="jIJigr8dvK6AfDzSio0A-126" value="" style="group" vertex="1" connectable="0" parent="sndy7mt2s_JfuWecsUhK-98">
          <mxGeometry x="519" y="729" width="159" height="159" as="geometry" />
        </mxCell>
        <mxCell id="jIJigr8dvK6AfDzSio0A-127" value="" style="whiteSpace=wrap;html=1;aspect=fixed;fillColor=none;" vertex="1" parent="jIJigr8dvK6AfDzSio0A-126">
          <mxGeometry width="159" height="159" as="geometry" />
        </mxCell>
        <mxCell id="jIJigr8dvK6AfDzSio0A-128" value="" style="image;sketch=0;aspect=fixed;html=1;points=[];align=center;fontSize=12;image=img/lib/mscae/Docker.svg;" vertex="1" parent="jIJigr8dvK6AfDzSio0A-126">
          <mxGeometry width="40" height="32.8" as="geometry" />
        </mxCell>
        <mxCell id="jIJigr8dvK6AfDzSio0A-129" value="" style="whiteSpace=wrap;html=1;aspect=fixed;fillColor=none;" vertex="1" parent="jIJigr8dvK6AfDzSio0A-126">
          <mxGeometry x="39.5" y="39.5" width="80" height="80" as="geometry" />
        </mxCell>
        <mxCell id="jIJigr8dvK6AfDzSio0A-130" value="" style="shape=image;verticalLabelPosition=bottom;labelBackgroundColor=default;verticalAlign=top;aspect=fixed;imageAspect=0;image=https://ih1.redbubble.net/image.4053536903.3862/st,small,507x507-pad,600x600,f8f8f8.u1.jpg;" vertex="1" parent="jIJigr8dvK6AfDzSio0A-126">
          <mxGeometry x="39.5" y="39.5" width="79" height="79" as="geometry" />
        </mxCell>
        <mxCell id="jIJigr8dvK6AfDzSio0A-120" value="" style="group" vertex="1" connectable="0" parent="sndy7mt2s_JfuWecsUhK-98">
          <mxGeometry x="317.6" y="729" width="159" height="159" as="geometry" />
        </mxCell>
        <mxCell id="jIJigr8dvK6AfDzSio0A-121" value="" style="whiteSpace=wrap;html=1;aspect=fixed;fillColor=none;" vertex="1" parent="jIJigr8dvK6AfDzSio0A-120">
          <mxGeometry width="159" height="159" as="geometry" />
        </mxCell>
        <mxCell id="jIJigr8dvK6AfDzSio0A-122" value="" style="image;sketch=0;aspect=fixed;html=1;points=[];align=center;fontSize=12;image=img/lib/mscae/Docker.svg;" vertex="1" parent="jIJigr8dvK6AfDzSio0A-120">
          <mxGeometry width="40" height="32.8" as="geometry" />
        </mxCell>
        <mxCell id="jIJigr8dvK6AfDzSio0A-123" value="" style="whiteSpace=wrap;html=1;aspect=fixed;fillColor=none;" vertex="1" parent="jIJigr8dvK6AfDzSio0A-120">
          <mxGeometry x="39.5" y="39.5" width="80" height="80" as="geometry" />
        </mxCell>
        <mxCell id="jIJigr8dvK6AfDzSio0A-124" value="" style="shape=image;verticalLabelPosition=bottom;labelBackgroundColor=default;verticalAlign=top;aspect=fixed;imageAspect=0;image=https://ih1.redbubble.net/image.4053536903.3862/st,small,507x507-pad,600x600,f8f8f8.u1.jpg;" vertex="1" parent="jIJigr8dvK6AfDzSio0A-120">
          <mxGeometry x="39.5" y="39.5" width="79" height="79" as="geometry" />
        </mxCell>
        <mxCell id="sndy7mt2s_JfuWecsUhK-100" value="" style="endArrow=classic;html=1;rounded=0;entryX=1.007;entryY=0.818;entryDx=0;entryDy=0;entryPerimeter=0;exitX=-0.002;exitY=0.227;exitDx=0;exitDy=0;exitPerimeter=0;" parent="jIJigr8dvK6AfDzSio0A-138" source="sndy7mt2s_JfuWecsUhK-17" edge="1">
          <mxGeometry width="50" height="50" relative="1" as="geometry">
            <mxPoint x="888" y="860" as="sourcePoint" />
            <mxPoint x="791.4022399999999" y="850.1019999999999" as="targetPoint" />
          </mxGeometry>
        </mxCell>
        <mxCell id="sndy7mt2s_JfuWecsUhK-101" value="" style="endArrow=classic;html=1;rounded=0;entryX=0.999;entryY=0.945;entryDx=0;entryDy=0;entryPerimeter=0;exitX=0.004;exitY=0.303;exitDx=0;exitDy=0;exitPerimeter=0;" parent="jIJigr8dvK6AfDzSio0A-138" edge="1">
          <mxGeometry width="50" height="50" relative="1" as="geometry">
            <mxPoint x="868" y="530" as="sourcePoint" />
            <mxPoint x="788" y="530" as="targetPoint" />
          </mxGeometry>
        </mxCell>
        <mxCell id="sndy7mt2s_JfuWecsUhK-104" value="log data" style="text;html=1;align=center;verticalAlign=middle;whiteSpace=wrap;rounded=0;" parent="jIJigr8dvK6AfDzSio0A-138" vertex="1">
          <mxGeometry x="798" y="530" width="60" height="30" as="geometry" />
        </mxCell>
        <mxCell id="sndy7mt2s_JfuWecsUhK-105" value="log data" style="text;html=1;align=center;verticalAlign=middle;whiteSpace=wrap;rounded=0;" parent="jIJigr8dvK6AfDzSio0A-138" vertex="1">
          <mxGeometry x="798" y="860" width="60" height="30" as="geometry" />
        </mxCell>
        <mxCell id="sndy7mt2s_JfuWecsUhK-107" value="" style="shape=image;verticalLabelPosition=bottom;labelBackgroundColor=default;verticalAlign=top;aspect=fixed;imageAspect=0;image=https://velog.velcdn.com/images/hyunshoon/post/930b72e7-ac67-41eb-a719-cd5cbf378d99/image.png;" parent="jIJigr8dvK6AfDzSio0A-138" vertex="1">
          <mxGeometry x="429" y="649" width="80.67" height="80" as="geometry" />
        </mxCell>
        <mxCell id="sndy7mt2s_JfuWecsUhK-109" value="" style="image;sketch=0;aspect=fixed;html=1;points=[];align=center;fontSize=12;image=img/lib/mscae/Docker.svg;" parent="jIJigr8dvK6AfDzSio0A-138" vertex="1">
          <mxGeometry x="389" y="610" width="40" height="32.8" as="geometry" />
        </mxCell>
        <mxCell id="sndy7mt2s_JfuWecsUhK-111" value="Prometheus" style="text;html=1;align=center;verticalAlign=middle;whiteSpace=wrap;rounded=0;" parent="jIJigr8dvK6AfDzSio0A-138" vertex="1">
          <mxGeometry x="432" y="729" width="79.68" height="30" as="geometry" />
        </mxCell>
        <mxCell id="sndy7mt2s_JfuWecsUhK-112" value="" style="whiteSpace=wrap;html=1;aspect=fixed;fillColor=none;" parent="jIJigr8dvK6AfDzSio0A-138" vertex="1">
          <mxGeometry x="389" y="610" width="159" height="159" as="geometry" />
        </mxCell>
        <mxCell id="sndy7mt2s_JfuWecsUhK-84" value="" style="image;sketch=0;aspect=fixed;html=1;points=[];align=center;fontSize=12;image=img/lib/mscae/Docker.svg;" parent="jIJigr8dvK6AfDzSio0A-138" vertex="1">
          <mxGeometry x="588" y="530.5" width="40" height="32.8" as="geometry" />
        </mxCell>
        <mxCell id="sndy7mt2s_JfuWecsUhK-82" value="" style="shape=image;verticalLabelPosition=bottom;labelBackgroundColor=default;verticalAlign=top;aspect=fixed;imageAspect=0;image=https://velog.velcdn.com/images/idonymyeon/post/54c5e1b7-98dd-4dbd-a095-2cc3169e27f6/image.png;clipPath=inset(7.66% 0.67% 0% 57.33%);" parent="jIJigr8dvK6AfDzSio0A-138" vertex="1">
          <mxGeometry x="631" y="569.5" width="79.68" height="80" as="geometry" />
        </mxCell>
        <mxCell id="sndy7mt2s_JfuWecsUhK-83" value="Loki" style="text;html=1;align=center;verticalAlign=middle;whiteSpace=wrap;rounded=0;" parent="jIJigr8dvK6AfDzSio0A-138" vertex="1">
          <mxGeometry x="631" y="649.5" width="79.68" height="30" as="geometry" />
        </mxCell>
        <mxCell id="sndy7mt2s_JfuWecsUhK-85" value="" style="whiteSpace=wrap;html=1;aspect=fixed;fillColor=none;" parent="jIJigr8dvK6AfDzSio0A-138" vertex="1">
          <mxGeometry x="588" y="530" width="159" height="159" as="geometry" />
        </mxCell>
        <mxCell id="sndy7mt2s_JfuWecsUhK-86" value="" style="group" parent="jIJigr8dvK6AfDzSio0A-138" vertex="1" connectable="0">
          <mxGeometry x="588" y="730" width="160.63" height="159" as="geometry" />
        </mxCell>
        <mxCell id="sndy7mt2s_JfuWecsUhK-87" value="" style="group" parent="sndy7mt2s_JfuWecsUhK-86" vertex="1" connectable="0">
          <mxGeometry x="43" y="39" width="117.63" height="120" as="geometry" />
        </mxCell>
        <mxCell id="sndy7mt2s_JfuWecsUhK-89" value="Grafana" style="text;html=1;align=center;verticalAlign=middle;whiteSpace=wrap;rounded=0;" parent="sndy7mt2s_JfuWecsUhK-87" vertex="1">
          <mxGeometry y="80" width="79.68" height="30" as="geometry" />
        </mxCell>
        <mxCell id="sndy7mt2s_JfuWecsUhK-37" value="" style="shape=image;verticalLabelPosition=bottom;labelBackgroundColor=default;verticalAlign=top;aspect=fixed;imageAspect=0;image=https://velog.velcdn.com/images/idonymyeon/post/54c5e1b7-98dd-4dbd-a095-2cc3169e27f6/image.png;clipPath=inset(4.74% 55.67% 5.11% 2%);" parent="sndy7mt2s_JfuWecsUhK-87" vertex="1">
          <mxGeometry x="-3" y="-6.199999999999989" width="82.26" height="80" as="geometry" />
        </mxCell>
        <mxCell id="sndy7mt2s_JfuWecsUhK-91" value="" style="whiteSpace=wrap;html=1;aspect=fixed;fillColor=none;" parent="sndy7mt2s_JfuWecsUhK-87" vertex="1">
          <mxGeometry x="-41.370000000000005" y="-39" width="159" height="159" as="geometry" />
        </mxCell>
        <mxCell id="sndy7mt2s_JfuWecsUhK-90" value="" style="image;sketch=0;aspect=fixed;html=1;points=[];align=center;fontSize=12;image=img/lib/mscae/Docker.svg;" parent="sndy7mt2s_JfuWecsUhK-87" vertex="1">
          <mxGeometry x="-40" y="-39" width="40" height="32.8" as="geometry" />
        </mxCell>
        <mxCell id="sndy7mt2s_JfuWecsUhK-94" value="&lt;div&gt;&lt;br&gt;&lt;/div&gt;&lt;div&gt;log-Server&lt;/div&gt;" style="text;html=1;align=center;verticalAlign=middle;whiteSpace=wrap;rounded=0;" parent="jIJigr8dvK6AfDzSio0A-138" vertex="1">
          <mxGeometry x="338" y="460" width="80" height="30" as="geometry" />
        </mxCell>
        <mxCell id="sndy7mt2s_JfuWecsUhK-113" value="" style="endArrow=classic;html=1;rounded=0;entryX=0;entryY=0.917;entryDx=0;entryDy=0;entryPerimeter=0;exitX=1.001;exitY=0.268;exitDx=0;exitDy=0;exitPerimeter=0;" parent="jIJigr8dvK6AfDzSio0A-138" edge="1">
          <mxGeometry width="50" height="50" relative="1" as="geometry">
            <mxPoint x="788.7603199999999" y="608.652" as="sourcePoint" />
            <mxPoint x="868" y="607.8400000000001" as="targetPoint" />
          </mxGeometry>
        </mxCell>
        <mxCell id="sndy7mt2s_JfuWecsUhK-114" value="monitoring" style="text;html=1;align=center;verticalAlign=middle;whiteSpace=wrap;rounded=0;" parent="jIJigr8dvK6AfDzSio0A-138" vertex="1">
          <mxGeometry x="798" y="610" width="60" height="30" as="geometry" />
        </mxCell>
        <mxCell id="sndy7mt2s_JfuWecsUhK-116" value="monitoring" style="text;html=1;align=center;verticalAlign=middle;whiteSpace=wrap;rounded=0;" parent="jIJigr8dvK6AfDzSio0A-138" vertex="1">
          <mxGeometry x="798" y="769" width="60" height="30" as="geometry" />
        </mxCell>
        <mxCell id="sndy7mt2s_JfuWecsUhK-117" value="" style="endArrow=classic;html=1;rounded=0;entryX=0;entryY=0.917;entryDx=0;entryDy=0;entryPerimeter=0;exitX=1.001;exitY=0.268;exitDx=0;exitDy=0;exitPerimeter=0;" parent="jIJigr8dvK6AfDzSio0A-138" edge="1">
          <mxGeometry width="50" height="50" relative="1" as="geometry">
            <mxPoint x="789" y="770" as="sourcePoint" />
            <mxPoint x="868" y="769" as="targetPoint" />
          </mxGeometry>
        </mxCell>
        <mxCell id="sndy7mt2s_JfuWecsUhK-125" value="" style="group" parent="jIJigr8dvK6AfDzSio0A-138" vertex="1" connectable="0">
          <mxGeometry x="278" y="250" width="361.73" height="90" as="geometry" />
        </mxCell>
        <mxCell id="sndy7mt2s_JfuWecsUhK-118" value="" style="shape=image;verticalLabelPosition=bottom;labelBackgroundColor=default;verticalAlign=top;aspect=fixed;imageAspect=0;image=data:image/png,iVBORw0KGgoAAAANSUhEUgAAAQMAAADDCAMAAACxkIT5AAAAulBMVEX///8Ahv8Agv8AhP9nuP8AgP8Aif96uv/w8fJNWGPY7P8Ai/9htv/i4+VJVWD4/P/v+P+CipHQ0tVXYWtRXGZ2foa8v8Npsv9weIH1+//n8//S6f8vmP9irf+ipqxFUFzl5ufGyMuvsrcAjv+93v+QlpzG4/+Oxf+czf/h8P/C4f9nb3mp1f+02f9eZ3FGo/+m0f+ZnqQznf+Ewf81mf9QqP+fzP+IwP9ytv+11f+e0P+DxP/Mz9E6R1QoHS4TAAAQFElEQVR4nO1daWOiyhIVCAqiLII7LkEj7qiJiXcy7///rddV3exgJrkzZvByPkxAGug+VFVXVRdMpVKiRIkSJUqUKFGiRIkSJUqUuB36+mpYH+jad/fj27B2vZnCCQKnzM7LxXf35hsweJ2JvMBRCAIv2lv9u/t0W/RrvMjFIYjC8ru7dUusbZ4NnEcweRBPq+/u2c3g0kELguLV3NdXt3YCq4C/bL+7b7eB9oBCwFe7u4H/22p75igL/wl90LoiPvFuQu6HZ5QF8fl7unVT1EAKeHuXPnKYAQn84fZ9ujFekYJs41efwcHq/NZ9ujEWaArOOa7AwCaSINiD7KN3gr4ngBT4FKR85BWoA3+5ca9uC9AEYcYUYXc+ea/9eAOUk+o9O846yjozejXiGwn8KWEcnwlLvHf7rt0MOxjgmW4vqbMscKNhtEkfaOKGWWffB8AacEzQ7SBgqr5FTeSWcMPXvqV7t0AdRszkXJ+RHYU6h7wd8QlAX+54atiCKvyg27pC+OguTiKNE7zQDKITdbdWEUfHVB044LsVbanw1Cxc/EePRuNunUUPpJzpPuOA+EVdGkXyCpOQFXfHLgKYfGHEdgIOSLR0oiyILu5q0Oz8TX380xgokQcc4QCiJVQIsY57IC736iGswA9+YzsxDip6DTmg2jDiOeHlTlPNK5j5XbYT56BSuRCCxFfc7AIH/fT594ABF/F+4hwsRpg/oZk0si2c7lQOwC0Khh3lYFUTwB4ICp0z7tkeoMH3BxdyoC9nzEWgYtAnVAXTx90BBH7GXKGAg/kLzozEVWTe0xBM591mFV143mu6zTiojwQWMgRZ9QPkGDLSjfcB9ILZxIDxwtlVWJ7dDYMkMjVy1fo3dfGPY1DlglkPtJ5jawpCNIUAnpTwcr9rjxcQBCbmnp8/SKSSXPAiXr+jd7fBAlSdRU0LP1RyY898VYW8wh2vO2pexObvFJHnueRy05mP+4/3hzVKP5P9wY83N5k4dKOJ5zsFGH1ByU2ZziGtdM/WAICLKMIsh4Q5WgjvTmOFADhMQclcU1xi1HC/+dQAW5ouqaWC48EZF+XvepHJx5ImzuxtjAX9FV1G4e5XnSl2VQySxNllzVyDwW5UpbFjnqW4O/glWbyonLzz2XvhRIG5jPc9K0YxuAiCX5kIYE4z93zvM0IMO48LKjRZlZ5y/q/oQYDFxeb8Gj2er9q1uw2Xr0Gv//MCJLx4tXk9L4+s/bp6FFSRYAVSyJsN9bXbPXveqLb9UESCprviSRNwkBMeDJ5tASpVQFOU0dXc2irWtGgORi0vUtYOs6jN5PlRrsHsu4oYa9otlizUIkmVKAYjxkA4cc5yluMHnl//HTYtVEaWFq2murx64dl8aZ/sGceS75k6s6KLEzxtKrCmRSpfQA6EU2JSGJzwZ647H+haXx+6jJKMkWFVJ/GuSNM+NqUuaJrWvxc1Orh4sboGiRZO9EILoC9pBjpl7vqoCOI5tAC6iypRoOiTcTCLWTGs2hO7MeFYYO4lZTlq2DRetDKvYtPCLFxTDog2RAa3UtLjqlSGQEKysL+OTZOFfENITfPvf6K/fwKMA473QhKgUlU4p5y+HWpDXBAukZrPD5r+vaA2MRY1Yz1vNeYNDLag3TBg0Y39DmtV1Vi4vdrCmaMilbYBB8oZ5zOFLbpCajnuNq2rovhGRVw4RQ/A846XtO5IU5cuXceb/sWo4foq1QjRm4MCvIEqrCNtFsTGCbBkDws0VT1xNh81p3NOoNbwRJoqBcnNUg4qzwLNrtm13dALihQGaBMWij8jwPoLPyeRJIP+IvhPmzalMwKUc6FNKcj0yDio+NWqPHr+WI2kd2ceOTJECqrg88zh2MwOwTGt0UeKR6zCGpsqIENQ+F2UGgafA/+tNub5g6l3RYGfDYeYf+XQvi0i2Tc/BYf1jsRL4Gf1RchWZSEWxygGHJCnHGbXsBoJw6nZLKSAzvsJoEkcRZrShz8Uw+rwvx0RDsjDezvRYn4s3JqHYsFc6UVCDARfF3Z80DYyuRTlndkYByRSqM8Ptl+rsvRDYd8ngKlQ8EYhqkxtsG6DCwWmUvlRRHsQosv7NRivQowCqh3RxuBYzDAuYCS8Ri/CFSSVksHBMjRnLmTHghABHchZ1IeGt+REGks+80Q1ArY0KHGcFSTHmsEBvvDDarKWth06x1sh6UCi58iKPl3bDnMssIBdmFcgMjhACffNYD90C8Ej4sSoA8lKe5jp64fBso6BdkFcpEwOwL/hlNQIQMWTMcAB349O6f0oo+nfiywOsCxLsBOrry7OhIlEknbKej/6DYPRoohBNgfoCwmzqNj3a4FTGAOtarGjkbaOc4JYnNK2TA6oiAtCsE6gbW1apZNOi7g0AXHxpUY72PTjAn+w078Z2RzQNCHH8y+H+WK9q1Enms8s2buwpidsevGbFiabmMsB8RHpirQIYAUbp+x8gP+BmUhT0StKHg2Qx0FlPQtjABpVX/Ie7U5JNq0VxDuiyOWgol+U8DNavPByxfkfdKvRpqeCLbrmc1CprFxPwW9IcXZ3fv3Jhk1fugVj4DoHFSgr2B3+mf9SiY6+/oc0LUiYFMMHHPwnUHJQcgAoOfgVDgo11X8Jz9c4GMzdkWefzpfD8CMm+vXdD/f9fbldFGRxKYJD/rdPVjWorKHFZpy3u8aCvn1+aDA8uEVTrdz1IO015iwLvJfrJWjzh8ZDiEZjWSxZWPPZ7zYPvGRdmqDkfF1Sf2/4g/c3HgqTPwHgm6/p95eGrLKKr9reaSbQ8sPsD0cNnhuUgIf35XuN8dAoksOsvWQtkrNis+pljrHiakm/osS76QvoSEHjYVtHIgdzKhWNIkkCrqe/xX/TzpgNG0Wo2SpZ6UQ4HylYRvIF1Do0CvQyCHwMiUskiLAuLSH5Q/pOYFJitjjeuFFdAQmNIr0OMkoth+AbzylDWce6tIRJ0DOVf4C/riuFwSL1HVmssEl/CwRfExbiggBi0EjPF0O0CQVKKWIqPFKBisuKSoajU0vVpek1GGtG7nDZKJZZpN+RnQUkYF1a1lohFGTGV4/geTeyqgxW2fLx94KukwSlA2+55VTnZF0aqkLmBIAzZIGUoXKgjiB7SwPr0nCkmv9/U+h0NLjUHjV1ZKSN7A/o7HLZ+Vtx4FgB/lDHb4zS9XT9/eEZhqEtH56RHqhLE0FcVksX8ZAr8QvgoFivCm5pPRUv2KPazC+wIZLeABNInmnjHSQC1iHBKOp+kPiQYw6I7SiYUQQMPfaVXfrRMJwZlzD2CuXiGbQBOAC/YRgJE3M4QKNYIA8B0Xcj73BRXRiSxw3DIH4f9QShLk1cJuQguwBvWDxdAKzebP8/5GDfUFqxlQX/LxTjiMDG0H1HAAcZcRTBGjgoWjIFoM+7L7RAMTu9dgnr0rBeGV2h7BkQjxQrlRKgv1rlfiOKfng5Ggot8rS+DxJSmBdZ0ljlVFtUDqm6tEHeUNE9KFIeJQlwBzMEAeMIMT7fudmCQMPJgqoCYpcIoijwhb/k5zWHOD+m/EGkpiAV2zmgZeiJmQ3Lc/jkM8fRJo3foVF0MSBOXjV8EYFBH4mZdWk0XfIQnUZ0NyO3VDzQTyjxXlCXRr+4yiffCa7QqQGiBv+pazuaTixS4JwNl77ZI9q1193BHVVpWjnzA1o7llp/30Jd2pIut9D4ouA40Fd4BB5qzajzKJ6zNXzNhh24zyAFd0ABGdlL4rM51dxis/pzdKkNzEPRbYGPvmtHis2q5yuBsDZ/9pfZYL3pR7FnhBj0w3lWhfBBeal9EAL2h8vnB9SJ9/UdMYDQ64v5YvhLObH+YFVfDYpUn1qiRIkSJUqUKFGiRIkSJUqUKFGiRIkSJUqUKFEiH82W9KXzpJ8/v3bita5Mf/MVMyF12puN0Ql7L/UmneymnTE7MHWcafpw01KbH9ys5TiPn+mcMRl/pvkX8WiqgIkVdD/OgWMakR716EZLVVvpSzVNefrB3QxV3eTLStNMHrwJBx1Z7j02m4/G5Gfwm3OMDNBR22GPZLbdkq0vcSCZppl1JkNLNRMcdI6fEpsvYWrK7DF3crr2Wzl4VI0nNf/Jpjm4BY7y/oO7fpYDqdnMvyIh4FHtRWtTSPNpsPMRB6lrTyMn02t9nkNpIx/jv3R6vV67xwSwtd9s9pa5IejBxZMcOBt69nTTg740Tavp7FV17+Tf7ufUDC1P5adBrJHVBvMj9chd6L02tEELuxJeq2VYqmo+sbONfatpyKrcnkYPW/vjtPI5NC05MQV0yLBNlf3Y3AQctLM4GKtUkaYyjqtpmoa6MXqW+pR9uxZIXVsNbjlW5U2btJ+QfkvtFAfYlUBzHi11b7T3KqOwrY73+3bPkpkZ/SnDtdr7yWcNSEc2kzItSVIv6KWGuhDIriFvHhFjK8GBSTmwZAdOkeXsjmB7R/Unmo5qjckAtKb/LJku+PeTJDKP+BxM97JBDk578gZ71rbMJ7Lf8R9YW4ZdMtPnm9xsOLI5Tf2ohRxUol0mHFgWTqSqbOZwQPcDeUlgAxduWRa9p2T5iugrcdoehBbUUfd4GhNdwgEVAEPFi0im/NnBM4xlvLDUcRwnGHeSg4hNtPZPCCNHDphmPWbbtiY2I0aBtuqkWl3jwJCZgrVxQ2szAse0f9I+qdW/CsZBU52osuyL4BUOcu2BzwF9Fk1VznIYHRVdLIOZi2NKWq5wIG38TtHTNN+sOHKP9W3jfMnHd2jnp8ejYZm/gwM6dEnOFEz26DpsPjZkI9HgGgemypy4sQoGgXDwyIZAOWhuyKwQ8/l/EY/BPE+s45/mYGpZPYOgzYbzRQ6cbA6IQhsbMlduph8PO94tX4P/HQfNhC5MM3WhIzOLymzh06d0Ye93aoyDTnMAjZpjM0Xsh2gHrvK/4aCVsIktlZn+GMjZTcQTnd6Ipf+ETWz7W1R8MjmAXesjxzcFR2UOQi4HHTW8R8pPpIMhj8afG31rF+sXhRTIXEvGqHM6sRKmvJniLuRgzAJOchlwHfM4II/j0xahLW+QhHFoE6OeHLnoxAocniQHLRmHRfZ8DixQ2palZnjLZMJkCkJmRxzZUTVRxzU/GUHsSCKgCjkgfgFuPtFBJjmQmDF8yqL/A0w3xF8/Hol/i+e2YPbfW234w/hsq2DKnrJ85UrbsgznSX0yGQdmz3pyjmZmPyK9Y5sSubThOMfNhHFAWCGm3TCQqyn0YWP14A8cJ45123HaMn1ASQ6mE9NwOuNenot6FdKTPJlMVOuIYuD8D3ZUFf6V/AYm2bWQgyCHMpkgB809NB1PJ2gDm0TGDTiznSWO8iSIIjqTCRWJI9x7ohpB+/EefqHXngRdoa0dCzaZ/mi9/zEOJqiPUo9eav+1fIPU6nR870KTQkRasL3wx2Cj1XmUgl340+x0shNqkqSlt+He8SRkeOdUV7CjWuISWnj0sfP4US6vRIkSJUqUKFGiRIkSJUqUKFGixFX8H5YCU8bg5uQiAAAAAElFTkSuQmCC;" parent="sndy7mt2s_JfuWecsUhK-125" vertex="1">
          <mxGeometry x="242.19" width="119.54" height="90" as="geometry" />
        </mxCell>
        <mxCell id="sndy7mt2s_JfuWecsUhK-121" value="" style="rounded=0;whiteSpace=wrap;html=1;fillColor=none;" parent="sndy7mt2s_JfuWecsUhK-125" vertex="1">
          <mxGeometry x="239.04999999999995" width="116.86" height="90" as="geometry" />
        </mxCell>
        <mxCell id="sndy7mt2s_JfuWecsUhK-127" value="" style="shape=image;verticalLabelPosition=bottom;labelBackgroundColor=default;verticalAlign=top;aspect=fixed;imageAspect=0;image=data:image/png,iVBORw0KGgoAAAANSUhEUgAAAQMAAADDCAMAAACxkIT5AAAAulBMVEX///8Ahv8Agv8AhP9nuP8AgP8Aif96uv/w8fJNWGPY7P8Ai/9htv/i4+VJVWD4/P/v+P+CipHQ0tVXYWtRXGZ2foa8v8Npsv9weIH1+//n8//S6f8vmP9irf+ipqxFUFzl5ufGyMuvsrcAjv+93v+QlpzG4/+Oxf+czf/h8P/C4f9nb3mp1f+02f9eZ3FGo/+m0f+ZnqQznf+Ewf81mf9QqP+fzP+IwP9ytv+11f+e0P+DxP/Mz9E6R1QoHS4TAAAQFElEQVR4nO1daWOiyhIVCAqiLII7LkEj7qiJiXcy7///rddV3exgJrkzZvByPkxAGug+VFVXVRdMpVKiRIkSJUqUKFGiRIkSJUqUuB36+mpYH+jad/fj27B2vZnCCQKnzM7LxXf35hsweJ2JvMBRCAIv2lv9u/t0W/RrvMjFIYjC8ru7dUusbZ4NnEcweRBPq+/u2c3g0kELguLV3NdXt3YCq4C/bL+7b7eB9oBCwFe7u4H/22p75igL/wl90LoiPvFuQu6HZ5QF8fl7unVT1EAKeHuXPnKYAQn84fZ9ujFekYJs41efwcHq/NZ9ujEWaArOOa7AwCaSINiD7KN3gr4ngBT4FKR85BWoA3+5ca9uC9AEYcYUYXc+ea/9eAOUk+o9O846yjozejXiGwn8KWEcnwlLvHf7rt0MOxjgmW4vqbMscKNhtEkfaOKGWWffB8AacEzQ7SBgqr5FTeSWcMPXvqV7t0AdRszkXJ+RHYU6h7wd8QlAX+54atiCKvyg27pC+OguTiKNE7zQDKITdbdWEUfHVB044LsVbanw1Cxc/EePRuNunUUPpJzpPuOA+EVdGkXyCpOQFXfHLgKYfGHEdgIOSLR0oiyILu5q0Oz8TX380xgokQcc4QCiJVQIsY57IC736iGswA9+YzsxDip6DTmg2jDiOeHlTlPNK5j5XbYT56BSuRCCxFfc7AIH/fT594ABF/F+4hwsRpg/oZk0si2c7lQOwC0Khh3lYFUTwB4ICp0z7tkeoMH3BxdyoC9nzEWgYtAnVAXTx90BBH7GXKGAg/kLzozEVWTe0xBM591mFV143mu6zTiojwQWMgRZ9QPkGDLSjfcB9ILZxIDxwtlVWJ7dDYMkMjVy1fo3dfGPY1DlglkPtJ5jawpCNIUAnpTwcr9rjxcQBCbmnp8/SKSSXPAiXr+jd7fBAlSdRU0LP1RyY898VYW8wh2vO2pexObvFJHnueRy05mP+4/3hzVKP5P9wY83N5k4dKOJ5zsFGH1ByU2ZziGtdM/WAICLKMIsh4Q5WgjvTmOFADhMQclcU1xi1HC/+dQAW5ouqaWC48EZF+XvepHJx5ImzuxtjAX9FV1G4e5XnSl2VQySxNllzVyDwW5UpbFjnqW4O/glWbyonLzz2XvhRIG5jPc9K0YxuAiCX5kIYE4z93zvM0IMO48LKjRZlZ5y/q/oQYDFxeb8Gj2er9q1uw2Xr0Gv//MCJLx4tXk9L4+s/bp6FFSRYAVSyJsN9bXbPXveqLb9UESCprviSRNwkBMeDJ5tASpVQFOU0dXc2irWtGgORi0vUtYOs6jN5PlRrsHsu4oYa9otlizUIkmVKAYjxkA4cc5yluMHnl//HTYtVEaWFq2murx64dl8aZ/sGceS75k6s6KLEzxtKrCmRSpfQA6EU2JSGJzwZ647H+haXx+6jJKMkWFVJ/GuSNM+NqUuaJrWvxc1Orh4sboGiRZO9EILoC9pBjpl7vqoCOI5tAC6iypRoOiTcTCLWTGs2hO7MeFYYO4lZTlq2DRetDKvYtPCLFxTDog2RAa3UtLjqlSGQEKysL+OTZOFfENITfPvf6K/fwKMA473QhKgUlU4p5y+HWpDXBAukZrPD5r+vaA2MRY1Yz1vNeYNDLag3TBg0Y39DmtV1Vi4vdrCmaMilbYBB8oZ5zOFLbpCajnuNq2rovhGRVw4RQ/A846XtO5IU5cuXceb/sWo4foq1QjRm4MCvIEqrCNtFsTGCbBkDws0VT1xNh81p3NOoNbwRJoqBcnNUg4qzwLNrtm13dALihQGaBMWij8jwPoLPyeRJIP+IvhPmzalMwKUc6FNKcj0yDio+NWqPHr+WI2kd2ceOTJECqrg88zh2MwOwTGt0UeKR6zCGpsqIENQ+F2UGgafA/+tNub5g6l3RYGfDYeYf+XQvi0i2Tc/BYf1jsRL4Gf1RchWZSEWxygGHJCnHGbXsBoJw6nZLKSAzvsJoEkcRZrShz8Uw+rwvx0RDsjDezvRYn4s3JqHYsFc6UVCDARfF3Z80DYyuRTlndkYByRSqM8Ptl+rsvRDYd8ngKlQ8EYhqkxtsG6DCwWmUvlRRHsQosv7NRivQowCqh3RxuBYzDAuYCS8Ri/CFSSVksHBMjRnLmTHghABHchZ1IeGt+REGks+80Q1ArY0KHGcFSTHmsEBvvDDarKWth06x1sh6UCi58iKPl3bDnMssIBdmFcgMjhACffNYD90C8Ej4sSoA8lKe5jp64fBso6BdkFcpEwOwL/hlNQIQMWTMcAB349O6f0oo+nfiywOsCxLsBOrry7OhIlEknbKej/6DYPRoohBNgfoCwmzqNj3a4FTGAOtarGjkbaOc4JYnNK2TA6oiAtCsE6gbW1apZNOi7g0AXHxpUY72PTjAn+w078Z2RzQNCHH8y+H+WK9q1Enms8s2buwpidsevGbFiabmMsB8RHpirQIYAUbp+x8gP+BmUhT0StKHg2Qx0FlPQtjABpVX/Ie7U5JNq0VxDuiyOWgol+U8DNavPByxfkfdKvRpqeCLbrmc1CprFxPwW9IcXZ3fv3Jhk1fugVj4DoHFSgr2B3+mf9SiY6+/oc0LUiYFMMHHPwnUHJQcgAoOfgVDgo11X8Jz9c4GMzdkWefzpfD8CMm+vXdD/f9fbldFGRxKYJD/rdPVjWorKHFZpy3u8aCvn1+aDA8uEVTrdz1IO015iwLvJfrJWjzh8ZDiEZjWSxZWPPZ7zYPvGRdmqDkfF1Sf2/4g/c3HgqTPwHgm6/p95eGrLKKr9reaSbQ8sPsD0cNnhuUgIf35XuN8dAoksOsvWQtkrNis+pljrHiakm/osS76QvoSEHjYVtHIgdzKhWNIkkCrqe/xX/TzpgNG0Wo2SpZ6UQ4HylYRvIF1Do0CvQyCHwMiUskiLAuLSH5Q/pOYFJitjjeuFFdAQmNIr0OMkoth+AbzylDWce6tIRJ0DOVf4C/riuFwSL1HVmssEl/CwRfExbiggBi0EjPF0O0CQVKKWIqPFKBisuKSoajU0vVpek1GGtG7nDZKJZZpN+RnQUkYF1a1lohFGTGV4/geTeyqgxW2fLx94KukwSlA2+55VTnZF0aqkLmBIAzZIGUoXKgjiB7SwPr0nCkmv9/U+h0NLjUHjV1ZKSN7A/o7HLZ+Vtx4FgB/lDHb4zS9XT9/eEZhqEtH56RHqhLE0FcVksX8ZAr8QvgoFivCm5pPRUv2KPazC+wIZLeABNInmnjHSQC1iHBKOp+kPiQYw6I7SiYUQQMPfaVXfrRMJwZlzD2CuXiGbQBOAC/YRgJE3M4QKNYIA8B0Xcj73BRXRiSxw3DIH4f9QShLk1cJuQguwBvWDxdAKzebP8/5GDfUFqxlQX/LxTjiMDG0H1HAAcZcRTBGjgoWjIFoM+7L7RAMTu9dgnr0rBeGV2h7BkQjxQrlRKgv1rlfiOKfng5Ggot8rS+DxJSmBdZ0ljlVFtUDqm6tEHeUNE9KFIeJQlwBzMEAeMIMT7fudmCQMPJgqoCYpcIoijwhb/k5zWHOD+m/EGkpiAV2zmgZeiJmQ3Lc/jkM8fRJo3foVF0MSBOXjV8EYFBH4mZdWk0XfIQnUZ0NyO3VDzQTyjxXlCXRr+4yiffCa7QqQGiBv+pazuaTixS4JwNl77ZI9q1193BHVVpWjnzA1o7llp/30Jd2pIut9D4ouA40Fd4BB5qzajzKJ6zNXzNhh24zyAFd0ABGdlL4rM51dxis/pzdKkNzEPRbYGPvmtHis2q5yuBsDZ/9pfZYL3pR7FnhBj0w3lWhfBBeal9EAL2h8vnB9SJ9/UdMYDQ64v5YvhLObH+YFVfDYpUn1qiRIkSJUqUKFGiRIkSJUqUKFGiRIkSJUqUKFEiH82W9KXzpJ8/v3bita5Mf/MVMyF12puN0Ql7L/UmneymnTE7MHWcafpw01KbH9ys5TiPn+mcMRl/pvkX8WiqgIkVdD/OgWMakR716EZLVVvpSzVNefrB3QxV3eTLStNMHrwJBx1Z7j02m4/G5Gfwm3OMDNBR22GPZLbdkq0vcSCZppl1JkNLNRMcdI6fEpsvYWrK7DF3crr2Wzl4VI0nNf/Jpjm4BY7y/oO7fpYDqdnMvyIh4FHtRWtTSPNpsPMRB6lrTyMn02t9nkNpIx/jv3R6vV67xwSwtd9s9pa5IejBxZMcOBt69nTTg740Tavp7FV17+Tf7ufUDC1P5adBrJHVBvMj9chd6L02tEELuxJeq2VYqmo+sbONfatpyKrcnkYPW/vjtPI5NC05MQV0yLBNlf3Y3AQctLM4GKtUkaYyjqtpmoa6MXqW+pR9uxZIXVsNbjlW5U2btJ+QfkvtFAfYlUBzHi11b7T3KqOwrY73+3bPkpkZ/SnDtdr7yWcNSEc2kzItSVIv6KWGuhDIriFvHhFjK8GBSTmwZAdOkeXsjmB7R/Unmo5qjckAtKb/LJku+PeTJDKP+BxM97JBDk578gZ71rbMJ7Lf8R9YW4ZdMtPnm9xsOLI5Tf2ohRxUol0mHFgWTqSqbOZwQPcDeUlgAxduWRa9p2T5iugrcdoehBbUUfd4GhNdwgEVAEPFi0im/NnBM4xlvLDUcRwnGHeSg4hNtPZPCCNHDphmPWbbtiY2I0aBtuqkWl3jwJCZgrVxQ2szAse0f9I+qdW/CsZBU52osuyL4BUOcu2BzwF9Fk1VznIYHRVdLIOZi2NKWq5wIG38TtHTNN+sOHKP9W3jfMnHd2jnp8ejYZm/gwM6dEnOFEz26DpsPjZkI9HgGgemypy4sQoGgXDwyIZAOWhuyKwQ8/l/EY/BPE+s45/mYGpZPYOgzYbzRQ6cbA6IQhsbMlduph8PO94tX4P/HQfNhC5MM3WhIzOLymzh06d0Ye93aoyDTnMAjZpjM0Xsh2gHrvK/4aCVsIktlZn+GMjZTcQTnd6Ipf+ETWz7W1R8MjmAXesjxzcFR2UOQi4HHTW8R8pPpIMhj8afG31rF+sXhRTIXEvGqHM6sRKmvJniLuRgzAJOchlwHfM4II/j0xahLW+QhHFoE6OeHLnoxAocniQHLRmHRfZ8DixQ2palZnjLZMJkCkJmRxzZUTVRxzU/GUHsSCKgCjkgfgFuPtFBJjmQmDF8yqL/A0w3xF8/Hol/i+e2YPbfW234w/hsq2DKnrJ85UrbsgznSX0yGQdmz3pyjmZmPyK9Y5sSubThOMfNhHFAWCGm3TCQqyn0YWP14A8cJ45123HaMn1ASQ6mE9NwOuNenot6FdKTPJlMVOuIYuD8D3ZUFf6V/AYm2bWQgyCHMpkgB809NB1PJ2gDm0TGDTiznSWO8iSIIjqTCRWJI9x7ohpB+/EefqHXngRdoa0dCzaZ/mi9/zEOJqiPUo9eav+1fIPU6nR870KTQkRasL3wx2Cj1XmUgl340+x0shNqkqSlt+He8SRkeOdUV7CjWuISWnj0sfP4US6vRIkSJUqUKFGiRIkSJUqUKFGixFX8H5YCU8bg5uQiAAAAAElFTkSuQmCC;" parent="jIJigr8dvK6AfDzSio0A-138" vertex="1">
          <mxGeometry x="516.14" y="1030" width="119.54" height="90" as="geometry" />
        </mxCell>
        <mxCell id="sndy7mt2s_JfuWecsUhK-128" value="" style="rounded=0;whiteSpace=wrap;html=1;fillColor=none;" parent="jIJigr8dvK6AfDzSio0A-138" vertex="1">
          <mxGeometry x="513" y="1030" width="116.86" height="90" as="geometry" />
        </mxCell>
        <mxCell id="sndy7mt2s_JfuWecsUhK-120" value="" style="shape=image;verticalLabelPosition=bottom;labelBackgroundColor=default;verticalAlign=top;aspect=fixed;imageAspect=0;image=data:image/png,iVBORw0KGgoAAAANSUhEUgAAASwAAACoCAMAAABt9SM9AAAAe1BMVEX///8AAAAQEBB9fX3r6+u6urqnp6eNjY2AgICRkZEpKSmzs7Pb29stLS3z8/Pw8PDh4eH5+fllZWWdnZ3Q0NBfX1/Jycne3t5qamozMzOHh4e2traqqqpBQUFSUlK/v786OjpycnIiIiKfn59MTEwaGhoVFRVNTU1FRUX9/bFcAAAJ60lEQVR4nO1d63qiMBBtKmqtrJdqqba2im67ff8nXAFDbpNAIDgker7+KUJMjmEymVseHu644yawjOJ1csY6jpbYfekxov1ksyUCtpvJPsLuV+8Q7TZEi83uTliJxeRZz1SB58kCu5e9wO5PFVMF/uywe4qNaFCPqQJPt/w6RgZBBWNzq3TNUluqMqQz7H5jYNWEqgwr7J5fHfF3U64I+Y6xe39dPDWnKsMTdv+viOjYjitCjjcj6IdtqcowxB7FdTB2wRUhY+xxXAOvbrgi5BV7JN3j0xVXhHxij6VrbKs5qI8t9mi6hVOuAmfr4JYrQg7YI+oOX665IuQLe0xdwcocUxcD7FF1g2kXXBEyxR5XF3jrhitC3rBH1gHkMQ6Ho4H9HjEdDff/pGvYI3MP2ShaGA6ik42pZlxMokS6vMEcVxeQB0jW5Sd1dXomnORPEpQhdQdl6Nxn6zr+HV6OK9vLa4+mWyhag6gflQvl9uX9NN0n63Wy/xhN0nLSiSaGkdxaUPrDQpkosoFlQ7bvQ8CROk9WX2QrfaC80yQkF+xfZXSKx9QmCiRSmvvrsLPIWCuDI/s27S3V9tbVT3kCYP/cbgFT2zs46WgPAEws52QFM7UgY0Mrf8MMaDAQ84Mqjs84tWkR3GaG4Rx7h4aWtmkR9KW9u+ovKqCRkZ82LcL+bFf9xcQeHFkrwwrcYittpCfQxGC1ETGwKT8E4wPMVauVHlBKw3gP1X1chkm7RiHNLQRLDbgWHtu2Cvo+/F8Pwajt9nMAavXZQXdRAYqXQ/t2wSBL3/NXQJHlYJEHfwTfhRY4A1w0/AK063toLqRltdrqUEBbHt81LUi+O4lwhCwPvkt46C10Yx+AHI5OGkbDHCLLTdOQ0Jq7aRoJcXcvCxTH63c2AaQ5OPLEnICm/dYdoDXLUZTxDmja7+B4aEQdkuV3/qbiaCfOXAtQ0yM3TSMBUuB/u2vabxUeksKOVkPI9tPKZ4QO6F1xpGelwb2GYNCtm6bVYBPfg3FBD5+b+CCoZb9Vh67MWUEatEBHu5NMQdBn4XeUN2RIcZP6BloVPS9jAA3Jia38F2rYQbuYAHPmPtq3C07ZQ/t2UZFCg3Kw4QEVOCf2akSAg3JgKwUTWfzWSXWO9tZx63BojvehkuCoWk8tuDqZkw5jAs7MaSm14Jfb/2z8CTy1Wu3iwCjV1qE5PQAstNptEDVpin67K3JoyGrhtoLsDRkcdhoL2jTypkJex1UIqWG697ChjWCuLdPpveKQQUtWk5ph+hT+R/c9R4CpuJ/lLjE2lBzx21lBwe15j5PdSJRhPxauvkQnrXJ4bp6hYDFahb4gvUqbfR2TzRqM5GXwfRNNwZJ+X4oLS1mt/xzvDXpXlKX+ViGYxF+WLf91mUTg4EFz8/CxkqcM4ZRp4/PJLw4YwCioKYZVr6RwMBNLHHAh0YEoN52SWoerUCRWBsEIXCiPShCMdrx1qiMFshQWEHStQm7J5Xf02+BqrsLQsUrwhoIX9ZJRAa+UWr5HKcsQvK3Fi7gUhLxB6lS+h377VgHwRkC67vExtAZrIBTFy8N/o58CfltH7Q2zVaGebqYmJV5jGKU4dN/3q4NfEXkT/KzSCqhJXKUIaiWk4A1bdjqkkasgzFgqOJ+MXelaE1e+O1a14OoxWCVwGbgK+MwBTmOy8RzqufI9ac4IvlpffbOflqtwbA0ghFyudLgoVIZoPTKtiTfKlSYGiZjXR80jIZkaNND48+3JuolDLODDUazJchA+6AMWkKXYQBaowQe3edYCSNk1DB4gK3jRzuOjHVl+5xVaYynXRzaQJUcmf/mdN94EyY/AgCG4SiIrhAps9tg1ISswc7sFuNxNg6VldqeqwJTWgq+x3XkM1hxTG3EeVmOsqpYbwjZ+58c5QzKtiJ19m96mVL/jjjvuuMM7xB+r96czxqtpEkZx9o4wP8k5y/9WAQXjucQCKilHyMEy82j0/VzgUXhwebn6fKxnxVoe7e6/LrRB16yz09ft31VVBDeLkBcqf3BxIbW6Y3v/NbHUn/Q1km6pCEuoJKtexont/VcEWDPgAvo2lXSa5X74ZIkmPBGXW5jdyixEgifLdDg7DWfgMgToY/PoAj64KnSyYB/gBdRSx3m+qDqh0vcQPlkKQY/bw5YW8qXynFsBIvk5fjyBkyVG/n/u6MRZvn2kbNJwSXP00i2SxUv3H1kxKJc+lrpT2oVvkCw+StRUUJNOQBbAdoNkcWGP38Ybk1zGc/HqN0gWt8xVbQPjvfCW3h5Z3CbMdst6e2RxdZnMu745RXmlfPBnmX+Q77E1ZM0tBy+QtZymeYrQ9wa5hikXw2e8j4XMFFIrHqkmnex6vZnF8qvL5ZYl6CXC/cdI+CLUYsKsJ+YIa5YsMD7/1HBueDa1GFmCl5Bt1XOyWMWQUk6yXy0LB9Sn+mAeoMxS4Mx+dYEs9fxtgKz0tFoVf6vTiVGRk8X2A9ZkYVbYYp0we9btydKgNVmIQbusD6W5fTIW8J4L/h6RhXbMLWf2o4YWJac+L9PUJ7Kw6kYBtm6FrDwPqU9kYZnlF2oPekfW7yiOojWvQCAFLjUj6yE+gz36uIjzC9l9DsjKNE9G1pbKUq5SAlJCdUOycojjv8A5WUz9Yy5gpGPfuemuFfC4ZL2UTQ/FNq4PbjWk090VWa950MQFA/HmRmRxfe2SEgNYB+g+WnEiNiRL2O5IG+lGZHF9RTq4lXWgTA+JkzPWrPMNyTJtpJuRxapKIKmlbP8vqXpMQvSGLFYuEImstOyAZFRmNpnekMVsHUhkcXUaxFisHpLFZhZSlhTn3BFj/ntIFpNZWCdzM7LELvSQLObhdEmADbioEMFj0UOyWE9dEmADPiyE33NZkPXDPdYhWewanrGUI4uvsmChOthH0TCySgNCNVns58MrBiHWaBjHl/ofrOJaNVmcd7YeWUxUl6sK+z4dWcxdgOjiIRXQkcWKI34zraMeWZygLHZZMWeuEskim8s+LJWfQUFV7UIdWXzA4J9N+rrN7Bb1yOICLMhhMBBDDyWyzvhKxVuuyY4MU5ikgSylRnyWfF+PLOPvo5IlAbd+jT6w20SWYlzOXsZ6ZJnCo6vJwj1BxRAGbyBLOXGvPlnGyVxFFpKdlMHUeS1Z8tSyIMtERhVZ+OUz9CHLRbwyRJb8kAVZ0PcdflWy3tUDL3pReXIEpQ58U5WGkcXvt8UjZjIBn5b/CeWeVP+kfCzucUjXSJ6svXKkWF+OfIon4lELvyvWsxm1qA9ES86O/fSvmTqbDOh9os2pNMaz+JMTJykH2XyJ03RwRv5g8XWDrMkPJiOe+1UVYpFMT6vJ5LRL6qYaLuP9dNcslXOWfdlqtK989m0/Op27hC+t7rhDh/9+G3dkj6wn6AAAAABJRU5ErkJggg==;" parent="jIJigr8dvK6AfDzSio0A-138" vertex="1">
          <mxGeometry y="660.5" width="160.72" height="90" as="geometry" />
        </mxCell>
        <mxCell id="sndy7mt2s_JfuWecsUhK-123" value="" style="rounded=0;whiteSpace=wrap;html=1;fillColor=none;" parent="jIJigr8dvK6AfDzSio0A-138" vertex="1">
          <mxGeometry x="3.28999999999985" y="660" width="157.43" height="90" as="geometry" />
        </mxCell>
        <mxCell id="sndy7mt2s_JfuWecsUhK-130" value="" style="edgeStyle=elbowEdgeStyle;elbow=horizontal;endArrow=classic;html=1;curved=0;rounded=0;endSize=8;startSize=8;entryX=0;entryY=0.5;entryDx=0;entryDy=0;exitX=0.5;exitY=0;exitDx=0;exitDy=0;" parent="jIJigr8dvK6AfDzSio0A-138" source="sndy7mt2s_JfuWecsUhK-123" target="sndy7mt2s_JfuWecsUhK-121" edge="1">
          <mxGeometry width="50" height="50" relative="1" as="geometry">
            <mxPoint x="828" y="750" as="sourcePoint" />
            <mxPoint x="878" y="700" as="targetPoint" />
            <Array as="points">
              <mxPoint x="68" y="500" />
            </Array>
          </mxGeometry>
        </mxCell>
        <mxCell id="sndy7mt2s_JfuWecsUhK-131" value="" style="edgeStyle=elbowEdgeStyle;elbow=horizontal;endArrow=classic;html=1;curved=0;rounded=0;endSize=8;startSize=8;exitX=0.5;exitY=1;exitDx=0;exitDy=0;entryX=0;entryY=0.5;entryDx=0;entryDy=0;" parent="jIJigr8dvK6AfDzSio0A-138" source="sndy7mt2s_JfuWecsUhK-123" target="sndy7mt2s_JfuWecsUhK-128" edge="1">
          <mxGeometry width="50" height="50" relative="1" as="geometry">
            <mxPoint x="58" y="810" as="sourcePoint" />
            <mxPoint x="478" y="1190" as="targetPoint" />
            <Array as="points">
              <mxPoint x="68" y="980" />
              <mxPoint x="58" y="621" />
            </Array>
          </mxGeometry>
        </mxCell>
        <mxCell id="sndy7mt2s_JfuWecsUhK-133" value="" style="endArrow=classic;html=1;rounded=0;entryX=-0.002;entryY=0.687;entryDx=0;entryDy=0;entryPerimeter=0;exitX=1.07;exitY=0.647;exitDx=0;exitDy=0;exitPerimeter=0;" parent="jIJigr8dvK6AfDzSio0A-138" source="sndy7mt2s_JfuWecsUhK-128" target="sndy7mt2s_JfuWecsUhK-17" edge="1">
          <mxGeometry width="50" height="50" relative="1" as="geometry">
            <mxPoint x="648" y="950" as="sourcePoint" />
            <mxPoint x="698" y="900" as="targetPoint" />
          </mxGeometry>
        </mxCell>
        <mxCell id="sndy7mt2s_JfuWecsUhK-134" value="" style="endArrow=classic;html=1;rounded=0;entryX=-0.002;entryY=0.687;entryDx=0;entryDy=0;entryPerimeter=0;exitX=1.07;exitY=0.647;exitDx=0;exitDy=0;exitPerimeter=0;" parent="jIJigr8dvK6AfDzSio0A-138" edge="1">
          <mxGeometry width="50" height="50" relative="1" as="geometry">
            <mxPoint x="639" y="294.40999999999997" as="sourcePoint" />
            <mxPoint x="868" y="294.40999999999997" as="targetPoint" />
          </mxGeometry>
        </mxCell>
        <mxCell id="sndy7mt2s_JfuWecsUhK-135" value="CICD" style="text;html=1;align=center;verticalAlign=middle;whiteSpace=wrap;rounded=0;" parent="jIJigr8dvK6AfDzSio0A-138" vertex="1">
          <mxGeometry x="718" y="300" width="60" height="30" as="geometry" />
        </mxCell>
        <mxCell id="sndy7mt2s_JfuWecsUhK-136" value="CICD" style="text;html=1;align=center;verticalAlign=middle;whiteSpace=wrap;rounded=0;" parent="jIJigr8dvK6AfDzSio0A-138" vertex="1">
          <mxGeometry x="728.3199999999999" y="1090" width="60" height="30" as="geometry" />
        </mxCell>
        <mxCell id="jIJigr8dvK6AfDzSio0A-3" value="" style="group" vertex="1" connectable="0" parent="jIJigr8dvK6AfDzSio0A-138">
          <mxGeometry x="1168" width="180" height="90" as="geometry" />
        </mxCell>
        <mxCell id="jIJigr8dvK6AfDzSio0A-1" value="" style="shape=image;verticalLabelPosition=bottom;labelBackgroundColor=default;verticalAlign=top;aspect=fixed;imageAspect=0;image=data:image/png,iVBORw0KGgoAAAANSUhEUgAAASwAAACoCAMAAABt9SM9AAAAdVBMVEX///8asmsArV8ArmIArV4Ar2UptnPI6dcQsWi34ssAr2L4/ftEvIBexJDZ8eUetXCn3MDl9e2u38WBzqXR7d7h8+rx+vah2ruP06/D59SW1rS24stoxpXr9/F3y580uHhRwIhuyJl+zaNhxJFJvoQAqVSJ0as4ksVGAAAKXElEQVR4nO2ci3aqOhCGMSQQLiIiNy8oVuv7P+IhN0gQLe6idh3nW3uvWkAIP5PJzCTUsgAAAAAAAAAAAAAAAAAAAAAAAAAAAAAAAAAAAAAAAAAAAAAAAAAAAAAAAIDXsUy9JI7jrRsF727Knyb3VqGNkM3xEXJ2RfTuNv1N8viMbEJnOtTGiwvo1Sc6ItsUSkHwYfvu1v0pojkmg0oJ+/Jnybtb+GcI9njYqDrQIX13K/8GHrljVa114a93t/MvcMQ/S8V91yJ7d1PfTX6wx2nFjMt7d2vfS0Z/8lY6ePPu9r6TyH9Eq8bPX97d4veR3Qit7qhVvrvN7yJ/qA8K8KdGXIfHtWrU+syA6zgivBqAfGIxwhsZX12JVb+75a8n+De7akBvcFvJqnxn8WM/IBZtuW9br+6IwQER8h1rW6osq153/cjohJTYCPvUOZzr+bw+h86MIOT3q1utWKubpw2CZwgpvOu3Sreyo48RwujsPuFaQ9StDsTGs3mZpJVxm0EerYuvkGB7wALx4FPNNvXC9u1ZuE8mfuoiIyMyxotVOcl/UdDXGpZN9969W8u2+wXux65koAJRzZE0RGam898FGHmy3W6TNhXFukGv2z5BXpR97eTt+8WIg5dx3Suj4qvOtjVLYhTXy180L/pmkwBU/SoCQpnHL+iLxcrl0yH7kV+oioOuht3XeHsVh1AcD55pFBFip1ioX1N2bTvkn10kWsC81mvEimVdxn/ARaanTi56MPdVUitKSDsoUP/f29cTy0rPiMocfsMdlh1XebR5TcnoTB8Xq/Ffu1YubBYCd/wOKKrL4nIiSPSaX7itvlgaPOS5Mx5PToVUrz+qTUG0jsv9rokbzuf6dLwU23TA70cqnTT7YcANi4byG+68EdX+zVB1R6w5a4G//sXJH8TzVX/iDj6Kj47PwiqiYtKmNzWBFwm/kl7cHEixaK1vXfPzkbzdkB6Q8DBBzuAf3Xiz2Q5VpjOvaPZoF8qD1BdiqW/znwE7XcDFsteBxGxdu6maLtxbdbGTPatnzVA3HH2yIIDuklz76kZ+lejn4y6QzvVNFzEYLvyG78gKLgQ1D8PGTs/t52UTmbBng+lKjp/Zty8vYvNvLy33u/nJ5N9hX4UnAnumncvF/ESBlcSuV04lV6hr81Odhtq47mZZE3vAaRX2lbFJHHZ2lEXtBBL1Z7qxbrT5SoKFJ4qQcf3mSnwEpOFQoQRpXpfvJScrWa6TtTVVUfdGDi36H++MvR0+KaV5HZXT0kcioaA90Me4WKTQozRt3iMIfeM6tlMNi+XfFIvuerfVqFdYYfTlZdMkQxW6uiRzUTScH79Wq1Xj5g8E99Y9EH/F7HrdDg16jJOKrfR6KOdizXq3qMbJwOnfO6XVg2Jp8bH0xNZybYWbeWT9Is7T6LWm8Sbn0ustMMojr6x9pAlGyCU+td80w1m52Z+VvXjBoe1FqEORcnjiWmcidxH+n6vlsPAdqTCQ+yxNrNZnEbZHRlzqWicqHmKQNJZ1sKpporC1YfzkcjsgioqzlugQTTp60o+7qMnHRvh5oXVHJRbas43ZHslLsn2F+AVd2K5oJSPzxm+5qejXi9RlWJ1YmZvyEJGUza6Uj1NtfJzzu2I5/sZKrDQqpvHwW31e1f+hqJYn56FFIz137mgy2sjZVOZ2pJ6yLM+yvhOIR0bU9SN5aOe22jirFcuS9iM8Zs6PQvIESTvKBI38+VQryxJNLHr8+fhsha4d69k4JHf0B0AJ2ovnKsTS0vVCjAWeSrlwd09CIW51d8Sad2LJ4U+WQHjRyRc70sSbKnLQxRqqtlwTbPyeXD2xLKtE5oBg887NxTIySV40YB6Pxy9G3nLh3YpJNFKslNupCPly7fOUGN1wJh7Bcl3s5+GiGRYJdc6nVeya2U6wMkeF66gq3ziGXnzM42LZ+ri0kY5G9EKkd5YlvwSuRoslajc+jwK5oZLpZ8xd3cHTg7vc7hbIZ/GV3ERZKIEWu1iPnCLDtkwHrw7Z1KgVjLJylAhKdUXExamVIfFTZ8H1S8eL1fkpoRueflbDDB2of2uBZBO7O2WnV6wb5M1KWNoYmDidHyuxdCMVIhERm/VKPbUSYqxYIg7FTZ60xN0hk1KNnzGkBIcq10l1g7xXpYxEAMWe+D+IxSoKo8Xibo4V53nvtp8xSXdv/ehVTt1kc8LnbPSv2XeLJPyOZvaj3VAc/UA3FAbFziKc4zOmls5X3Y6ymgxqImfncFhQhM15MH/RSOMZw0Kv+tdrpch/cJsbartK5eCNIIkj0jD0gIOXvyI3Y6KNLpI/xMU0LYL8w7FYR11vCTK32DudL2syaWrmvKZJWGFoyJUZYrEcpoU7cRawiNBBD/PEQMkOHi+WKEgc+VfRU9as9PKd4saLJ9V2R26sdjOLV9bRpkTvl2KUWqig1O4c3IbbJ/NLIjzFXW1gKUqI7NjxYskrOP1nMh25PhzeLdEG3nlw2bdZVt6w86F526UyUWs4dumOirQSmQ+yU4uP7TTAUsxxYVYLEmIh9QzviVXYw22aDt1poR+8YnQakMtwWTLho+iwWUfLzJXpMqvLtYk0n3VNdzJb5pZWCPvGeybyshQBhyjdS79dR8uooPldsYJ2aEd6RXdC9IRHPtrKTTb7eR0eDmG9uxgBfFb3C2DmkB+r9lLiN6OEzIz4zbUJNkWI/ROfZf8KVYnGXhCZrKsTE/UlRPB9sdoVLnoZcFIC/e5pvC5ryqp93YSF7ePFcds+qm1v/bdtFtbSodcO/KV1q/gn++tA8W8hL3nqjPknsdRKBPS0ZSJGydEeXi7TBBO1atTOPKDfdYNjv6tS1CXSpDSeTTeheFVWDtXj0Rb5/CSWmlEYnDibhGxcEN+EDMJrmqu5BuY4s52+fISgWnRjOWGRUmWajWPTF0FsutybEqRlBYVSn37n3YRFw5y1xNfFEgHgMxc+nIZDgmtsmvSTaDN/UVRxzSr3dhPczvbKeFQEH5QzzHede8XevHRYANx0e6c0HLQbNpFx4wLrZrBOtdkjbuPEOItIEJ+4uG2kaTF8pzZd1u1CSJZ6Wy/VTEdLdyIvTtyhAWu5jot4fb3opkrXbjpihEtuTsRNxtf4NaVXM2PjU7Dr3HBK4sN2WcWiMPbUCf1gbD+8Aj0wbfJcsRbURphbfX9Zz9Ss/3Vp9/znc7c8VSyvG2Txs5eXfo1+eU6HPtAJnyxWtwoBPX8JUvgvPfGxyu0zxcqpyghe8ZZt/uOikAGtHnsT37HFKprn4J1mCGEyf8kS7+rGQvc7Wj2a2QfWVWVwUvLqZS8PLB9U67NfZa0Wj7zC85sFyP8HgvP4F8rvT1J8BKuR8ZZYafbpuP1606BZ4Q9+l9zgcr1KpicVCuFvHSmWu7t/uAc5H/7nL3osv/zhFQ+UoDM49j7Bdu77ZtxFiY0P5cf/CZphAjFz4cu/Yucf9slvXoT7APLI9ZJku05BJwAAAAAAAAAAAAAAAAAAAAAAAAAAAAAAAAAAAAAAAAAAAAAAAAAAAAAAAEDnP7rsgjkAjQgNAAAAAElFTkSuQmCC;" vertex="1" parent="jIJigr8dvK6AfDzSio0A-3">
          <mxGeometry width="152.20588235294116" height="85.23529411764706" as="geometry" />
        </mxCell>
        <mxCell id="jIJigr8dvK6AfDzSio0A-2" value="" style="rounded=0;whiteSpace=wrap;html=1;fillColor=none;" vertex="1" parent="jIJigr8dvK6AfDzSio0A-3">
          <mxGeometry width="150" height="90" as="geometry" />
        </mxCell>
        <mxCell id="jIJigr8dvK6AfDzSio0A-4" value="" style="endArrow=classic;startArrow=classic;html=1;rounded=0;entryX=0.5;entryY=1;entryDx=0;entryDy=0;exitX=0.521;exitY=-0.005;exitDx=0;exitDy=0;exitPerimeter=0;" edge="1" parent="jIJigr8dvK6AfDzSio0A-138" target="jIJigr8dvK6AfDzSio0A-2">
          <mxGeometry width="50" height="50" relative="1" as="geometry">
            <mxPoint x="1243.12" y="128.4000000000001" as="sourcePoint" />
            <mxPoint x="1028" y="180" as="targetPoint" />
          </mxGeometry>
        </mxCell>
        <mxCell id="jIJigr8dvK6AfDzSio0A-8" value="" style="group" vertex="1" connectable="0" parent="jIJigr8dvK6AfDzSio0A-138">
          <mxGeometry x="1348" width="160.71000000000004" height="90" as="geometry" />
        </mxCell>
        <mxCell id="jIJigr8dvK6AfDzSio0A-6" value="" style="shape=image;verticalLabelPosition=bottom;labelBackgroundColor=default;verticalAlign=top;aspect=fixed;imageAspect=0;image=data:image/png,iVBORw0KGgoAAAANSUhEUgAAASwAAACoCAMAAABt9SM9AAAAw1BMVEX///8OqIIAAAAApHwApn8Ao3oPqYOqqqr19fXr6+vx8fGEhIQNqoMApH0ApXvX19eQkJC8vLyzs7PU9++a2MnG6eDZ8Ot4y7VISEj6//+fn5+o2s3GxsaKiorm5uZTU1N3d3doxKvv+/mYmJg8PDw7tpfB6eAmroxfX1/Pz89ubm7BwcEjIyMUFBRgYGDn9/SI0b5qamo3NzcfHx9ZvaGk281ewKdIuJ2R1sR7z7a36dzI8OYAl27O6+UxtJSf18osLCwxywOxAAAON0lEQVR4nO2dDXeiOBfHpQnUtpCOrZVaq1VaYTpv2h3f1j668/0/1ZPkBkhCVJx2xhnM/5zdo4CU/Pbm5t6bhK3VrKysrKysrKysrKysrKysrKysrKysrKysrKysrKysrKysrP5itaOb5XQcMjU78SpqH/qB/lRFr4tJEuAAY0QIQYggjNeDxSo69IP9cRpNJ57rYuw4ju878G+f/oOJ6006o0M/3h+kqDN3XMYpEwATwsSfLW2H5BqNE6KQMgij9X+2O9ZGISaOt4MVN6+keeS4orFH/N2koGeipHPo5z2k4gSVIyWsK5i3Dv3Ih1IU7vRVBVz4v0M/9WG0WhPfL+GtVJHJMcYRS7yvWYFQsjr0o/92jdHPsXJ8jJeHfvjfrJBQB/STtHzUPPTj/1YNyM+BEiLHRGvg+sboiueCVIi6fvMVQu7i0E34bRoTzzgKYuJNxlOq8SxxsfmalNaxxKdNRE2oaDcYzZdZQtOOZ9tGS98n8SGb8NsUB8b2B4nW/NUcsSoN646GHun7xxDMjzxjB3PDQprcXiDBygSLDKtftWnPsclQco89um61UgxLTBDz98YeScIDNeH3aWEIGnwnGMPZVZjgIAi8QQy84nEnjpfTf4csKNPtMai622oZbIRGmTN+cjRzUxsic5VEa5HQIVTDlVS8wDUxdSjs8eSYdjqazICp+VgPDqKxq//WrXZH7BgjdzRl5+Igg+E7JClW3V8TnRaq8ojYLjSXG1bCuKykU8hbAKqotZx24rQoMxpi1XHh2cGa8us1dU2sXObd28MMFg5CwNMKE4KonOEUvNNIgU3DiuD1gK35tTIZVhBM+ETEMvBSdpNruDrENM5yPN/3MBER67UW0OLJAZvza1U0rCBpCtc0xAyWh9EQjKXdDDCNxzwPIlIwP5YqqUFadb3WEMstpRRIFrZHLi8xo2QK8DprxLOctPrg+0CrvVaNs7KR6as6leNhP4+lYpdGUdhZALybOQsTKCUWd3kA1nd5gXQaqAmAV9FY6199ilAU068jFlN4Dl6DX7+eBdhjoRYZLuMhdF2fRWOMS6R15IrWanT3jsE5rSb/u4YAjPCONhpTZ8Wo0i7Jvk8TJBJpxPPHmXIXr6IufqWOZC5HUVtgHAAsKK03GRvq1gkeiw4WjR0CXHidoal0Zoqxkv1wrMDCc34wpL5KwPJYZT3C1KxYrDCQhrnWIOBjpcu66dJVYVWzCjhX+k/AHVbTZV5cdENmWRH35mh4w38SjUUkfzMnFCJiXF41z4eqOB5GCivCDavF+1cKiwhYrlgA0p56CK3FJGEnCRzCjre0yQ68PlSLfqFulO5DuMeCGoQCCxNHOKt47VLnRYdEGDSjBYx8r65WPPQrOJ+vOGaooINhKbBGeJC2/WZI+LCIA3FoNGCdc6mnAaiC0/mh3A1xwg795xZgteWWdxKX5TsOTo2NaYG1EiAYabWk+HcYC0XIJMMCdSYQg9Guh3jOQ5Kp8T7v5OFPT5jO33yfd1OieOUBOzQ3w7oZulnXi9gqSrYaJB0gi5WLvcPSy6uLl5dPp8/17MhbYfWuui8vL3eNnvxXJPXyP9W7NEq9X1uJsgiDlZawOCw3hdWa8fIxxiLJbs0QZvk0dgf8QEuft8D7zYk1nk6Evl6keN4G6/4hvePJbSODciLr+8OV4NU9Maqn3HGkNpCXOGXLogEX91lhNu2VRhC15RBWvQWQO061pZVkn3mL84/KMzb2h/X8yCQd+KTc8UVAOSvwuOLHP5SBpZbt8JAdC+XR0BejIXawqMpkERQNuNhKEYcMI4lxdq89YJ1/1x7ydG9Yj/zarF/Vn7Q73tY3wDq52ANWsbIS56NhTBBE8FIn40QBBM0P2Y8Qd3Vaqcfxygdat6JB/f63r/DxeV9Ydyqsb3CbH5/6n37Ax0+bYJ0weyzVDVVYPmHuWpBhsGqtELtNtQLDYQ1EPX7BLRPmVbUCoFMaFljFP9ydnsNj/3gbrCto6yn7XofbnFzmsPr1M6bUT1IkcODs/BLOn8PXM/VvaJYFFc5xwHqcmHVYzRks+SoOK/B4jZ4nAD74uiZRMp7SlnXOrelL2tAL/ryNN8H6wr/di28NIJDDukh/9TE/A9LOq9KnGrijiSAOSD15ZLIsTD09pXHD+h4dE9nPVq48Ipb3WdDOz+nXc/71W02CVX++v9f+K5/TQ5cpx979MyD+/HzfU+lwPWT/NTQYolf+HCwP8UrfK5+V8MkwrbNEWZnehxSZwnJIK00tfcLy6rbSDcvD4h7re/49axrAqp9fcNN7ynDWzj78A618gHFT9jisod/yfsd1l33XYXzUXNNWWGrowNrIC1ZLtuLD93Awg/oVCx3EDAVxFgKWm8Hig0CtvZZz6dJxFjzfp/xAN20Ah/X1Phsq08jgTmLzwOxFHsu69Dv/8CT9iVOmngFGV8O6FVa7AGvO23i9JnwKJ8v/rmd80TfBUP7TYfEJ2XUxdSqhZ/58d/mBeupbwbK+5iDACV2cyLqtFSwLIs++6Y+9CVatkKaIWax204PltsQT02AxTXfcicio2brmDBY1t0URVtk5fEDS2HhGNiN29F47SDE3+hcQrvf7/asU/6PhjgUYELScbTyvSl8/42OxJovvouO4kHBd7ekw2xegweKVezU/RGPDXzPpUTIaI6zHXv1cfGQeHbDc0YPQHX9I18LvwL+fmv6YBgPAf914XtNY3wCG8uI5y/9oRkPT5Yk8w8w+K7Acj32sRcpggcqWaMDhPBvOyDZ3l131cEsFzbnI7UIOHSDKgjxGypDz0bAL96+LcEyywe2wOjos7uGbYvo+XgdsqalP8uJfa5bosGgGxC6Plfqfe/NOsABAz9RZ73OPswmWlCI2MhhfbrkgGjv5nhcfdsBq6RVOnvGE7jrtemwOzMduWkUe01RQh+W4vDChGmnpZcvdHbAgmKpLAOBAvV77vA0WgO2bYKmSCzHbYbX10gpflUUjBSJWzURjTNxkmaPDKizf8Zw1A9xWS2NJ2QrN4/6w6qcvD1pjN1nWTlhPStFqO6yCh+eWxYwEo3Q91mCRzlUEfFJVg+Vg3uOmagGj9II2QPJ545kirEeDZciwoHdCMGLshrlutWFgByx1KplGovmUKc3/JPPg7p7BWiuwHAzVdq1Wikpv4/ks20wZWN9M3UiGJbJh/pmlxGLYzGHdfmDqPuo51E5YLW0BPC88sMCeHU37Hw8kMMRdvO4+oNwAFnHgklCG7jlBWf8uXLf0fI2Lbrd7cbYJFgwIL6z8vMFnQQR/m9/xSoPV3fgwO2DVhupcMuwazDonmTPPnoaoPvEgop9QHgBLDJPLQF5X6u2z5uiL1rQX/sAbYUlms2E0FKFmnvHpsDbD2HVe64eQprzCGhm2wigIV8s1ImwTVO7GWEGZwRqJiD4mylYef581uH2taZA21zbAuswBbYQFP/zwC2CNlG5IwwQ+CoZBtrUQu4j3wCzZgQKpPOe81PMAssf6LMhOskw6b6kRVkOCJX1WYEGVJx9h3w8W9z95M8WEX3uilvLYGjYRejU9bosQiTJFYWHjQPkyaS312MIQROqXJ9IarM/5xb0fOaxTxTxhvPwqhtjzl/eDtVLjUp9w+2nPUOaFWIKYdIAN7ZJAhojkbzRNCnsO9lsJL+annh4bjTsxzfMhB6DBEoN/v9FIQygOC4zs9qoBgNJ6112jcdoXdYt3gcW8uWxFeA3OeYFx1hHzZaUonafnedGoM/AMG/ZL5zqgxokmXl7Y4OD1yAFy8GxCEEaKsy/6VSdPhkrpT8Baaatn0QCMaDROMCHIxck4DU/TvSm+D711VuyAvJi656ZDjZbwX2ZYhXkzNfp8EK3W58Lk2Z23wKrNsLYSbSBOtFdxsxmLLG80po7eS10YrxqPzO/3Cfbeht+TZll/pAHqhqC0J/rYyZfLf3I86UxhFoPcSVVDGpaVg1EClr6DziOz4gZWsaxU9EEHxkxkhPUzC7t7jx9Z6z5e5Fnic5cF2jDC1dnnrsjjGi/00o+n9VqDR+JiDOT+7iEvudYbfZ5Bfru4ymaI4DamSqM4z2P7zeeZClUtnOjv/xi4WGwV8NncPGd1bdr04/il635/pwyLYNBwqdpH00MwEGAkVodIu6BUVXDRn6y4+MYs7HqTZrxarZZjcFqj5twjxCVD8b02ML9mK6i2YdXYGzC0vsRwYcQ3jqMkLeRFo5vWKB3pQlLcrs8sb49FDn+p2oWle7KRecVV7dEEGV4KSGEdwztWRsbtrAIBzaC1AW6ZEN8AC/vlS6R/s643W5ZPc6BknBfVo84wwNj4Dh8fVXJrRUHx1jdn+Rivw04cx53FBBvidnFVUMWdFSYtd7w+C2OCAkSI2abgkqTy3j3VMthqXKK+t+0lWtXc32RWvOMldmJZ6cbzld3ua9Qq0XdKlJe/73Luv17R3JjvlRJOys5CV0Xt4stlyso9IoeVapUEzDvt3R3dCm5t2i22+sMUnu9gVfn8eYNaA4I3j3km+ZXc51tSqwnMQ2x9L6kkUuU3G+3Wdeix4miZ3uj7ZHJcQUNR0XSC8zmKbbCC2bGzYmLzgpiY3xuZsyKWlVC7tRxP1onH/i9FZgfmhpaVomjUarWM71HcY93aUSk0zFDg4Chj0d0Ki5aFvf2WNRyPirDQ/GiKfftKh+UT69o3SoXlp2tvrUySYXmOa7vgNuWwPAfjpu2C2yRZFjne/z9YSQEsz3MCzwZXu0Rh+Z60HN5qi7hlYTSp4HvE3l8MVva6P6vtCom7ruarbX+BwnXHhgtl1bKorKysrKysrKysrKysrKysrKysrKysrKysrKysrKysrKysrKys/jz9H9X2G/Z8E2LMAAAAAElFTkSuQmCC;" vertex="1" parent="jIJigr8dvK6AfDzSio0A-8">
          <mxGeometry width="160.71" height="90" as="geometry" />
        </mxCell>
        <mxCell id="jIJigr8dvK6AfDzSio0A-7" value="" style="rounded=0;whiteSpace=wrap;html=1;fillColor=none;" vertex="1" parent="jIJigr8dvK6AfDzSio0A-8">
          <mxGeometry width="160" height="90" as="geometry" />
        </mxCell>
        <mxCell id="jIJigr8dvK6AfDzSio0A-9" value="" style="endArrow=classic;startArrow=classic;html=1;rounded=0;entryX=0.5;entryY=1;entryDx=0;entryDy=0;exitX=0.521;exitY=-0.005;exitDx=0;exitDy=0;exitPerimeter=0;" edge="1" parent="jIJigr8dvK6AfDzSio0A-138">
          <mxGeometry width="50" height="50" relative="1" as="geometry">
            <mxPoint x="1428.05" y="128" as="sourcePoint" />
            <mxPoint x="1428.05" y="90" as="targetPoint" />
          </mxGeometry>
        </mxCell>
        <mxCell id="jIJigr8dvK6AfDzSio0A-10" value="" style="group" vertex="1" connectable="0" parent="jIJigr8dvK6AfDzSio0A-138">
          <mxGeometry x="1298" y="1290" width="160.71000000000004" height="90" as="geometry" />
        </mxCell>
        <mxCell id="jIJigr8dvK6AfDzSio0A-11" value="" style="shape=image;verticalLabelPosition=bottom;labelBackgroundColor=default;verticalAlign=top;aspect=fixed;imageAspect=0;image=data:image/png,iVBORw0KGgoAAAANSUhEUgAAASwAAACoCAMAAABt9SM9AAAAw1BMVEX///8OqIIAAAAApHwApn8Ao3oPqYOqqqr19fXr6+vx8fGEhIQNqoMApH0ApXvX19eQkJC8vLyzs7PU9++a2MnG6eDZ8Ot4y7VISEj6//+fn5+o2s3GxsaKiorm5uZTU1N3d3doxKvv+/mYmJg8PDw7tpfB6eAmroxfX1/Pz89ubm7BwcEjIyMUFBRgYGDn9/SI0b5qamo3NzcfHx9ZvaGk281ewKdIuJ2R1sR7z7a36dzI8OYAl27O6+UxtJSf18osLCwxywOxAAAON0lEQVR4nO2dDXeiOBfHpQnUtpCOrZVaq1VaYTpv2h3f1j668/0/1ZPkBkhCVJx2xhnM/5zdo4CU/Pbm5t6bhK3VrKysrKysrKysrKysrKysrKysrKysrKysrKysrKysrKysrP5itaOb5XQcMjU78SpqH/qB/lRFr4tJEuAAY0QIQYggjNeDxSo69IP9cRpNJ57rYuw4ju878G+f/oOJ6006o0M/3h+kqDN3XMYpEwATwsSfLW2H5BqNE6KQMgij9X+2O9ZGISaOt4MVN6+keeS4orFH/N2koGeipHPo5z2k4gSVIyWsK5i3Dv3Ih1IU7vRVBVz4v0M/9WG0WhPfL+GtVJHJMcYRS7yvWYFQsjr0o/92jdHPsXJ8jJeHfvjfrJBQB/STtHzUPPTj/1YNyM+BEiLHRGvg+sboiueCVIi6fvMVQu7i0E34bRoTzzgKYuJNxlOq8SxxsfmalNaxxKdNRE2oaDcYzZdZQtOOZ9tGS98n8SGb8NsUB8b2B4nW/NUcsSoN646GHun7xxDMjzxjB3PDQprcXiDBygSLDKtftWnPsclQco89um61UgxLTBDz98YeScIDNeH3aWEIGnwnGMPZVZjgIAi8QQy84nEnjpfTf4csKNPtMai622oZbIRGmTN+cjRzUxsic5VEa5HQIVTDlVS8wDUxdSjs8eSYdjqazICp+VgPDqKxq//WrXZH7BgjdzRl5+Igg+E7JClW3V8TnRaq8ojYLjSXG1bCuKykU8hbAKqotZx24rQoMxpi1XHh2cGa8us1dU2sXObd28MMFg5CwNMKE4KonOEUvNNIgU3DiuD1gK35tTIZVhBM+ETEMvBSdpNruDrENM5yPN/3MBER67UW0OLJAZvza1U0rCBpCtc0xAyWh9EQjKXdDDCNxzwPIlIwP5YqqUFadb3WEMstpRRIFrZHLi8xo2QK8DprxLOctPrg+0CrvVaNs7KR6as6leNhP4+lYpdGUdhZALybOQsTKCUWd3kA1nd5gXQaqAmAV9FY6199ilAU068jFlN4Dl6DX7+eBdhjoRYZLuMhdF2fRWOMS6R15IrWanT3jsE5rSb/u4YAjPCONhpTZ8Wo0i7Jvk8TJBJpxPPHmXIXr6IufqWOZC5HUVtgHAAsKK03GRvq1gkeiw4WjR0CXHidoal0Zoqxkv1wrMDCc34wpL5KwPJYZT3C1KxYrDCQhrnWIOBjpcu66dJVYVWzCjhX+k/AHVbTZV5cdENmWRH35mh4w38SjUUkfzMnFCJiXF41z4eqOB5GCivCDavF+1cKiwhYrlgA0p56CK3FJGEnCRzCjre0yQ68PlSLfqFulO5DuMeCGoQCCxNHOKt47VLnRYdEGDSjBYx8r65WPPQrOJ+vOGaooINhKbBGeJC2/WZI+LCIA3FoNGCdc6mnAaiC0/mh3A1xwg795xZgteWWdxKX5TsOTo2NaYG1EiAYabWk+HcYC0XIJMMCdSYQg9Guh3jOQ5Kp8T7v5OFPT5jO33yfd1OieOUBOzQ3w7oZulnXi9gqSrYaJB0gi5WLvcPSy6uLl5dPp8/17MhbYfWuui8vL3eNnvxXJPXyP9W7NEq9X1uJsgiDlZawOCw3hdWa8fIxxiLJbs0QZvk0dgf8QEuft8D7zYk1nk6Evl6keN4G6/4hvePJbSODciLr+8OV4NU9Maqn3HGkNpCXOGXLogEX91lhNu2VRhC15RBWvQWQO061pZVkn3mL84/KMzb2h/X8yCQd+KTc8UVAOSvwuOLHP5SBpZbt8JAdC+XR0BejIXawqMpkERQNuNhKEYcMI4lxdq89YJ1/1x7ydG9Yj/zarF/Vn7Q73tY3wDq52ANWsbIS56NhTBBE8FIn40QBBM0P2Y8Qd3Vaqcfxygdat6JB/f63r/DxeV9Ydyqsb3CbH5/6n37Ax0+bYJ0weyzVDVVYPmHuWpBhsGqtELtNtQLDYQ1EPX7BLRPmVbUCoFMaFljFP9ydnsNj/3gbrCto6yn7XofbnFzmsPr1M6bUT1IkcODs/BLOn8PXM/VvaJYFFc5xwHqcmHVYzRks+SoOK/B4jZ4nAD74uiZRMp7SlnXOrelL2tAL/ryNN8H6wr/di28NIJDDukh/9TE/A9LOq9KnGrijiSAOSD15ZLIsTD09pXHD+h4dE9nPVq48Ipb3WdDOz+nXc/71W02CVX++v9f+K5/TQ5cpx979MyD+/HzfU+lwPWT/NTQYolf+HCwP8UrfK5+V8MkwrbNEWZnehxSZwnJIK00tfcLy6rbSDcvD4h7re/49axrAqp9fcNN7ynDWzj78A618gHFT9jisod/yfsd1l33XYXzUXNNWWGrowNrIC1ZLtuLD93Awg/oVCx3EDAVxFgKWm8Hig0CtvZZz6dJxFjzfp/xAN20Ah/X1Phsq08jgTmLzwOxFHsu69Dv/8CT9iVOmngFGV8O6FVa7AGvO23i9JnwKJ8v/rmd80TfBUP7TYfEJ2XUxdSqhZ/58d/mBeupbwbK+5iDACV2cyLqtFSwLIs++6Y+9CVatkKaIWax204PltsQT02AxTXfcicio2brmDBY1t0URVtk5fEDS2HhGNiN29F47SDE3+hcQrvf7/asU/6PhjgUYELScbTyvSl8/42OxJovvouO4kHBd7ekw2xegweKVezU/RGPDXzPpUTIaI6zHXv1cfGQeHbDc0YPQHX9I18LvwL+fmv6YBgPAf914XtNY3wCG8uI5y/9oRkPT5Yk8w8w+K7Acj32sRcpggcqWaMDhPBvOyDZ3l131cEsFzbnI7UIOHSDKgjxGypDz0bAL96+LcEyywe2wOjos7uGbYvo+XgdsqalP8uJfa5bosGgGxC6Plfqfe/NOsABAz9RZ73OPswmWlCI2MhhfbrkgGjv5nhcfdsBq6RVOnvGE7jrtemwOzMduWkUe01RQh+W4vDChGmnpZcvdHbAgmKpLAOBAvV77vA0WgO2bYKmSCzHbYbX10gpflUUjBSJWzURjTNxkmaPDKizf8Zw1A9xWS2NJ2QrN4/6w6qcvD1pjN1nWTlhPStFqO6yCh+eWxYwEo3Q91mCRzlUEfFJVg+Vg3uOmagGj9II2QPJ545kirEeDZciwoHdCMGLshrlutWFgByx1KplGovmUKc3/JPPg7p7BWiuwHAzVdq1Wikpv4/ks20wZWN9M3UiGJbJh/pmlxGLYzGHdfmDqPuo51E5YLW0BPC88sMCeHU37Hw8kMMRdvO4+oNwAFnHgklCG7jlBWf8uXLf0fI2Lbrd7cbYJFgwIL6z8vMFnQQR/m9/xSoPV3fgwO2DVhupcMuwazDonmTPPnoaoPvEgop9QHgBLDJPLQF5X6u2z5uiL1rQX/sAbYUlms2E0FKFmnvHpsDbD2HVe64eQprzCGhm2wigIV8s1ImwTVO7GWEGZwRqJiD4mylYef581uH2taZA21zbAuswBbYQFP/zwC2CNlG5IwwQ+CoZBtrUQu4j3wCzZgQKpPOe81PMAssf6LMhOskw6b6kRVkOCJX1WYEGVJx9h3w8W9z95M8WEX3uilvLYGjYRejU9bosQiTJFYWHjQPkyaS312MIQROqXJ9IarM/5xb0fOaxTxTxhvPwqhtjzl/eDtVLjUp9w+2nPUOaFWIKYdIAN7ZJAhojkbzRNCnsO9lsJL+annh4bjTsxzfMhB6DBEoN/v9FIQygOC4zs9qoBgNJ6112jcdoXdYt3gcW8uWxFeA3OeYFx1hHzZaUonafnedGoM/AMG/ZL5zqgxokmXl7Y4OD1yAFy8GxCEEaKsy/6VSdPhkrpT8Baaatn0QCMaDROMCHIxck4DU/TvSm+D711VuyAvJi656ZDjZbwX2ZYhXkzNfp8EK3W58Lk2Z23wKrNsLYSbSBOtFdxsxmLLG80po7eS10YrxqPzO/3Cfbeht+TZll/pAHqhqC0J/rYyZfLf3I86UxhFoPcSVVDGpaVg1EClr6DziOz4gZWsaxU9EEHxkxkhPUzC7t7jx9Z6z5e5Fnic5cF2jDC1dnnrsjjGi/00o+n9VqDR+JiDOT+7iEvudYbfZ5Bfru4ymaI4DamSqM4z2P7zeeZClUtnOjv/xi4WGwV8NncPGd1bdr04/il635/pwyLYNBwqdpH00MwEGAkVodIu6BUVXDRn6y4+MYs7HqTZrxarZZjcFqj5twjxCVD8b02ML9mK6i2YdXYGzC0vsRwYcQ3jqMkLeRFo5vWKB3pQlLcrs8sb49FDn+p2oWle7KRecVV7dEEGV4KSGEdwztWRsbtrAIBzaC1AW6ZEN8AC/vlS6R/s643W5ZPc6BknBfVo84wwNj4Dh8fVXJrRUHx1jdn+Rivw04cx53FBBvidnFVUMWdFSYtd7w+C2OCAkSI2abgkqTy3j3VMthqXKK+t+0lWtXc32RWvOMldmJZ6cbzld3ua9Qq0XdKlJe/73Luv17R3JjvlRJOys5CV0Xt4stlyso9IoeVapUEzDvt3R3dCm5t2i22+sMUnu9gVfn8eYNaA4I3j3km+ZXc51tSqwnMQ2x9L6kkUuU3G+3Wdeix4miZ3uj7ZHJcQUNR0XSC8zmKbbCC2bGzYmLzgpiY3xuZsyKWlVC7tRxP1onH/i9FZgfmhpaVomjUarWM71HcY93aUSk0zFDg4Chj0d0Ki5aFvf2WNRyPirDQ/GiKfftKh+UT69o3SoXlp2tvrUySYXmOa7vgNuWwPAfjpu2C2yRZFjne/z9YSQEsz3MCzwZXu0Rh+Z60HN5qi7hlYTSp4HvE3l8MVva6P6vtCom7ruarbX+BwnXHhgtl1bKorKysrKysrKysrKysrKysrKysrKysrKysrKysrKysrKysrKys/jz9H9X2G/Z8E2LMAAAAAElFTkSuQmCC;" vertex="1" parent="jIJigr8dvK6AfDzSio0A-10">
          <mxGeometry width="160.71" height="90" as="geometry" />
        </mxCell>
        <mxCell id="jIJigr8dvK6AfDzSio0A-12" value="" style="rounded=0;whiteSpace=wrap;html=1;fillColor=none;" vertex="1" parent="jIJigr8dvK6AfDzSio0A-10">
          <mxGeometry width="160" height="90" as="geometry" />
        </mxCell>
        <mxCell id="jIJigr8dvK6AfDzSio0A-13" value="" style="endArrow=classic;startArrow=classic;html=1;rounded=0;entryX=0.5;entryY=1;entryDx=0;entryDy=0;exitX=0.521;exitY=-0.005;exitDx=0;exitDy=0;exitPerimeter=0;" edge="1" parent="jIJigr8dvK6AfDzSio0A-138">
          <mxGeometry width="50" height="50" relative="1" as="geometry">
            <mxPoint x="1378.05" y="1290" as="sourcePoint" />
            <mxPoint x="1378.05" y="1252" as="targetPoint" />
          </mxGeometry>
        </mxCell>
        <mxCell id="jIJigr8dvK6AfDzSio0A-14" value="" style="shape=image;verticalLabelPosition=bottom;labelBackgroundColor=default;verticalAlign=top;aspect=fixed;imageAspect=0;image=https://velog.velcdn.com/images/imysh578/post/f7de6e98-8464-408a-bd9f-aaaac732d795/image.png;" vertex="1" parent="jIJigr8dvK6AfDzSio0A-138">
          <mxGeometry x="1738" y="522.25" width="522" height="343" as="geometry" />
        </mxCell>
        <mxCell id="XDWtXi9IIhZVzAvtdl1A-60" value="&lt;div&gt;&lt;br&gt;&lt;/div&gt;&lt;div&gt;API-Server&lt;/div&gt;" style="text;html=1;align=center;verticalAlign=middle;whiteSpace=wrap;rounded=0;" parent="jIJigr8dvK6AfDzSio0A-138" vertex="1">
          <mxGeometry x="868" y="91" width="80" height="30" as="geometry" />
        </mxCell>
        <mxCell id="jIJigr8dvK6AfDzSio0A-133" value="EC2 instance contents" style="points=[[0,0],[0.25,0],[0.5,0],[0.75,0],[1,0],[1,0.25],[1,0.5],[1,0.75],[1,1],[0.75,1],[0.5,1],[0.25,1],[0,1],[0,0.75],[0,0.5],[0,0.25]];outlineConnect=0;gradientColor=none;html=1;whiteSpace=wrap;fontSize=12;fontStyle=0;container=1;pointerEvents=0;collapsible=0;recursiveResize=0;shape=mxgraph.aws4.group;grIcon=mxgraph.aws4.group_ec2_instance_contents;strokeColor=#D86613;fillColor=none;verticalAlign=top;align=left;spacingLeft=30;fontColor=#D86613;dashed=0;" vertex="1" parent="jIJigr8dvK6AfDzSio0A-138">
          <mxGeometry x="344" y="490" width="444" height="440" as="geometry" />
        </mxCell>
        <mxCell id="jIJigr8dvK6AfDzSio0A-135" value="" style="whiteSpace=wrap;html=1;aspect=fixed;fillColor=none;" vertex="1" parent="jIJigr8dvK6AfDzSio0A-138">
          <mxGeometry x="1828" y="513.75" width="340" height="340" as="geometry" />
        </mxCell>
        <mxCell id="jIJigr8dvK6AfDzSio0A-136" value="" style="endArrow=classic;startArrow=classic;html=1;rounded=0;" edge="1" parent="jIJigr8dvK6AfDzSio0A-138" source="jIJigr8dvK6AfDzSio0A-15">
          <mxGeometry width="50" height="50" relative="1" as="geometry">
            <mxPoint x="1748" y="569.5" as="sourcePoint" />
            <mxPoint x="1826" y="568.5" as="targetPoint" />
          </mxGeometry>
        </mxCell>
        <mxCell id="jIJigr8dvK6AfDzSio0A-137" value="" style="endArrow=classic;startArrow=classic;html=1;rounded=0;entryX=-0.007;entryY=0.871;entryDx=0;entryDy=0;entryPerimeter=0;" edge="1" parent="jIJigr8dvK6AfDzSio0A-138" target="jIJigr8dvK6AfDzSio0A-135">
          <mxGeometry width="50" height="50" relative="1" as="geometry">
            <mxPoint x="1598" y="930" as="sourcePoint" />
            <mxPoint x="1836" y="578.5" as="targetPoint" />
          </mxGeometry>
        </mxCell>
      </root>
    </mxGraphModel>
  </diagram>
</mxfile>
